<svg xmlns="http://www.w3.org/2000/svg" width="117" height="117" fill="none">
    <path fill="#EE6932" fill-rule="evenodd" d="M50.16 20.482c3.631-6.917 13.456-6.917 17.087 0l35.472 67.58c3.408 6.494-1.259 14.313-8.543 14.313H23.23c-7.284 0-11.952-7.819-8.543-14.312L50.16 20.482Zm44.016 72.143L58.703 25.044l-35.472 67.58h70.945Z" clip-rule="evenodd"/>
    <path fill="#EE6932" d="M53.87 48.75c0-2.693 2.164-4.875 4.834-4.875 2.669 0 4.833 2.182 4.833 4.875v19.5c0 2.692-2.164 4.875-4.834 4.875-2.669 0-4.833-2.183-4.833-4.875v-19.5ZM63.537 82.875c0 2.692-2.164 4.875-4.834 4.875-2.669 0-4.833-2.183-4.833-4.875 0-2.693 2.164-4.875 4.834-4.875 2.669 0 4.833 2.182 4.833 4.875Z"/>
</svg>