<svg width="362" height="355" viewBox="0 0 362 355" fill="none"
    xmlns="http://www.w3.org/2000/svg">
    <path d="M4.14367 350.187C2.28768 350.187 0.473373 350.74 -1.06982 351.778C-2.61302 352.815 -3.81579 354.29 -4.52605 356.015C-5.23631 357.74 -5.42214 359.639 -5.06006 361.47C-4.69797 363.302 -3.80423 364.984 -2.49185 366.304C-1.17947 367.625 0.492607 368.524 2.31293 368.888C4.13326 369.253 6.02007 369.066 7.73478 368.351C9.44949 367.636 10.9151 366.426 11.9462 364.874C12.9773 363.321 13.5277 361.495 13.5277 359.628C13.5277 357.124 12.539 354.723 10.7792 352.952C9.01933 351.181 6.63247 350.187 4.14367 350.187ZM4.14367 379.314C0.311054 379.314 -3.43549 378.17 -6.62219 376.028C-9.80889 373.886 -12.2926 370.841 -13.7593 367.278C-15.226 363.715 -15.6097 359.795 -14.862 356.013C-14.1143 352.231 -12.2687 348.757 -9.55867 346.031C-6.84861 343.304 -3.39577 341.447 0.363201 340.695C4.12217 339.943 8.01845 340.329 11.5593 341.804C15.1002 343.28 18.1266 345.779 20.2559 348.985C22.3852 352.191 23.5217 355.961 23.5217 359.817C23.5093 364.984 21.4637 369.936 17.8323 373.589C14.2009 377.243 9.27923 379.301 4.14367 379.314Z" fill="#F6F7F8"/>
    <path d="M4.14457 328.325C-0.0614929 328.338 -4.22336 329.189 -8.1016 330.827C-9.94099 331.634 -11.7005 332.614 -13.3567 333.754C-16.6544 335.982 -19.5039 338.817 -21.7554 342.109C-25.2982 347.29 -27.195 353.43 -27.195 359.718C-27.195 366.006 -25.2982 372.146 -21.7554 377.326C-19.5131 380.653 -16.663 383.52 -13.3567 385.776C-11.7005 386.916 -9.94099 387.896 -8.1016 388.703C-4.22045 390.326 -0.0584602 391.161 4.14457 391.158C8.33292 391.166 12.4805 390.331 16.3438 388.703C18.2032 387.907 19.9792 386.926 21.6458 385.776C24.9521 383.52 27.8023 380.653 30.0445 377.326C31.1801 375.67 32.1395 373.897 32.9066 372.039C34.5481 368.141 35.394 363.951 35.394 359.718C35.394 355.485 34.5481 351.294 32.9066 347.397C32.1395 345.538 31.1801 343.766 30.0445 342.109C27.8023 338.783 24.9521 335.915 21.6458 333.659C19.9792 332.509 18.2032 331.529 16.3438 330.732C12.4769 329.122 8.32961 328.303 4.14457 328.325ZM4.14457 318.883C9.56204 318.862 14.9267 319.955 19.9097 322.093C22.3121 323.101 24.6072 324.351 26.7601 325.823C31.0567 328.714 34.7537 332.417 37.6456 336.728C39.1057 338.903 40.3623 341.211 41.3992 343.62C43.5409 348.68 44.6422 354.124 44.6367 359.623C44.6575 365.074 43.5718 370.472 41.4461 375.485C40.4443 377.902 39.2024 380.211 37.7394 382.377C34.9193 386.718 31.3239 390.496 27.1355 393.518C24.9729 394.988 22.6796 396.252 20.2851 397.295C15.256 399.45 9.84533 400.558 4.37917 400.552C-1.0383 400.573 -6.40296 399.481 -11.386 397.342C-13.7884 396.334 -16.0835 395.085 -18.2364 393.613C-20.4747 392.173 -22.5651 390.512 -24.4767 388.656C-26.225 386.828 -27.7961 384.836 -29.1688 382.708C-30.6289 380.532 -31.8855 378.225 -32.9224 375.816C-35.0641 370.756 -36.1654 365.312 -36.1599 359.812C-36.1807 354.361 -35.095 348.964 -32.9693 343.95C-31.9675 341.533 -30.7256 339.224 -29.2626 337.058C-27.8776 334.924 -26.3075 332.918 -24.5706 331.063C-22.7377 329.232 -20.7432 327.573 -18.6117 326.106C-16.4491 324.637 -14.1559 323.373 -11.7614 322.329C-6.73226 320.174 -1.32158 319.066 4.14457 319.072V318.883Z" fill="#F6F7F8"/>
    <path d="M4.1453 306.516C-2.96278 306.5 -10.0007 307.93 -16.5465 310.717C-19.684 311.984 -22.6864 313.565 -25.5082 315.438C-28.3203 317.335 -30.9303 319.518 -33.297 321.953C-35.7174 324.334 -37.8872 326.96 -39.772 329.789C-41.6241 332.634 -43.1956 335.654 -44.464 338.806C-47.2204 345.396 -48.6403 352.474 -48.6403 359.624C-48.6403 366.775 -47.2204 373.853 -44.464 380.443C-43.1956 383.595 -41.6241 386.615 -39.772 389.46C-37.8633 392.271 -35.6954 394.895 -33.297 397.296C-30.9181 399.718 -28.3094 401.9 -25.5082 403.811C-22.6864 405.684 -19.684 407.265 -16.5465 408.532C-9.99624 411.305 -2.96128 412.733 4.1453 412.733C11.2519 412.733 18.2868 411.305 24.8371 408.532C27.97 407.255 30.9715 405.674 33.7988 403.811C39.3048 399.987 44.0742 395.188 47.8749 389.649C49.727 386.804 51.2985 383.784 52.5669 380.632C55.3233 374.042 56.7432 366.963 56.7432 359.813C56.7432 352.663 55.3233 345.585 52.5669 338.995C49.9104 332.686 46.0531 326.961 41.2122 322.142C38.8253 319.729 36.2175 317.547 33.4235 315.627C30.5962 313.764 27.5947 312.183 24.4617 310.906C18.0456 308.103 11.1397 306.611 4.1453 306.516ZM4.1453 297.83C12.3712 297.769 20.525 299.375 28.1215 302.551C35.4108 305.655 42.0377 310.143 47.6403 315.769C50.4201 318.58 52.9333 321.646 55.1475 324.927C57.3925 328.223 59.3098 331.733 60.8718 335.407C64.0367 343.097 65.6324 351.349 65.5638 359.672C65.6237 367.948 64.028 376.152 60.8718 383.795C59.3541 387.523 57.4843 391.095 55.2883 394.464C53.088 397.74 50.5735 400.792 47.7811 403.575C45.003 406.371 41.9713 408.9 38.7255 411.128C35.4434 413.377 31.9555 415.305 28.3092 416.887C20.6646 420.067 12.464 421.672 4.19222 421.608C-4.03449 421.677 -12.1901 420.072 -19.784 416.887C-23.4442 415.322 -26.9477 413.409 -30.2472 411.175C-33.5267 408.919 -36.5757 406.342 -39.3497 403.48C-42.1422 400.698 -44.6566 397.646 -46.8569 394.369C-49.1151 391.14 -51.0484 387.693 -52.6281 384.078C-55.7882 376.387 -57.3836 368.136 -57.3201 359.813C-57.389 351.536 -55.793 343.331 -52.6281 335.69C-49.5425 328.356 -45.0821 321.689 -39.4905 316.052C-36.7183 313.231 -33.6685 310.7 -30.3879 308.499C-27.0633 306.211 -23.5092 304.281 -19.784 302.739C-12.2124 299.515 -4.07658 297.846 4.1453 297.83Z" fill="#F6F7F8"/>
    <path d="M4.14549 284.659C-5.86591 284.649 -15.7764 286.672 -24.9919 290.607C-29.4201 292.5 -33.6616 294.808 -37.6604 297.5C-45.5923 302.897 -52.4247 309.771 -57.7891 317.752C-60.4645 321.775 -62.7581 326.043 -64.6395 330.498C-69.4949 342.02 -71.4114 354.581 -70.2151 367.038C-69.0187 379.496 -64.7474 391.455 -57.7891 401.829C-55.1192 405.814 -52.0707 409.53 -48.6866 412.922C-45.3065 416.403 -41.6156 419.563 -37.6604 422.364C-33.6616 425.056 -29.4201 427.363 -24.9919 429.256C-13.5396 434.141 -1.05547 436.07 11.326 434.866C23.7074 433.662 35.5936 429.365 45.9044 422.364C49.8838 419.576 53.5914 416.415 56.9776 412.922C60.3507 409.503 63.3982 405.773 66.0801 401.781C73.0304 391.404 77.297 379.445 78.4932 366.99C79.6894 354.534 77.7774 341.975 72.9305 330.451C71.0491 325.995 68.7555 321.728 66.0801 317.705C63.3858 313.737 60.3392 310.024 56.9776 306.611C53.5887 303.22 49.8802 300.169 45.9044 297.5C33.5692 289.125 19.0265 284.653 4.14549 284.659ZM4.14549 276.587C15.2685 276.535 26.285 278.768 36.5204 283.149C41.4562 285.215 46.1722 287.777 50.5965 290.796C59.3786 296.753 66.9442 304.349 72.8835 313.173C75.8897 317.629 78.4515 322.373 80.5315 327.335C84.8769 337.621 87.1112 348.685 87.1004 359.861C87.1265 370.989 84.9077 382.006 80.5784 392.245C78.506 397.202 75.9604 401.945 72.9774 406.408C66.9758 415.198 59.3833 422.773 50.5965 428.737C46.1713 431.794 41.4563 434.403 36.5204 436.526C26.3079 440.878 15.3302 443.121 4.23933 443.121C-6.85151 443.121 -17.8292 440.878 -28.0417 436.526C-32.9776 434.46 -37.6935 431.898 -42.1178 428.879C-46.5068 425.906 -50.6071 422.524 -54.364 418.776C-58.0787 414.991 -61.4544 410.884 -64.4518 406.502C-67.4251 402.034 -69.9702 397.292 -72.0529 392.34C-76.3721 382.071 -78.5977 371.035 -78.5977 359.885C-78.5977 348.735 -76.3721 337.698 -72.0529 327.429C-69.9993 322.463 -67.4527 317.719 -64.4518 313.267C-61.4858 308.86 -58.1248 304.736 -54.4109 300.946C-50.649 297.208 -46.5668 293.812 -42.2116 290.796C-37.7707 287.805 -33.0575 285.244 -28.1356 283.149C-17.9234 278.799 -6.944 276.567 4.14549 276.587Z" fill="#F6F7F8"/>
    <path d="M4.1461 262.804C-8.74935 262.792 -21.5151 265.393 -33.39 270.451C-39.1113 272.896 -44.5802 275.901 -49.7183 279.421C-65.1569 289.929 -77.2729 304.675 -84.6269 321.907C-89.6312 333.862 -92.2092 346.702 -92.2092 359.674C-92.2092 372.645 -89.6312 385.485 -84.6269 397.44C-82.1864 403.191 -79.201 408.692 -75.712 413.868C-68.8185 424.202 -59.9893 433.085 -49.7183 440.021C-44.5689 443.522 -39.1017 446.525 -33.39 448.99C-21.5085 454.025 -8.74629 456.619 4.1461 456.619C17.0385 456.619 29.8007 454.025 41.6822 448.99C47.3896 446.516 52.8559 443.513 58.0105 440.021C68.2815 433.085 77.1107 424.202 84.0042 413.868C87.4757 408.682 90.4601 403.182 92.9191 397.44C97.9234 385.485 100.501 372.645 100.501 359.674C100.501 346.702 97.9234 333.862 92.9191 321.907C90.4691 316.161 87.4842 310.66 84.0042 305.479C77.1107 295.145 68.2815 286.262 58.0105 279.326C52.8666 275.816 47.3986 272.812 41.6822 270.357C29.8007 265.33 17.0351 262.762 4.1461 262.804ZM4.1461 255.345C18.025 255.314 31.7667 258.108 44.5444 263.559C50.7097 266.135 56.6171 269.297 62.1864 273C67.6916 276.731 72.8293 280.983 77.5293 285.699C82.2177 290.439 86.4587 295.607 90.1977 301.136C93.862 306.733 97.0035 312.659 99.5817 318.839C105.015 331.742 107.807 345.614 107.793 359.626C107.824 373.59 105.047 387.416 99.6286 400.272C97.068 406.475 93.9258 412.419 90.2446 418.022C82.7689 429.206 73.2084 438.825 62.0925 446.347C56.5297 450.033 50.6395 453.194 44.4974 455.788C28.5922 462.598 11.2477 465.302 -5.96004 463.653C-23.1678 462.004 -39.6932 456.055 -54.0349 446.347C-59.5293 442.601 -64.6657 438.35 -69.3778 433.648C-78.8265 424.168 -86.3768 412.949 -91.618 400.603C-97.0211 387.716 -99.8047 373.872 -99.8047 359.886C-99.8047 345.9 -97.0211 332.056 -91.618 319.169C-89.0861 312.953 -85.9424 307.006 -82.2339 301.419C-70.9927 284.667 -55.1684 271.549 -36.6745 263.653C-23.7735 258.111 -9.88166 255.283 4.1461 255.345Z" fill="#F6F7F8"/>
    <path d="M4.1441 240.994C-11.6737 240.996 -27.3287 244.207 -41.8846 250.436C-48.9313 253.383 -55.6732 257.02 -62.0133 261.294C-74.5686 269.835 -85.3828 280.715 -93.8721 293.348C-98.1467 299.693 -101.793 306.444 -104.758 313.505C-110.89 328.165 -114.049 343.91 -114.049 359.816C-114.049 375.721 -110.89 391.466 -104.758 406.126C-101.783 413.183 -98.1371 419.933 -93.8721 426.284C-85.3828 438.916 -74.5686 449.797 -62.0133 458.338C-55.7069 462.639 -48.9965 466.307 -41.9784 469.29C-27.4225 475.519 -11.7675 478.73 4.05025 478.732C19.8676 478.726 35.5219 475.515 50.0789 469.29C57.0921 466.297 63.8015 462.629 70.1138 458.338C82.7535 449.82 93.6488 438.938 102.207 426.284C106.472 419.933 110.118 413.183 113.093 406.126C119.225 391.466 122.384 375.721 122.384 359.816C122.384 343.91 119.225 328.165 113.093 313.505C110.128 306.444 106.482 299.693 102.207 293.348C93.7179 280.715 82.9037 269.835 70.3484 261.294C64.0361 257.003 57.3267 253.335 50.3135 250.341C35.7062 244.13 20.0024 240.951 4.1441 240.994ZM4.1441 234.102C20.8464 234.069 37.3822 237.441 52.7534 244.016C60.2175 247.151 67.3532 251.025 74.0551 255.582C80.6808 260.085 86.8703 265.206 92.5417 270.877C98.1794 276.594 103.284 282.82 107.791 289.477C121.741 310.249 129.193 334.746 129.186 359.816C129.219 376.62 125.867 393.257 119.333 408.723C116.211 416.2 112.361 423.348 107.838 430.061C103.362 436.727 98.2719 442.954 92.6355 448.661C86.923 454.337 80.7033 459.473 74.0551 464.003C67.3825 468.526 60.2968 472.398 52.8941 475.569C37.4839 482.126 20.9225 485.504 4.19102 485.504C-12.5405 485.504 -29.1019 482.126 -44.5121 475.569C-51.9242 472.418 -59.0117 468.544 -65.6731 464.003C-72.3076 459.512 -78.4981 454.39 -84.1597 448.708C-89.8575 443.024 -95.0102 436.812 -99.5495 430.155C-104.061 423.443 -107.926 416.314 -111.092 408.865C-117.626 393.35 -120.977 376.666 -120.945 359.816C-120.966 343.002 -117.631 326.355 -111.139 310.862C-107.958 303.41 -104.077 296.281 -99.5495 289.571C-95.0853 282.896 -89.9946 276.667 -84.3474 270.971C-78.683 265.297 -72.5103 260.161 -65.9077 255.629C-59.2205 251.09 -52.1192 247.201 -44.6998 244.016C-29.2501 237.429 -12.6353 234.057 4.1441 234.102Z" fill="#F6F7F8"/>
    <path d="M4.14494 219.374C-14.5662 219.338 -33.0929 223.095 -50.3294 230.421C-58.6107 233.862 -66.5584 238.065 -74.071 242.978C-88.8258 253.087 -101.559 265.899 -111.607 280.744C-116.636 288.286 -120.955 296.283 -124.51 304.631C-131.75 321.986 -135.478 340.618 -135.478 359.439C-135.478 378.26 -131.75 396.892 -124.51 414.247C-120.955 422.595 -116.636 430.592 -111.607 438.134C-106.57 445.578 -100.852 452.532 -94.5282 458.905C-81.8242 471.758 -66.7461 481.99 -50.1417 489.024C-33.0001 496.491 -14.5343 500.394 4.14494 500.495C32.0018 500.521 59.228 492.152 82.314 476.467C89.7367 471.411 96.6651 465.658 103.006 459.283C109.33 452.91 115.048 445.956 120.085 438.512C125.116 430.979 129.421 422.981 132.941 414.625C140.219 397.28 143.969 378.644 143.969 359.817C143.969 340.99 140.219 322.353 132.941 305.009C129.421 296.653 125.116 288.654 120.085 281.122C110.051 266.265 97.3149 253.451 82.5486 243.355C75.0744 238.287 67.1409 233.94 58.8539 230.373C41.5398 223.038 22.9314 219.297 4.14494 219.374ZM4.14494 213.096C23.6662 213.059 42.9933 216.993 60.9653 224.661C69.6641 228.34 77.9784 232.878 85.7861 238.21C93.5259 243.475 100.753 249.465 107.369 256.102C113.969 262.768 119.938 270.038 125.199 277.817C130.47 285.673 134.98 294.02 138.665 302.743C146.298 320.873 150.223 340.363 150.207 360.053C150.233 379.708 146.324 399.167 138.712 417.268C135.026 425.991 130.517 434.338 125.246 442.194C120.013 449.981 114.059 457.252 107.463 463.909C100.837 470.549 93.6116 476.555 85.8799 481.848C78.0719 487.152 69.7759 491.689 61.106 495.397C43.0767 503.018 23.7005 506.888 4.14494 506.774C-15.3588 506.787 -34.6661 502.854 -52.6285 495.208C-61.2983 491.5 -69.5943 486.963 -77.4023 481.659C-100.86 465.745 -119.228 443.329 -130.281 417.127C-137.92 399 -141.831 379.505 -141.777 359.817C-141.803 340.162 -137.893 320.703 -130.281 302.601C-126.614 293.869 -122.104 285.52 -116.815 277.675C-106.333 262.047 -92.9699 248.586 -77.4492 238.021C-69.6263 232.715 -61.3145 228.178 -52.6285 224.472C-34.674 216.795 -15.3636 212.845 4.14494 212.859V213.096Z" fill="#F6F7F8"/>
    <path d="M4.14555 197.283C-28.0435 197.236 -59.5064 206.906 -86.1758 225.041C-103.343 236.774 -118.149 251.671 -129.812 268.944C-135.643 277.628 -140.624 286.861 -144.685 296.513C-153.078 316.55 -157.402 338.074 -157.402 359.818C-157.402 381.562 -153.078 403.086 -144.685 423.124C-140.624 432.775 -135.643 442.008 -129.812 450.693C-123.999 459.314 -117.385 467.36 -110.058 474.721C-102.753 482.091 -94.7544 488.731 -86.1758 494.549C-77.5451 500.431 -68.3685 505.458 -58.7744 509.561C-38.8666 518.029 -17.4684 522.38 4.14555 522.354C25.759 522.375 47.1562 518.024 67.0655 509.561C76.6596 505.458 85.8362 500.431 94.4669 494.549C111.647 482.865 126.443 467.978 138.056 450.693C156.123 423.873 165.781 392.218 165.781 359.818C165.781 327.418 156.123 295.763 138.056 268.944C132.274 260.312 125.674 252.265 118.349 244.915C111.032 237.544 103.036 230.889 94.4669 225.041C67.7975 206.906 36.3347 197.236 4.14555 197.283ZM4.14555 191.618C26.5474 191.567 48.7292 196.063 69.3646 204.836C79.2215 209.094 88.6489 214.294 97.5167 220.367C115.315 232.436 130.64 247.839 142.654 265.734C148.69 274.656 153.859 284.141 158.091 294.058C166.814 314.802 171.282 337.105 171.228 359.629C171.282 382.123 166.814 404.395 158.091 425.106C153.893 435.031 148.739 444.518 142.701 453.431C136.726 462.365 129.907 470.697 122.337 478.309C106.873 494.031 88.4666 506.515 68.1802 515.039C47.8939 523.563 26.1299 527.958 4.14555 527.972C-29.1605 528.018 -61.716 518.021 -89.3194 499.27C-98.1652 493.321 -106.429 486.539 -113.999 479.017C-121.584 471.406 -128.419 463.074 -134.41 454.139C-140.445 445.217 -145.615 435.732 -149.846 425.814C-158.584 405.073 -163.069 382.77 -163.031 360.243C-163.062 337.752 -158.594 315.484 -149.893 294.766C-145.663 284.774 -140.494 275.21 -134.457 266.206C-128.47 257.295 -121.651 248.981 -114.093 241.374C-106.528 233.744 -98.2472 226.866 -89.3663 220.839C-80.4985 214.767 -71.0712 209.565 -61.2142 205.308C-40.5715 196.346 -18.3369 191.689 4.14555 191.618Z" fill="#F6F7F8"/>
    <path d="M4.14536 175.419C-20.3743 175.374 -44.6495 180.32 -67.2202 189.958C-99.945 203.869 -127.938 227.063 -147.782 256.71C-154.395 266.575 -160.052 277.056 -164.673 288.009C-174.21 310.731 -179.123 335.146 -179.123 359.811C-179.123 384.477 -174.21 408.892 -164.673 431.614C-160.052 442.567 -154.395 453.048 -147.782 462.913C-141.228 472.696 -133.749 481.818 -125.448 490.151C-108.748 506.971 -88.9765 520.387 -67.2202 529.664C-44.6466 539.288 -20.3712 544.218 4.14536 544.157C28.6614 544.213 52.9357 539.283 75.511 529.664C97.2612 520.402 117.02 506.983 133.692 490.151C142.008 481.819 149.503 472.697 156.073 462.913C162.686 453.048 168.342 442.567 172.964 431.614C182.472 408.884 187.37 384.472 187.37 359.811C187.37 335.151 182.472 310.738 172.964 288.009C163.743 266.119 150.409 246.227 133.692 229.424C117.001 212.627 97.2466 199.227 75.511 189.958C52.9387 180.325 28.6645 175.379 4.14536 175.419ZM4.14536 170.415C41.6558 170.328 78.3248 181.595 109.387 202.752C129.407 216.363 146.655 233.701 160.202 253.83C167.007 263.957 172.821 274.724 177.562 285.979C187.334 309.336 192.367 334.422 192.367 359.764C192.367 385.106 187.334 410.192 177.562 433.55C172.812 444.8 166.999 455.566 160.202 465.698C153.459 475.744 145.776 485.118 137.258 493.692C128.733 502.291 119.399 510.038 109.387 516.824C99.3335 523.69 88.6307 529.54 77.4347 534.291C54.257 544.192 29.3258 549.267 4.14536 549.208C-21.0299 549.262 -45.9572 544.205 -69.144 534.338C-80.3317 529.57 -91.0328 523.72 -101.097 516.871C-111.088 510.075 -120.419 502.346 -128.967 493.787C-137.486 485.196 -145.169 475.807 -151.911 465.745C-158.735 455.63 -164.55 444.862 -169.272 433.597C-179.087 410.256 -184.099 385.155 -184.005 359.811C-184.058 334.482 -179.031 309.402 -169.225 286.073C-164.503 274.809 -158.688 264.04 -151.864 253.925C-145.11 243.872 -137.428 234.484 -128.92 225.883C-120.389 217.324 -111.073 209.595 -101.097 202.799C-91.0312 195.952 -80.3304 190.103 -69.144 185.332C-45.9632 175.44 -21.034 170.366 4.14536 170.415Z" fill="#F6F7F8"/>
    <path d="M4.14531 153.61C-23.2551 153.549 -50.3855 159.057 -75.619 169.802C-87.7978 174.961 -99.4562 181.284 -110.434 188.685C-121.301 196.095 -131.449 204.52 -140.744 213.847C-150.014 223.199 -158.387 233.409 -165.753 244.343C-173.108 255.388 -179.393 267.117 -184.521 279.371C-195.131 304.78 -200.596 332.063 -200.596 359.624C-200.596 387.184 -195.131 414.467 -184.521 439.876C-179.402 452.119 -173.117 463.834 -165.753 474.857C-158.4 485.815 -150.026 496.042 -140.744 505.401C-131.481 514.856 -121.348 523.408 -110.481 530.94C-99.5031 538.341 -87.8447 544.664 -75.6659 549.823C-50.4256 560.546 -23.2998 566.053 4.0984 566.015C44.9419 566.176 84.8862 553.953 118.724 530.94C140.573 516.132 159.373 497.218 174.09 475.235C193.105 446.763 204.776 413.976 208.053 379.832C211.329 345.688 206.108 311.26 192.858 279.654C187.731 267.401 181.446 255.671 174.09 244.626C166.747 233.645 158.389 223.387 149.129 213.988C139.827 204.65 129.662 196.224 118.771 188.827C107.815 181.417 96.1718 175.093 84.0034 169.944C58.7495 159.142 31.5865 153.586 4.14531 153.61ZM4.14531 149.172C32.139 149.12 59.8567 154.739 85.6457 165.695C98.0898 171.023 109.999 177.536 121.211 185.144C132.328 192.687 142.698 201.286 152.178 210.825C161.646 220.376 170.192 230.809 177.703 241.982C185.285 253.251 191.759 265.235 197.034 277.766C207.904 303.729 213.503 331.617 213.503 359.789C213.503 387.961 207.904 415.849 197.034 441.812C191.774 454.34 185.315 466.324 177.75 477.595C170.239 488.769 161.693 499.201 152.225 508.752C142.732 518.278 132.364 526.876 121.258 534.433C110.052 542.052 98.1416 548.565 85.6926 553.883C59.897 564.876 32.1596 570.512 4.14531 570.453C-37.6521 570.545 -78.515 558.014 -113.155 534.481C-124.261 526.924 -134.629 518.325 -144.122 508.8C-153.603 499.261 -162.151 488.827 -169.647 477.643C-177.139 466.367 -183.519 454.382 -188.697 441.859C-199.623 415.906 -205.225 387.998 -205.166 359.812C-205.203 331.644 -199.602 303.757 -188.697 277.813C-183.401 265.293 -176.928 253.31 -169.365 242.029C-154.375 219.694 -135.261 200.463 -113.061 185.38C-101.872 177.735 -89.9586 171.22 -77.4958 165.931C-51.6876 154.85 -23.9145 149.149 4.14531 149.172Z" fill="#F6F7F8"/>
    <path d="M4.14522 131.754C-26.174 131.696 -56.1927 137.797 -84.1116 149.693C-97.5774 155.435 -110.462 162.471 -122.586 170.7C-159.025 195.444 -187.547 230.29 -204.696 271.016C-216.465 299.123 -222.528 329.314 -222.528 359.814C-222.528 390.313 -216.465 420.504 -204.696 448.611C-193.3 475.688 -176.811 500.294 -156.134 521.075C-145.846 531.399 -134.614 540.724 -122.586 548.927C-110.462 557.157 -97.5774 564.192 -84.1116 569.935C-56.1927 581.83 -26.174 587.932 4.14522 587.874C34.4644 587.932 64.4832 581.83 92.4021 569.935C105.868 564.192 118.752 557.157 130.877 548.927C142.904 540.724 154.137 531.399 164.425 521.075C174.686 510.724 183.954 499.423 192.107 487.321C200.287 475.123 207.279 462.159 212.987 448.611C224.756 420.504 230.818 390.313 230.818 359.814C230.818 329.314 224.756 299.123 212.987 271.016C207.279 257.468 200.287 244.505 192.107 232.306C183.954 220.205 174.686 208.904 164.425 198.553C154.149 188.215 142.915 178.889 130.877 170.7C118.752 162.471 105.868 155.435 92.4021 149.693C64.4832 137.797 34.4644 131.696 4.14522 131.754ZM4.14522 127.93C34.9629 127.871 65.4756 134.068 93.8566 146.152C107.561 151.944 120.668 159.075 132.988 167.443C157.539 184.084 178.664 205.339 195.204 230.04C203.554 242.432 210.673 255.619 216.459 269.411C228.51 297.972 234.687 328.692 234.617 359.719C234.68 390.726 228.52 421.427 216.506 449.98C210.72 463.773 203.601 476.96 195.251 489.351C178.711 514.052 157.586 535.307 133.035 551.949C120.723 560.382 107.616 567.576 93.9035 573.428C65.5171 585.553 34.9838 591.768 4.14522 591.697C-26.6444 591.733 -57.1249 585.519 -85.4723 573.428C-99.1808 567.607 -112.288 560.444 -124.604 552.043C-136.851 543.725 -148.275 534.24 -158.715 523.718C-169.157 513.201 -178.584 501.709 -186.867 489.399C-195.181 476.986 -202.298 463.802 -208.122 450.027C-220.075 421.447 -226.232 390.751 -226.232 359.743C-226.232 328.735 -220.075 298.039 -208.122 269.458C-202.336 255.666 -195.216 242.479 -186.867 230.087C-178.6 217.764 -169.172 206.272 -158.715 195.767C-137.698 174.645 -112.83 157.799 -85.4723 146.152C-57.12 134.082 -26.6407 127.885 4.14522 127.93Z" fill="#F6F7F8"/>
    <path d="M4.14508 109.899C-29.0855 109.858 -61.9804 116.587 -92.5574 129.679C-107.355 135.936 -121.5 143.652 -134.786 152.716C-147.98 161.667 -160.283 171.879 -171.524 183.212C-182.788 194.522 -192.939 206.901 -201.834 220.176C-210.84 233.552 -218.525 247.782 -224.778 262.663C-237.662 293.462 -244.299 326.541 -244.299 359.957C-244.299 393.374 -237.662 426.453 -224.778 457.252C-218.515 472.128 -210.831 486.357 -201.834 499.739C-192.939 513.014 -182.788 525.393 -171.524 536.703C-148.889 559.493 -122.091 577.671 -92.6043 590.236C-61.9862 603.216 -29.0798 609.847 4.14508 609.733C53.6438 609.782 102.021 594.901 143.029 567.01C156.223 558.06 168.527 547.847 179.767 536.514C191.047 525.206 201.214 512.828 210.125 499.55C219.106 486.167 226.774 471.938 233.022 457.064C245.939 426.273 252.594 393.19 252.594 359.769C252.594 326.347 245.939 293.265 233.022 262.474C226.784 247.594 219.116 233.364 210.125 219.987C201.229 206.712 191.078 194.333 179.814 183.023C168.573 171.691 156.27 161.478 143.076 152.527C129.785 143.473 115.641 135.757 100.848 129.49C70.2571 116.463 37.3628 109.798 4.14508 109.899ZM4.14508 106.689C37.8285 106.612 71.1814 113.371 102.208 126.563C132.004 139.336 159.083 157.75 181.973 180.805C193.377 192.271 203.668 204.806 212.705 218.24C221.788 231.793 229.55 246.194 235.884 261.246C249.019 292.425 255.754 325.953 255.684 359.816C255.742 393.658 249.024 427.165 235.931 458.338C229.581 473.391 221.803 487.793 212.705 501.344C203.655 514.768 193.365 527.302 181.973 538.78C170.566 550.243 158.108 560.596 144.765 569.701C131.355 578.828 117.104 586.638 102.208 593.021C71.1908 606.249 37.8338 613.026 4.14508 612.943C-29.4915 613.006 -62.7956 606.247 -93.7773 593.069C-108.748 586.604 -123.063 578.7 -136.522 569.465C-149.871 560.386 -162.329 550.048 -173.729 538.591C-185.123 527.114 -195.413 514.58 -204.462 501.155C-213.545 487.603 -221.307 473.201 -227.641 458.149C-240.776 426.971 -247.511 393.443 -247.441 359.58C-247.504 325.737 -240.785 292.229 -227.687 261.058C-221.263 245.995 -213.406 231.593 -204.227 218.051C-195.218 204.61 -184.942 192.073 -173.542 180.616C-162.145 169.141 -149.686 158.787 -136.334 149.695C-122.864 140.557 -108.55 132.747 -93.5896 126.374C-62.6573 113.271 -29.417 106.576 4.14508 106.689Z" fill="#F6F7F8"/>
    <path d="M4.14557 88.0894C-31.973 88.0185 -67.7351 95.2757 -101.003 109.427C-117.065 116.24 -132.433 124.603 -146.89 134.4C-175.604 153.974 -200.35 178.871 -219.804 207.761C-229.574 222.303 -237.918 237.765 -244.719 253.93C-258.718 287.422 -265.929 323.389 -265.929 359.722C-265.929 396.055 -258.718 432.022 -244.719 465.514C-237.918 481.678 -229.574 497.14 -219.804 511.683C-200.35 540.573 -175.604 565.47 -146.89 585.044C-132.426 594.855 -117.059 603.25 -101.003 610.111C-67.7417 624.295 -31.9795 631.584 4.14557 631.543C40.2642 631.614 76.0262 624.357 109.294 610.205C125.34 603.354 140.692 594.959 155.135 585.138C169.484 575.44 182.871 564.374 195.111 552.093C207.305 539.785 218.303 526.332 227.955 511.919C237.707 497.366 246.05 481.905 252.869 465.75C266.868 432.258 274.079 396.291 274.079 359.958C274.079 323.625 266.868 287.658 252.869 254.166C246.05 238.01 237.707 222.55 227.955 207.997C218.303 193.584 207.305 180.131 195.111 167.823C182.871 155.542 169.484 144.476 155.135 134.778C140.703 124.939 125.35 116.543 109.294 109.711C76.0463 95.4618 40.2835 88.1081 4.14557 88.0894ZM4.14557 85.4458C40.6061 85.3757 76.7053 92.7136 110.279 107.02C126.505 113.902 142.016 122.378 156.589 132.323C171.08 142.145 184.594 153.354 196.941 165.793C209.305 178.227 220.46 191.822 230.254 206.392C240.111 221.07 248.534 236.674 255.403 252.985C273.108 295.028 280.082 340.858 275.69 386.305C271.297 431.751 255.678 475.371 230.254 513.194C200.679 557.308 159.019 591.844 110.326 612.613C76.7357 626.919 40.6212 634.257 4.14557 634.187C-50.1877 634.27 -103.294 617.939 -148.298 587.31C-177.333 567.585 -202.34 542.441 -221.963 513.241C-231.811 498.557 -240.233 482.953 -247.112 466.647C-261.264 432.839 -268.555 396.524 -268.555 359.84C-268.555 323.155 -261.264 286.841 -247.112 253.033C-240.271 236.708 -231.847 221.101 -221.963 206.439C-212.2 191.859 -201.06 178.263 -188.696 165.84C-176.338 153.4 -162.826 142.176 -148.345 132.323C-103.328 101.684 -50.2037 85.3534 4.14557 85.4458Z" fill="#F6F7F8"/>
    <path d="M4.14474 66.2341C-34.8794 66.1459 -73.5182 73.9981 -109.449 89.3186C-126.792 96.7081 -143.386 105.767 -158.997 116.368C-174.492 126.914 -188.961 138.911 -202.21 152.199C-215.422 165.559 -227.346 180.148 -237.823 195.772C-248.35 211.484 -257.353 228.178 -264.708 245.623C-279.85 281.8 -287.65 320.658 -287.65 359.912C-287.65 399.167 -279.85 438.025 -264.708 474.202C-257.353 491.647 -248.35 508.341 -237.823 524.053C-227.341 539.629 -215.417 554.171 -202.21 567.484C-188.974 580.801 -174.504 592.815 -158.997 603.362C-143.386 613.964 -126.792 623.022 -109.449 630.412C-73.505 645.679 -34.8708 653.498 4.14474 653.402C43.1667 653.468 81.8012 645.617 117.738 630.317C169.815 608.04 214.392 571.108 246.112 523.959C256.629 508.306 265.632 491.676 272.997 474.296C288.139 438.119 295.94 399.261 295.94 360.007C295.94 320.753 288.139 281.895 272.997 245.717C265.648 228.24 256.645 211.514 246.112 195.772C235.629 180.169 223.688 165.611 210.453 152.294C197.22 139.006 182.767 127.009 167.286 116.463C151.669 105.871 135.077 96.8126 117.738 89.413C81.8145 74.0601 43.1753 66.1757 4.14474 66.2341ZM4.14474 64.2042C62.6785 64.1079 119.891 81.7057 168.365 114.716C183.951 125.326 198.499 137.403 211.813 150.783C238.621 177.724 260.002 209.623 274.78 244.726C290.119 281.13 297.987 320.278 297.912 359.818C297.98 399.338 290.129 438.465 274.827 474.863C267.396 492.445 258.299 509.266 247.66 525.092C237.14 540.736 225.168 555.341 211.907 568.712C198.6 582.132 184.034 594.226 168.412 604.825C119.922 637.802 62.7199 655.396 4.19168 655.338C-35.0878 655.411 -73.9783 647.512 -110.153 632.111C-127.626 624.65 -144.344 615.512 -160.076 604.825C-175.686 594.191 -190.264 582.1 -203.618 568.712C-216.928 555.309 -228.932 540.655 -239.465 524.95C-250.082 509.144 -259.149 492.338 -266.538 474.769C-281.876 438.364 -289.745 399.217 -289.669 359.676C-289.765 300.784 -272.274 243.221 -239.465 194.45C-228.908 178.763 -216.906 164.111 -203.618 150.688C-190.303 137.309 -175.755 125.232 -160.17 114.622C-144.438 103.949 -127.719 94.8269 -110.247 87.383C-74.0574 71.9828 -35.1483 64.0987 4.14474 64.2042Z" fill="#F6F7F8"/>
    <path d="M4.14377 44.3698C-37.7621 44.3037 -79.2517 52.7327 -117.849 69.1538C-136.485 77.1077 -154.319 86.8458 -171.103 98.2337C-204.38 120.885 -233.046 149.727 -255.559 183.207C-266.878 200.094 -276.557 218.037 -284.462 236.788C-300.706 275.645 -309.074 317.374 -309.074 359.528C-309.074 401.681 -300.706 443.411 -284.462 482.267C-276.557 501.018 -266.878 518.961 -255.559 535.848C-244.398 552.696 -231.673 568.439 -217.554 582.867C-203.33 597.139 -187.793 610.022 -171.15 621.341C-154.378 632.761 -136.542 642.516 -117.896 650.468C-79.2986 666.889 -37.809 675.318 4.09689 675.252C46.0027 675.318 87.4923 666.889 126.089 650.468C144.736 642.516 162.571 632.761 179.344 621.341C196.019 610.026 211.588 597.144 225.842 582.867C240.027 568.556 252.831 552.923 264.082 536.178C275.435 519.313 285.116 501.367 292.984 482.598C309.259 443.749 317.644 402.017 317.644 359.858C317.644 317.7 309.259 275.967 292.984 237.118C285.116 218.35 275.435 200.403 264.082 183.538C241.585 150.043 212.916 121.198 179.625 98.5642C162.841 87.1763 145.008 77.4382 126.371 69.4843C87.7245 52.9188 46.1512 44.3765 4.14377 44.3698ZM4.14377 42.9536C46.2466 42.8782 87.9313 51.3561 126.699 67.8792C145.437 75.833 163.353 85.6206 180.188 97.1007C196.929 108.457 212.547 121.404 226.827 135.764C241.075 150.137 253.941 165.833 265.255 182.641C276.638 199.596 286.364 217.618 294.298 236.457C310.649 275.493 319.073 317.426 319.073 359.787C319.073 402.148 310.649 444.081 294.298 483.117C286.393 501.97 276.665 519.996 265.255 536.934C253.968 553.777 241.1 569.49 226.827 583.858C212.541 598.193 196.941 611.138 180.235 622.521C163.378 633.964 145.466 643.75 126.746 651.743C87.9602 668.261 46.2613 676.738 4.14377 676.668C-58.6169 676.759 -119.96 657.896 -171.948 622.521C-188.664 611.153 -204.265 598.206 -218.539 583.858C-232.787 569.484 -245.653 553.789 -256.967 536.981C-268.358 520.031 -278.085 502.007 -286.011 483.164C-302.36 444.12 -310.783 402.179 -310.783 359.811C-310.783 317.443 -302.36 275.502 -286.011 236.457C-278.085 217.614 -268.358 199.591 -256.967 182.641C-245.668 165.822 -232.8 150.125 -218.539 135.764C-204.253 121.429 -188.653 108.484 -171.948 97.1007C-155.062 85.6221 -137.1 75.8348 -118.318 67.8792C-79.5771 51.3747 -37.9269 42.8973 4.14377 42.9536Z" fill="#F6F7F8"/>
    <path d="M4.14441 22.5142C-40.6829 22.4233 -85.0661 31.4474 -126.341 49.0449C-206.654 83.3025 -270.588 147.628 -304.637 228.434C-322.04 269.988 -331.005 314.625 -331.005 359.718C-331.005 404.811 -322.04 449.448 -304.637 491.002C-270.588 571.808 -206.654 636.134 -126.341 670.391C-85.0697 688.016 -40.6904 697.088 4.14441 697.063C70.868 697.177 136.088 677.13 191.356 639.517C227.063 615.283 257.807 584.368 281.912 548.454C294.029 530.397 304.384 511.205 312.832 491.144C330.204 449.582 339.153 404.948 339.153 359.86C339.153 314.772 330.204 270.138 312.832 228.575C295.968 188.521 271.577 152.119 240.997 121.367C225.795 106.067 209.172 92.2669 191.356 80.1547C173.431 67.9537 154.37 57.5348 134.442 49.0449C93.222 31.4835 48.9073 22.4604 4.14441 22.5142ZM4.14441 21.7117C49.1136 21.6135 93.6393 30.6535 135.052 48.2896C155.043 56.8109 174.166 67.2611 192.154 79.4938C227.939 103.792 258.747 134.788 282.897 170.793C295.045 188.88 305.432 208.104 313.911 228.198C331.403 269.84 340.371 314.604 340.281 359.812C340.375 405.006 331.407 449.755 313.911 491.38C305.442 511.493 295.055 530.734 282.897 548.832C258.747 584.837 227.939 615.833 192.154 640.131C174.162 652.356 155.039 662.806 135.052 671.335C93.6333 688.946 49.1095 697.97 4.14441 697.866C-40.7891 697.957 -85.2798 688.934 -126.669 671.335C-146.64 662.803 -165.747 652.354 -183.724 640.131C-219.51 615.833 -250.317 584.837 -274.468 548.832C-286.616 530.744 -297.002 511.521 -305.482 491.427C-322.916 449.765 -331.896 405.017 -331.896 359.812C-331.896 314.608 -322.916 269.86 -305.482 228.198C-288.584 188.046 -264.127 151.561 -233.459 120.753C-218.224 105.439 -201.57 91.623 -183.724 79.4938C-165.747 67.2711 -146.64 56.8213 -126.669 48.2896C-85.2827 30.6758 -40.7922 21.6366 4.14441 21.7117Z" fill="#F6F7F8"/>
    <path d="M4.14493 0.704733C-43.5885 0.637388 -90.8436 10.2716 -134.786 29.0293C-156.018 38.0233 -176.322 49.0914 -195.407 62.0746C-233.443 87.8917 -266.206 120.807 -291.921 159.039C-304.825 178.24 -315.826 198.669 -324.765 220.031C-347.909 275.058 -357.028 335.03 -351.292 394.502C-345.556 453.974 -325.149 511.063 -291.921 560.587C-266.238 598.826 -233.507 631.758 -195.5 657.598C-176.416 670.581 -156.112 681.65 -134.88 690.644C-90.9375 709.401 -43.6823 719.035 4.05109 718.968C51.7845 719.035 99.0397 709.401 142.982 690.644C164.209 681.639 184.513 670.572 203.603 657.598C241.609 631.758 274.341 598.826 300.024 560.587C333.176 511.03 353.538 453.947 359.272 394.49C365.007 335.033 355.932 275.076 332.868 220.031C323.928 198.669 312.928 178.24 300.024 159.039C274.341 120.799 241.609 87.8678 203.603 62.0274C184.513 49.0538 164.209 37.9862 142.982 28.9821C99.0654 10.253 51.8435 0.63517 4.14493 0.704733ZM4.14493 719.11C-43.6188 719.177 -90.9046 709.543 -134.88 690.785C-156.113 681.761 -176.429 670.695 -195.547 657.74C-233.521 631.875 -266.232 598.947 -291.921 560.728C-304.799 541.494 -315.798 521.053 -324.765 499.689C-343.283 455.409 -352.822 407.853 -352.822 359.813C-352.822 311.773 -343.283 264.217 -324.765 219.937C-315.798 198.573 -304.799 178.132 -291.921 158.897C-279.093 139.82 -264.481 122.021 -248.286 105.742C-215.173 72.3374 -175.826 45.8453 -132.506 27.7873C-89.1856 9.72929 -42.746 0.461328 4.14493 0.515934C51.9083 0.45273 99.1933 10.0865 143.169 28.8405C185.558 46.9496 224.09 73.0892 256.669 105.836C272.85 122.116 287.446 139.915 300.258 158.992C313.134 178.227 324.133 198.668 333.102 220.031C351.62 264.311 361.159 311.867 361.159 359.907C361.159 407.947 351.62 455.503 333.102 499.783C324.133 521.146 313.134 541.588 300.258 560.823C287.446 579.899 272.85 597.699 256.669 613.978C224.09 646.725 185.558 672.865 143.169 690.974C99.1799 709.663 51.8954 719.233 4.14493 719.11Z" fill="#F6F7F8"/>
    <path d="M4.14367 350.187C2.28768 350.187 0.473373 350.74 -1.06982 351.778C-2.61302 352.815 -3.81579 354.29 -4.52605 356.015C-5.23631 357.74 -5.42214 359.639 -5.06006 361.47C-4.69797 363.302 -3.80423 364.984 -2.49185 366.304C-1.17947 367.625 0.492607 368.524 2.31293 368.888C4.13326 369.253 6.02007 369.066 7.73478 368.351C9.44949 367.636 10.9151 366.426 11.9462 364.874C12.9773 363.321 13.5277 361.495 13.5277 359.628C13.5277 357.124 12.539 354.723 10.7792 352.952C9.01933 351.181 6.63247 350.187 4.14367 350.187ZM4.14367 379.314C0.311054 379.314 -3.43549 378.17 -6.62219 376.028C-9.80889 373.886 -12.2926 370.841 -13.7593 367.278C-15.226 363.715 -15.6097 359.795 -14.862 356.013C-14.1143 352.231 -12.2687 348.757 -9.55867 346.031C-6.84861 343.304 -3.39577 341.447 0.363201 340.695C4.12217 339.943 8.01845 340.329 11.5593 341.804C15.1002 343.28 18.1266 345.779 20.2559 348.985C22.3852 352.191 23.5217 355.961 23.5217 359.817C23.5093 364.984 21.4637 369.936 17.8323 373.589C14.2009 377.243 9.27923 379.301 4.14367 379.314Z" fill="#B8C1CC"/>
    <path d="M4.14457 328.325C-0.0614929 328.338 -4.22336 329.189 -8.1016 330.827C-9.94099 331.634 -11.7005 332.614 -13.3567 333.754C-16.6544 335.982 -19.5039 338.817 -21.7554 342.109C-25.2982 347.29 -27.195 353.43 -27.195 359.718C-27.195 366.006 -25.2982 372.146 -21.7554 377.326C-19.5131 380.653 -16.663 383.52 -13.3567 385.776C-11.7005 386.916 -9.94099 387.896 -8.1016 388.703C-4.22045 390.326 -0.0584602 391.161 4.14457 391.158C8.33292 391.166 12.4805 390.331 16.3438 388.703C18.2032 387.907 19.9792 386.926 21.6458 385.776C24.9521 383.52 27.8023 380.653 30.0445 377.326C31.1801 375.67 32.1395 373.897 32.9066 372.039C34.5481 368.141 35.394 363.951 35.394 359.718C35.394 355.485 34.5481 351.294 32.9066 347.397C32.1395 345.538 31.1801 343.766 30.0445 342.109C27.8023 338.783 24.9521 335.915 21.6458 333.659C19.9792 332.509 18.2032 331.529 16.3438 330.732C12.4769 329.122 8.32961 328.303 4.14457 328.325ZM4.14457 318.883C9.56204 318.862 14.9267 319.955 19.9097 322.093C22.3121 323.101 24.6072 324.351 26.7601 325.823C31.0567 328.714 34.7537 332.417 37.6456 336.728C39.1057 338.903 40.3623 341.211 41.3992 343.62C43.5409 348.68 44.6422 354.124 44.6367 359.623C44.6575 365.074 43.5718 370.472 41.4461 375.485C40.4443 377.902 39.2024 380.211 37.7394 382.377C34.9193 386.718 31.3239 390.496 27.1355 393.518C24.9729 394.988 22.6796 396.252 20.2851 397.295C15.256 399.45 9.84533 400.558 4.37917 400.552C-1.0383 400.573 -6.40296 399.481 -11.386 397.342C-13.7884 396.334 -16.0835 395.085 -18.2364 393.613C-20.4747 392.173 -22.5651 390.512 -24.4767 388.656C-26.225 386.828 -27.7961 384.836 -29.1688 382.708C-30.6289 380.532 -31.8855 378.225 -32.9224 375.816C-35.0641 370.756 -36.1654 365.312 -36.1599 359.812C-36.1807 354.361 -35.095 348.964 -32.9693 343.95C-31.9675 341.533 -30.7256 339.224 -29.2626 337.058C-27.8776 334.924 -26.3075 332.918 -24.5706 331.063C-22.7377 329.232 -20.7432 327.573 -18.6117 326.106C-16.4491 324.637 -14.1559 323.373 -11.7614 322.329C-6.73226 320.174 -1.32158 319.066 4.14457 319.072V318.883Z" fill="#D5DDE5"/>
    <path d="M4.1453 306.516C-2.96278 306.5 -10.0007 307.93 -16.5465 310.717C-19.684 311.984 -22.6864 313.565 -25.5082 315.438C-28.3203 317.335 -30.9303 319.518 -33.297 321.953C-35.7174 324.334 -37.8872 326.96 -39.772 329.789C-41.6241 332.634 -43.1956 335.654 -44.464 338.806C-47.2204 345.396 -48.6403 352.474 -48.6403 359.624C-48.6403 366.775 -47.2204 373.853 -44.464 380.443C-43.1956 383.595 -41.6241 386.615 -39.772 389.46C-37.8633 392.271 -35.6954 394.895 -33.297 397.296C-30.9181 399.718 -28.3094 401.9 -25.5082 403.811C-22.6864 405.684 -19.684 407.265 -16.5465 408.532C-9.99624 411.305 -2.96128 412.733 4.1453 412.733C11.2519 412.733 18.2868 411.305 24.8371 408.532C27.97 407.255 30.9715 405.674 33.7988 403.811C39.3048 399.987 44.0742 395.188 47.8749 389.649C49.727 386.804 51.2985 383.784 52.5669 380.632C55.3233 374.042 56.7432 366.963 56.7432 359.813C56.7432 352.663 55.3233 345.585 52.5669 338.995C49.9104 332.686 46.0531 326.961 41.2122 322.142C38.8253 319.729 36.2175 317.547 33.4235 315.627C30.5962 313.764 27.5947 312.183 24.4617 310.906C18.0456 308.103 11.1397 306.611 4.1453 306.516ZM4.1453 297.83C12.3712 297.769 20.525 299.375 28.1215 302.551C35.4108 305.655 42.0377 310.143 47.6403 315.769C50.4201 318.58 52.9333 321.646 55.1475 324.927C57.3925 328.223 59.3098 331.733 60.8718 335.407C64.0367 343.097 65.6324 351.349 65.5638 359.672C65.6237 367.948 64.028 376.152 60.8718 383.795C59.3541 387.523 57.4843 391.095 55.2883 394.464C53.088 397.74 50.5735 400.792 47.7811 403.575C45.003 406.371 41.9713 408.9 38.7255 411.128C35.4434 413.377 31.9555 415.305 28.3092 416.887C20.6646 420.067 12.464 421.672 4.19222 421.608C-4.03449 421.677 -12.1901 420.072 -19.784 416.887C-23.4442 415.322 -26.9477 413.409 -30.2472 411.175C-33.5267 408.919 -36.5757 406.342 -39.3497 403.48C-42.1422 400.698 -44.6566 397.646 -46.8569 394.369C-49.1151 391.14 -51.0484 387.693 -52.6281 384.078C-55.7882 376.387 -57.3836 368.136 -57.3201 359.813C-57.389 351.536 -55.793 343.331 -52.6281 335.69C-49.5425 328.356 -45.0821 321.689 -39.4905 316.052C-36.7183 313.231 -33.6685 310.7 -30.3879 308.499C-27.0633 306.211 -23.5092 304.281 -19.784 302.739C-12.2124 299.515 -4.07658 297.846 4.1453 297.83Z" fill="#D5DDE5"/>
    <path d="M4.14549 284.659C-5.86591 284.649 -15.7764 286.672 -24.9919 290.607C-29.4201 292.5 -33.6616 294.808 -37.6604 297.5C-45.5923 302.897 -52.4247 309.771 -57.7891 317.752C-60.4645 321.775 -62.7581 326.043 -64.6395 330.498C-69.4949 342.02 -71.4114 354.581 -70.2151 367.038C-69.0187 379.496 -64.7474 391.455 -57.7891 401.829C-55.1192 405.814 -52.0707 409.53 -48.6866 412.922C-45.3065 416.403 -41.6156 419.563 -37.6604 422.364C-33.6616 425.056 -29.4201 427.363 -24.9919 429.256C-13.5396 434.141 -1.05547 436.07 11.326 434.866C23.7074 433.662 35.5936 429.365 45.9044 422.364C49.8838 419.576 53.5914 416.415 56.9776 412.922C60.3507 409.503 63.3982 405.773 66.0801 401.781C73.0304 391.404 77.297 379.445 78.4932 366.99C79.6894 354.534 77.7774 341.975 72.9305 330.451C71.0491 325.995 68.7555 321.728 66.0801 317.705C63.3858 313.737 60.3392 310.024 56.9776 306.611C53.5887 303.22 49.8802 300.169 45.9044 297.5C33.5692 289.125 19.0265 284.653 4.14549 284.659ZM4.14549 276.587C15.2685 276.535 26.285 278.768 36.5204 283.149C41.4562 285.215 46.1722 287.777 50.5965 290.796C59.3786 296.753 66.9442 304.349 72.8835 313.173C75.8897 317.629 78.4515 322.373 80.5315 327.335C84.8769 337.621 87.1112 348.685 87.1004 359.861C87.1265 370.989 84.9077 382.006 80.5784 392.245C78.506 397.202 75.9604 401.945 72.9774 406.408C66.9758 415.198 59.3833 422.773 50.5965 428.737C46.1713 431.794 41.4563 434.403 36.5204 436.526C26.3079 440.878 15.3302 443.121 4.23933 443.121C-6.85151 443.121 -17.8292 440.878 -28.0417 436.526C-32.9776 434.46 -37.6935 431.898 -42.1178 428.879C-46.5068 425.906 -50.6071 422.524 -54.364 418.776C-58.0787 414.991 -61.4544 410.884 -64.4518 406.502C-67.4251 402.034 -69.9702 397.292 -72.0529 392.34C-76.3721 382.071 -78.5977 371.035 -78.5977 359.885C-78.5977 348.735 -76.3721 337.698 -72.0529 327.429C-69.9993 322.463 -67.4527 317.719 -64.4518 313.267C-61.4858 308.86 -58.1248 304.736 -54.4109 300.946C-50.649 297.208 -46.5668 293.812 -42.2116 290.796C-37.7707 287.805 -33.0575 285.244 -28.1356 283.149C-17.9234 278.799 -6.944 276.567 4.14549 276.587Z" fill="#B8C1CC"/>
    <path d="M4.1461 262.804C-8.74935 262.792 -21.5151 265.393 -33.39 270.451C-39.1113 272.896 -44.5802 275.901 -49.7183 279.421C-65.1569 289.929 -77.2729 304.675 -84.6269 321.907C-89.6312 333.862 -92.2092 346.702 -92.2092 359.674C-92.2092 372.645 -89.6312 385.485 -84.6269 397.44C-82.1864 403.191 -79.201 408.692 -75.712 413.868C-68.8185 424.202 -59.9893 433.085 -49.7183 440.021C-44.5689 443.522 -39.1017 446.525 -33.39 448.99C-21.5085 454.025 -8.74629 456.619 4.1461 456.619C17.0385 456.619 29.8007 454.025 41.6822 448.99C47.3896 446.516 52.8559 443.513 58.0105 440.021C68.2815 433.085 77.1107 424.202 84.0042 413.868C87.4757 408.682 90.4601 403.182 92.9191 397.44C97.9234 385.485 100.501 372.645 100.501 359.674C100.501 346.702 97.9234 333.862 92.9191 321.907C90.4691 316.161 87.4842 310.66 84.0042 305.479C77.1107 295.145 68.2815 286.262 58.0105 279.326C52.8666 275.816 47.3986 272.812 41.6822 270.357C29.8007 265.33 17.0351 262.762 4.1461 262.804ZM4.1461 255.345C18.025 255.314 31.7667 258.108 44.5444 263.559C50.7097 266.135 56.6171 269.297 62.1864 273C67.6916 276.731 72.8293 280.983 77.5293 285.699C82.2177 290.439 86.4587 295.607 90.1977 301.136C93.862 306.733 97.0035 312.659 99.5817 318.839C105.015 331.742 107.807 345.614 107.793 359.626C107.824 373.59 105.047 387.416 99.6286 400.272C97.068 406.475 93.9258 412.419 90.2446 418.022C82.7689 429.206 73.2084 438.825 62.0925 446.347C56.5297 450.033 50.6395 453.194 44.4974 455.788C28.5922 462.598 11.2477 465.302 -5.96004 463.653C-23.1678 462.004 -39.6932 456.055 -54.0349 446.347C-59.5293 442.601 -64.6657 438.35 -69.3778 433.648C-78.8265 424.168 -86.3768 412.949 -91.618 400.603C-97.0211 387.716 -99.8047 373.872 -99.8047 359.886C-99.8047 345.9 -97.0211 332.056 -91.618 319.169C-89.0861 312.953 -85.9424 307.006 -82.2339 301.419C-70.9927 284.667 -55.1684 271.549 -36.6745 263.653C-23.7735 258.111 -9.88166 255.283 4.1461 255.345Z" fill="#E7ECF2"/>
    <path d="M4.1441 240.994C-11.6737 240.996 -27.3287 244.207 -41.8846 250.436C-48.9313 253.383 -55.6732 257.02 -62.0133 261.294C-74.5686 269.835 -85.3828 280.715 -93.8721 293.348C-98.1467 299.693 -101.793 306.444 -104.758 313.505C-110.89 328.165 -114.049 343.91 -114.049 359.816C-114.049 375.721 -110.89 391.466 -104.758 406.126C-101.783 413.183 -98.1371 419.933 -93.8721 426.284C-85.3828 438.916 -74.5686 449.797 -62.0133 458.338C-55.7069 462.639 -48.9965 466.307 -41.9784 469.29C-27.4225 475.519 -11.7675 478.73 4.05025 478.732C19.8676 478.726 35.5219 475.515 50.0789 469.29C57.0921 466.297 63.8015 462.629 70.1138 458.338C82.7535 449.82 93.6488 438.938 102.207 426.284C106.472 419.933 110.118 413.183 113.093 406.126C119.225 391.466 122.384 375.721 122.384 359.816C122.384 343.91 119.225 328.165 113.093 313.505C110.128 306.444 106.482 299.693 102.207 293.348C93.7179 280.715 82.9037 269.835 70.3484 261.294C64.0361 257.003 57.3267 253.335 50.3135 250.341C35.7062 244.13 20.0024 240.951 4.1441 240.994ZM4.1441 234.102C20.8464 234.069 37.3822 237.441 52.7534 244.016C60.2175 247.151 67.3532 251.025 74.0551 255.582C80.6808 260.085 86.8703 265.206 92.5417 270.877C98.1794 276.594 103.284 282.82 107.791 289.477C121.741 310.249 129.193 334.746 129.186 359.816C129.219 376.62 125.867 393.257 119.333 408.723C116.211 416.2 112.361 423.348 107.838 430.061C103.362 436.727 98.2719 442.954 92.6355 448.661C86.923 454.337 80.7033 459.473 74.0551 464.003C67.3825 468.526 60.2968 472.398 52.8941 475.569C37.4839 482.126 20.9225 485.504 4.19102 485.504C-12.5405 485.504 -29.1019 482.126 -44.5121 475.569C-51.9242 472.418 -59.0117 468.544 -65.6731 464.003C-72.3076 459.512 -78.4981 454.39 -84.1597 448.708C-89.8575 443.024 -95.0102 436.812 -99.5495 430.155C-104.061 423.443 -107.926 416.314 -111.092 408.865C-117.626 393.35 -120.977 376.666 -120.945 359.816C-120.966 343.002 -117.631 326.355 -111.139 310.862C-107.958 303.41 -104.077 296.281 -99.5495 289.571C-95.0853 282.896 -89.9946 276.667 -84.3474 270.971C-78.683 265.297 -72.5103 260.161 -65.9077 255.629C-59.2205 251.09 -52.1192 247.201 -44.6998 244.016C-29.2501 237.429 -12.6353 234.057 4.1441 234.102Z" fill="#F6F7F8"/>
    <path d="M4.14494 219.374C-14.5662 219.338 -33.0929 223.095 -50.3294 230.421C-58.6107 233.862 -66.5584 238.065 -74.071 242.978C-88.8258 253.087 -101.559 265.899 -111.607 280.744C-116.636 288.286 -120.955 296.283 -124.51 304.631C-131.75 321.986 -135.478 340.618 -135.478 359.439C-135.478 378.26 -131.75 396.892 -124.51 414.247C-120.955 422.595 -116.636 430.592 -111.607 438.134C-106.57 445.578 -100.852 452.532 -94.5282 458.905C-81.8242 471.758 -66.7461 481.99 -50.1417 489.024C-33.0001 496.491 -14.5343 500.394 4.14494 500.495C32.0018 500.521 59.228 492.152 82.314 476.467C89.7367 471.411 96.6651 465.658 103.006 459.283C109.33 452.91 115.048 445.956 120.085 438.512C125.116 430.979 129.421 422.981 132.941 414.625C140.219 397.28 143.969 378.644 143.969 359.817C143.969 340.99 140.219 322.353 132.941 305.009C129.421 296.653 125.116 288.654 120.085 281.122C110.051 266.265 97.3149 253.451 82.5486 243.355C75.0744 238.287 67.1409 233.94 58.8539 230.373C41.5398 223.038 22.9314 219.297 4.14494 219.374ZM4.14494 213.096C23.6662 213.059 42.9933 216.993 60.9653 224.661C69.6641 228.34 77.9784 232.878 85.7861 238.21C93.5259 243.475 100.753 249.465 107.369 256.102C113.969 262.768 119.938 270.038 125.199 277.817C130.47 285.673 134.98 294.02 138.665 302.743C146.298 320.873 150.223 340.363 150.207 360.053C150.233 379.708 146.324 399.167 138.712 417.268C135.026 425.991 130.517 434.338 125.246 442.194C120.013 449.981 114.059 457.252 107.463 463.909C100.837 470.549 93.6116 476.555 85.8799 481.848C78.0719 487.152 69.7759 491.689 61.106 495.397C43.0767 503.018 23.7005 506.888 4.14494 506.774C-15.3588 506.787 -34.6661 502.854 -52.6285 495.208C-61.2983 491.5 -69.5943 486.963 -77.4023 481.659C-100.86 465.745 -119.228 443.329 -130.281 417.127C-137.92 399 -141.831 379.505 -141.777 359.817C-141.803 340.162 -137.893 320.703 -130.281 302.601C-126.614 293.869 -122.104 285.52 -116.815 277.675C-106.333 262.047 -92.9699 248.586 -77.4492 238.021C-69.6263 232.715 -61.3145 228.178 -52.6285 224.472C-34.674 216.795 -15.3636 212.845 4.14494 212.859V213.096Z" fill="#D5DDE5"/>
    <path d="M4.14555 197.283C-28.0435 197.236 -59.5064 206.906 -86.1758 225.041C-103.343 236.774 -118.149 251.671 -129.812 268.944C-135.643 277.628 -140.624 286.861 -144.685 296.513C-153.078 316.55 -157.402 338.074 -157.402 359.818C-157.402 381.562 -153.078 403.086 -144.685 423.124C-140.624 432.775 -135.643 442.008 -129.812 450.693C-123.999 459.314 -117.385 467.36 -110.058 474.721C-102.753 482.091 -94.7544 488.731 -86.1758 494.549C-77.5451 500.431 -68.3685 505.458 -58.7744 509.561C-38.8666 518.029 -17.4684 522.38 4.14555 522.354C25.759 522.375 47.1562 518.024 67.0655 509.561C76.6596 505.458 85.8362 500.431 94.4669 494.549C111.647 482.865 126.443 467.978 138.056 450.693C156.123 423.873 165.781 392.218 165.781 359.818C165.781 327.418 156.123 295.763 138.056 268.944C132.274 260.312 125.674 252.265 118.349 244.915C111.032 237.544 103.036 230.889 94.4669 225.041C67.7975 206.906 36.3347 197.236 4.14555 197.283ZM4.14555 191.618C26.5474 191.567 48.7292 196.063 69.3646 204.836C79.2215 209.094 88.6489 214.294 97.5167 220.367C115.315 232.436 130.64 247.839 142.654 265.734C148.69 274.656 153.859 284.141 158.091 294.058C166.814 314.802 171.282 337.105 171.228 359.629C171.282 382.123 166.814 404.395 158.091 425.106C153.893 435.031 148.739 444.518 142.701 453.431C136.726 462.365 129.907 470.697 122.337 478.309C106.873 494.031 88.4666 506.515 68.1802 515.039C47.8939 523.563 26.1299 527.958 4.14555 527.972C-29.1605 528.018 -61.716 518.021 -89.3194 499.27C-98.1652 493.321 -106.429 486.539 -113.999 479.017C-121.584 471.406 -128.419 463.074 -134.41 454.139C-140.445 445.217 -145.615 435.732 -149.846 425.814C-158.584 405.073 -163.069 382.77 -163.031 360.243C-163.062 337.752 -158.594 315.484 -149.893 294.766C-145.663 284.774 -140.494 275.21 -134.457 266.206C-128.47 257.295 -121.651 248.981 -114.093 241.374C-106.528 233.744 -98.2472 226.866 -89.3663 220.839C-80.4985 214.767 -71.0712 209.565 -61.2142 205.308C-40.5715 196.346 -18.3369 191.689 4.14555 191.618Z" fill="#EEF2F6"/>
    <path d="M4.14536 175.419C-20.3743 175.374 -44.6495 180.32 -67.2202 189.958C-99.945 203.869 -127.938 227.063 -147.782 256.71C-154.395 266.575 -160.052 277.056 -164.673 288.009C-174.21 310.731 -179.123 335.146 -179.123 359.811C-179.123 384.477 -174.21 408.892 -164.673 431.614C-160.052 442.567 -154.395 453.048 -147.782 462.913C-141.228 472.696 -133.749 481.818 -125.448 490.151C-108.748 506.971 -88.9765 520.387 -67.2202 529.664C-44.6466 539.288 -20.3712 544.218 4.14536 544.157C28.6614 544.213 52.9357 539.283 75.511 529.664C97.2612 520.402 117.02 506.983 133.692 490.151C142.008 481.819 149.503 472.697 156.073 462.913C162.686 453.048 168.342 442.567 172.964 431.614C182.472 408.884 187.37 384.472 187.37 359.811C187.37 335.151 182.472 310.738 172.964 288.009C163.743 266.119 150.409 246.227 133.692 229.424C117.001 212.627 97.2466 199.227 75.511 189.958C52.9387 180.325 28.6645 175.379 4.14536 175.419ZM4.14536 170.415C41.6558 170.328 78.3248 181.595 109.387 202.752C129.407 216.363 146.655 233.701 160.202 253.83C167.007 263.957 172.821 274.724 177.562 285.979C187.334 309.336 192.367 334.422 192.367 359.764C192.367 385.106 187.334 410.192 177.562 433.55C172.812 444.8 166.999 455.566 160.202 465.698C153.459 475.744 145.776 485.118 137.258 493.692C128.733 502.291 119.399 510.038 109.387 516.824C99.3335 523.69 88.6307 529.54 77.4347 534.291C54.257 544.192 29.3258 549.267 4.14536 549.208C-21.0299 549.262 -45.9572 544.205 -69.144 534.338C-80.3317 529.57 -91.0328 523.72 -101.097 516.871C-111.088 510.075 -120.419 502.346 -128.967 493.787C-137.486 485.196 -145.169 475.807 -151.911 465.745C-158.735 455.63 -164.55 444.862 -169.272 433.597C-179.087 410.256 -184.099 385.155 -184.005 359.811C-184.058 334.482 -179.031 309.402 -169.225 286.073C-164.503 274.809 -158.688 264.04 -151.864 253.925C-145.11 243.872 -137.428 234.484 -128.92 225.883C-120.389 217.324 -111.073 209.595 -101.097 202.799C-91.0312 195.952 -80.3304 190.103 -69.144 185.332C-45.9632 175.44 -21.034 170.366 4.14536 170.415Z" fill="#D5DDE5"/>
    <path d="M4.14531 153.61C-23.2551 153.549 -50.3855 159.057 -75.619 169.802C-87.7978 174.961 -99.4562 181.284 -110.434 188.685C-121.301 196.095 -131.449 204.52 -140.744 213.847C-150.014 223.199 -158.387 233.409 -165.753 244.343C-173.108 255.388 -179.393 267.117 -184.521 279.371C-195.131 304.78 -200.596 332.063 -200.596 359.624C-200.596 387.184 -195.131 414.467 -184.521 439.876C-179.402 452.119 -173.117 463.834 -165.753 474.857C-158.4 485.815 -150.026 496.042 -140.744 505.401C-131.481 514.856 -121.348 523.408 -110.481 530.94C-99.5031 538.341 -87.8447 544.664 -75.6659 549.823C-50.4256 560.546 -23.2998 566.053 4.0984 566.015C44.9419 566.176 84.8862 553.953 118.724 530.94C140.573 516.132 159.373 497.218 174.09 475.235C193.105 446.763 204.776 413.976 208.053 379.832C211.329 345.688 206.108 311.26 192.858 279.654C187.731 267.401 181.446 255.671 174.09 244.626C166.747 233.645 158.389 223.387 149.129 213.988C139.827 204.65 129.662 196.224 118.771 188.827C107.815 181.417 96.1718 175.093 84.0034 169.944C58.7495 159.142 31.5865 153.586 4.14531 153.61ZM4.14531 149.172C32.139 149.12 59.8567 154.739 85.6457 165.695C98.0898 171.023 109.999 177.536 121.211 185.144C132.328 192.687 142.698 201.286 152.178 210.825C161.646 220.376 170.192 230.809 177.703 241.982C185.285 253.251 191.759 265.235 197.034 277.766C207.904 303.729 213.503 331.617 213.503 359.789C213.503 387.961 207.904 415.849 197.034 441.812C191.774 454.34 185.315 466.324 177.75 477.595C170.239 488.769 161.693 499.201 152.225 508.752C142.732 518.278 132.364 526.876 121.258 534.433C110.052 542.052 98.1416 548.565 85.6926 553.883C59.897 564.876 32.1596 570.512 4.14531 570.453C-37.6521 570.545 -78.515 558.014 -113.155 534.481C-124.261 526.924 -134.629 518.325 -144.122 508.8C-153.603 499.261 -162.151 488.827 -169.647 477.643C-177.139 466.367 -183.519 454.382 -188.697 441.859C-199.623 415.906 -205.225 387.998 -205.166 359.812C-205.203 331.644 -199.602 303.757 -188.697 277.813C-183.401 265.293 -176.928 253.31 -169.365 242.029C-154.375 219.694 -135.261 200.463 -113.061 185.38C-101.872 177.735 -89.9586 171.22 -77.4958 165.931C-51.6876 154.85 -23.9145 149.149 4.14531 149.172Z" fill="#B8C1CC"/>
    <path d="M4.14522 131.754C-26.174 131.696 -56.1927 137.797 -84.1116 149.693C-97.5774 155.435 -110.462 162.471 -122.586 170.7C-159.025 195.444 -187.547 230.29 -204.696 271.016C-216.465 299.123 -222.528 329.314 -222.528 359.814C-222.528 390.313 -216.465 420.504 -204.696 448.611C-193.3 475.688 -176.811 500.294 -156.134 521.075C-145.846 531.399 -134.614 540.724 -122.586 548.927C-110.462 557.157 -97.5774 564.192 -84.1116 569.935C-56.1927 581.83 -26.174 587.932 4.14522 587.874C34.4644 587.932 64.4832 581.83 92.4021 569.935C105.868 564.192 118.752 557.157 130.877 548.927C142.904 540.724 154.137 531.399 164.425 521.075C174.686 510.724 183.954 499.423 192.107 487.321C200.287 475.123 207.279 462.159 212.987 448.611C224.756 420.504 230.818 390.313 230.818 359.814C230.818 329.314 224.756 299.123 212.987 271.016C207.279 257.468 200.287 244.505 192.107 232.306C183.954 220.205 174.686 208.904 164.425 198.553C154.149 188.215 142.915 178.889 130.877 170.7C118.752 162.471 105.868 155.435 92.4021 149.693C64.4832 137.797 34.4644 131.696 4.14522 131.754ZM4.14522 127.93C34.9629 127.871 65.4756 134.068 93.8566 146.152C107.561 151.944 120.668 159.075 132.988 167.443C157.539 184.084 178.664 205.339 195.204 230.04C203.554 242.432 210.673 255.619 216.459 269.411C228.51 297.972 234.687 328.692 234.617 359.719C234.68 390.726 228.52 421.427 216.506 449.98C210.72 463.773 203.601 476.96 195.251 489.351C178.711 514.052 157.586 535.307 133.035 551.949C120.723 560.382 107.616 567.576 93.9035 573.428C65.5171 585.553 34.9838 591.768 4.14522 591.697C-26.6444 591.733 -57.1249 585.519 -85.4723 573.428C-99.1808 567.607 -112.288 560.444 -124.604 552.043C-136.851 543.725 -148.275 534.24 -158.715 523.718C-169.157 513.201 -178.584 501.709 -186.867 489.399C-195.181 476.986 -202.298 463.802 -208.122 450.027C-220.075 421.447 -226.232 390.751 -226.232 359.743C-226.232 328.735 -220.075 298.039 -208.122 269.458C-202.336 255.666 -195.216 242.479 -186.867 230.087C-178.6 217.764 -169.172 206.272 -158.715 195.767C-137.698 174.645 -112.83 157.799 -85.4723 146.152C-57.12 134.082 -26.6407 127.885 4.14522 127.93Z" fill="#EEF2F6"/>
    <path d="M4.14508 109.899C-29.0855 109.858 -61.9804 116.587 -92.5574 129.679C-107.355 135.936 -121.5 143.652 -134.786 152.716C-147.98 161.667 -160.283 171.879 -171.524 183.212C-182.788 194.522 -192.939 206.901 -201.834 220.176C-210.84 233.552 -218.525 247.782 -224.778 262.663C-237.662 293.462 -244.299 326.541 -244.299 359.957C-244.299 393.374 -237.662 426.453 -224.778 457.252C-218.515 472.128 -210.831 486.357 -201.834 499.739C-192.939 513.014 -182.788 525.393 -171.524 536.703C-148.889 559.493 -122.091 577.671 -92.6043 590.236C-61.9862 603.216 -29.0798 609.847 4.14508 609.733C53.6438 609.782 102.021 594.901 143.029 567.01C156.223 558.06 168.527 547.847 179.767 536.514C191.047 525.206 201.214 512.828 210.125 499.55C219.106 486.167 226.774 471.938 233.022 457.064C245.939 426.273 252.594 393.19 252.594 359.769C252.594 326.347 245.939 293.265 233.022 262.474C226.784 247.594 219.116 233.364 210.125 219.987C201.229 206.712 191.078 194.333 179.814 183.023C168.573 171.691 156.27 161.478 143.076 152.527C129.785 143.473 115.641 135.757 100.848 129.49C70.2571 116.463 37.3628 109.798 4.14508 109.899ZM4.14508 106.689C37.8285 106.612 71.1814 113.371 102.208 126.563C132.004 139.336 159.083 157.75 181.973 180.805C193.377 192.271 203.668 204.806 212.705 218.24C221.788 231.793 229.55 246.194 235.884 261.246C249.019 292.425 255.754 325.953 255.684 359.816C255.742 393.658 249.024 427.165 235.931 458.338C229.581 473.391 221.803 487.793 212.705 501.344C203.655 514.768 193.365 527.302 181.973 538.78C170.566 550.243 158.108 560.596 144.765 569.701C131.355 578.828 117.104 586.638 102.208 593.021C71.1908 606.249 37.8338 613.026 4.14508 612.943C-29.4915 613.006 -62.7956 606.247 -93.7773 593.069C-108.748 586.604 -123.063 578.7 -136.522 569.465C-149.871 560.386 -162.329 550.048 -173.729 538.591C-185.123 527.114 -195.413 514.58 -204.462 501.155C-213.545 487.603 -221.307 473.201 -227.641 458.149C-240.776 426.971 -247.511 393.443 -247.441 359.58C-247.504 325.737 -240.785 292.229 -227.687 261.058C-221.263 245.995 -213.406 231.593 -204.227 218.051C-195.218 204.61 -184.942 192.073 -173.542 180.616C-162.145 169.141 -149.686 158.787 -136.334 149.695C-122.864 140.557 -108.55 132.747 -93.5896 126.374C-62.6573 113.271 -29.417 106.576 4.14508 106.689Z" fill="#D5DDE5"/>
    <path d="M4.14557 88.0894C-31.973 88.0185 -67.7351 95.2757 -101.003 109.427C-117.065 116.24 -132.433 124.603 -146.89 134.4C-175.604 153.974 -200.35 178.871 -219.804 207.761C-229.574 222.303 -237.918 237.765 -244.719 253.93C-258.718 287.422 -265.929 323.389 -265.929 359.722C-265.929 396.055 -258.718 432.022 -244.719 465.514C-237.918 481.678 -229.574 497.14 -219.804 511.683C-200.35 540.573 -175.604 565.47 -146.89 585.044C-132.426 594.855 -117.059 603.25 -101.003 610.111C-67.7417 624.295 -31.9795 631.584 4.14557 631.543C40.2642 631.614 76.0262 624.357 109.294 610.205C125.34 603.354 140.692 594.959 155.135 585.138C169.484 575.44 182.871 564.374 195.111 552.093C207.305 539.785 218.303 526.332 227.955 511.919C237.707 497.366 246.05 481.905 252.869 465.75C266.868 432.258 274.079 396.291 274.079 359.958C274.079 323.625 266.868 287.658 252.869 254.166C246.05 238.01 237.707 222.55 227.955 207.997C218.303 193.584 207.305 180.131 195.111 167.823C182.871 155.542 169.484 144.476 155.135 134.778C140.703 124.939 125.35 116.543 109.294 109.711C76.0463 95.4618 40.2835 88.1081 4.14557 88.0894ZM4.14557 85.4458C40.6061 85.3757 76.7053 92.7136 110.279 107.02C126.505 113.902 142.016 122.378 156.589 132.323C171.08 142.145 184.594 153.354 196.941 165.793C209.305 178.227 220.46 191.822 230.254 206.392C240.111 221.07 248.534 236.674 255.403 252.985C273.108 295.028 280.082 340.858 275.69 386.305C271.297 431.751 255.678 475.371 230.254 513.194C200.679 557.308 159.019 591.844 110.326 612.613C76.7357 626.919 40.6212 634.257 4.14557 634.187C-50.1877 634.27 -103.294 617.939 -148.298 587.31C-177.333 567.585 -202.34 542.441 -221.963 513.241C-231.811 498.557 -240.233 482.953 -247.112 466.647C-261.264 432.839 -268.555 396.524 -268.555 359.84C-268.555 323.155 -261.264 286.841 -247.112 253.033C-240.271 236.708 -231.847 221.101 -221.963 206.439C-212.2 191.859 -201.06 178.263 -188.696 165.84C-176.338 153.4 -162.826 142.176 -148.345 132.323C-103.328 101.684 -50.2037 85.3534 4.14557 85.4458Z" fill="#F6F7F8"/>
    <path d="M4.14474 66.2341C-34.8794 66.1459 -73.5182 73.9981 -109.449 89.3186C-126.792 96.7081 -143.386 105.767 -158.997 116.368C-174.492 126.914 -188.961 138.911 -202.21 152.199C-215.422 165.559 -227.346 180.148 -237.823 195.772C-248.35 211.484 -257.353 228.178 -264.708 245.623C-279.85 281.8 -287.65 320.658 -287.65 359.912C-287.65 399.167 -279.85 438.025 -264.708 474.202C-257.353 491.647 -248.35 508.341 -237.823 524.053C-227.341 539.629 -215.417 554.171 -202.21 567.484C-188.974 580.801 -174.504 592.815 -158.997 603.362C-143.386 613.964 -126.792 623.022 -109.449 630.412C-73.505 645.679 -34.8708 653.498 4.14474 653.402C43.1667 653.468 81.8012 645.617 117.738 630.317C169.815 608.04 214.392 571.108 246.112 523.959C256.629 508.306 265.632 491.676 272.997 474.296C288.139 438.119 295.94 399.261 295.94 360.007C295.94 320.753 288.139 281.895 272.997 245.717C265.648 228.24 256.645 211.514 246.112 195.772C235.629 180.169 223.688 165.611 210.453 152.294C197.22 139.006 182.767 127.009 167.286 116.463C151.669 105.871 135.077 96.8126 117.738 89.413C81.8145 74.0601 43.1753 66.1757 4.14474 66.2341ZM4.14474 64.2042C62.6785 64.1079 119.891 81.7057 168.365 114.716C183.951 125.326 198.499 137.403 211.813 150.783C238.621 177.724 260.002 209.623 274.78 244.726C290.119 281.13 297.987 320.278 297.912 359.818C297.98 399.338 290.129 438.465 274.827 474.863C267.396 492.445 258.299 509.266 247.66 525.092C237.14 540.736 225.168 555.341 211.907 568.712C198.6 582.132 184.034 594.226 168.412 604.825C119.922 637.802 62.7199 655.396 4.19168 655.338C-35.0878 655.411 -73.9783 647.512 -110.153 632.111C-127.626 624.65 -144.344 615.512 -160.076 604.825C-175.686 594.191 -190.264 582.1 -203.618 568.712C-216.928 555.309 -228.932 540.655 -239.465 524.95C-250.082 509.144 -259.149 492.338 -266.538 474.769C-281.876 438.364 -289.745 399.217 -289.669 359.676C-289.765 300.784 -272.274 243.221 -239.465 194.45C-228.908 178.763 -216.906 164.111 -203.618 150.688C-190.303 137.309 -175.755 125.232 -160.17 114.622C-144.438 103.949 -127.719 94.8269 -110.247 87.383C-74.0574 71.9828 -35.1483 64.0987 4.14474 64.2042Z" fill="#E7ECF2"/>
    <path d="M4.14377 44.3698C-37.7621 44.3037 -79.2517 52.7327 -117.849 69.1538C-136.485 77.1077 -154.319 86.8458 -171.103 98.2337C-204.38 120.885 -233.046 149.727 -255.559 183.207C-266.878 200.094 -276.557 218.037 -284.462 236.788C-300.706 275.645 -309.074 317.374 -309.074 359.528C-309.074 401.681 -300.706 443.411 -284.462 482.267C-276.557 501.018 -266.878 518.961 -255.559 535.848C-244.398 552.696 -231.673 568.439 -217.554 582.867C-203.33 597.139 -187.793 610.022 -171.15 621.341C-154.378 632.761 -136.542 642.516 -117.896 650.468C-79.2986 666.889 -37.809 675.318 4.09689 675.252C46.0027 675.318 87.4923 666.889 126.089 650.468C144.736 642.516 162.571 632.761 179.344 621.341C196.019 610.026 211.588 597.144 225.842 582.867C240.027 568.556 252.831 552.923 264.082 536.178C275.435 519.313 285.116 501.367 292.984 482.598C309.259 443.749 317.644 402.017 317.644 359.858C317.644 317.7 309.259 275.967 292.984 237.118C285.116 218.35 275.435 200.403 264.082 183.538C241.585 150.043 212.916 121.198 179.625 98.5642C162.841 87.1763 145.008 77.4382 126.371 69.4843C87.7245 52.9188 46.1512 44.3765 4.14377 44.3698ZM4.14377 42.9536C46.2466 42.8782 87.9313 51.3561 126.699 67.8792C145.437 75.833 163.353 85.6206 180.188 97.1007C196.929 108.457 212.547 121.404 226.827 135.764C241.075 150.137 253.941 165.833 265.255 182.641C276.638 199.596 286.364 217.618 294.298 236.457C310.649 275.493 319.073 317.426 319.073 359.787C319.073 402.148 310.649 444.081 294.298 483.117C286.393 501.97 276.665 519.996 265.255 536.934C253.968 553.777 241.1 569.49 226.827 583.858C212.541 598.193 196.941 611.138 180.235 622.521C163.378 633.964 145.466 643.75 126.746 651.743C87.9602 668.261 46.2613 676.738 4.14377 676.668C-58.6169 676.759 -119.96 657.896 -171.948 622.521C-188.664 611.153 -204.265 598.206 -218.539 583.858C-232.787 569.484 -245.653 553.789 -256.967 536.981C-268.358 520.031 -278.085 502.007 -286.011 483.164C-302.36 444.12 -310.783 402.179 -310.783 359.811C-310.783 317.443 -302.36 275.502 -286.011 236.457C-278.085 217.614 -268.358 199.591 -256.967 182.641C-245.668 165.822 -232.8 150.125 -218.539 135.764C-204.253 121.429 -188.653 108.484 -171.948 97.1007C-155.062 85.6221 -137.1 75.8348 -118.318 67.8792C-79.5771 51.3747 -37.9269 42.8973 4.14377 42.9536Z" fill="#EEF2F6"/>
    <path d="M4.14441 22.5142C-40.6829 22.4233 -85.0661 31.4474 -126.341 49.0449C-206.654 83.3025 -270.588 147.628 -304.637 228.434C-322.04 269.988 -331.005 314.625 -331.005 359.718C-331.005 404.811 -322.04 449.448 -304.637 491.002C-270.588 571.808 -206.654 636.134 -126.341 670.391C-85.0697 688.016 -40.6904 697.088 4.14441 697.063C70.868 697.177 136.088 677.13 191.356 639.517C227.063 615.283 257.807 584.368 281.912 548.454C294.029 530.397 304.384 511.205 312.832 491.144C330.204 449.582 339.153 404.948 339.153 359.86C339.153 314.772 330.204 270.138 312.832 228.575C295.968 188.521 271.577 152.119 240.997 121.367C225.795 106.067 209.172 92.2669 191.356 80.1547C173.431 67.9537 154.37 57.5348 134.442 49.0449C93.222 31.4835 48.9073 22.4604 4.14441 22.5142ZM4.14441 21.7117C49.1136 21.6135 93.6393 30.6535 135.052 48.2896C155.043 56.8109 174.166 67.2611 192.154 79.4938C227.939 103.792 258.747 134.788 282.897 170.793C295.045 188.88 305.432 208.104 313.911 228.198C331.403 269.84 340.371 314.604 340.281 359.812C340.375 405.006 331.407 449.755 313.911 491.38C305.442 511.493 295.055 530.734 282.897 548.832C258.747 584.837 227.939 615.833 192.154 640.131C174.162 652.356 155.039 662.806 135.052 671.335C93.6333 688.946 49.1095 697.97 4.14441 697.866C-40.7891 697.957 -85.2798 688.934 -126.669 671.335C-146.64 662.803 -165.747 652.354 -183.724 640.131C-219.51 615.833 -250.317 584.837 -274.468 548.832C-286.616 530.744 -297.002 511.521 -305.482 491.427C-322.916 449.765 -331.896 405.017 -331.896 359.812C-331.896 314.608 -322.916 269.86 -305.482 228.198C-288.584 188.046 -264.127 151.561 -233.459 120.753C-218.224 105.439 -201.57 91.623 -183.724 79.4938C-165.747 67.2711 -146.64 56.8213 -126.669 48.2896C-85.2827 30.6758 -40.7922 21.6366 4.14441 21.7117Z" fill="#E7ECF2"/>
    <path d="M4.14493 0.704733C-43.5885 0.637388 -90.8436 10.2716 -134.786 29.0293C-156.018 38.0233 -176.322 49.0914 -195.407 62.0746C-233.443 87.8917 -266.206 120.807 -291.921 159.039C-304.825 178.24 -315.826 198.669 -324.765 220.031C-347.909 275.058 -357.028 335.03 -351.292 394.502C-345.556 453.974 -325.149 511.063 -291.921 560.587C-266.238 598.826 -233.507 631.758 -195.5 657.598C-176.416 670.581 -156.112 681.65 -134.88 690.644C-90.9375 709.401 -43.6823 719.035 4.05109 718.968C51.7845 719.035 99.0397 709.401 142.982 690.644C164.209 681.639 184.513 670.572 203.603 657.598C241.609 631.758 274.341 598.826 300.024 560.587C333.176 511.03 353.538 453.947 359.272 394.49C365.007 335.033 355.932 275.076 332.868 220.031C323.928 198.669 312.928 178.24 300.024 159.039C274.341 120.799 241.609 87.8678 203.603 62.0274C184.513 49.0538 164.209 37.9862 142.982 28.9821C99.0654 10.253 51.8435 0.63517 4.14493 0.704733ZM4.14493 719.11C-43.6188 719.177 -90.9046 709.543 -134.88 690.785C-156.113 681.761 -176.429 670.695 -195.547 657.74C-233.521 631.875 -266.232 598.947 -291.921 560.728C-304.799 541.494 -315.798 521.053 -324.765 499.689C-343.283 455.409 -352.822 407.853 -352.822 359.813C-352.822 311.773 -343.283 264.217 -324.765 219.937C-315.798 198.573 -304.799 178.132 -291.921 158.897C-279.093 139.82 -264.481 122.021 -248.286 105.742C-215.173 72.3374 -175.826 45.8453 -132.506 27.7873C-89.1856 9.72929 -42.746 0.461328 4.14493 0.515934C51.9083 0.45273 99.1933 10.0865 143.169 28.8405C185.558 46.9496 224.09 73.0892 256.669 105.836C272.85 122.116 287.446 139.915 300.258 158.992C313.134 178.227 324.133 198.668 333.102 220.031C351.62 264.311 361.159 311.867 361.159 359.907C361.159 407.947 351.62 455.503 333.102 499.783C324.133 521.146 313.134 541.588 300.258 560.823C287.446 579.899 272.85 597.699 256.669 613.978C224.09 646.725 185.558 672.865 143.169 690.974C99.1799 709.663 51.8954 719.233 4.14493 719.11Z" fill="#B8C1CC"/>
</svg>

               