<svg xmlns="http://www.w3.org/2000/svg" viewBox=" 0 0 25 24" fill="none"><path fill="#2f3034" d="M13.101 3c1.013.003 1.526.008 1.97.02l.175.007c.201.007.4.016.64.027.958.045 1.611.196 2.185.418a4.387 4.387 0 0 1 1.594 1.038c.458.45.812.994 1.038 1.595.222.573.374 1.226.419 2.185.01.24.02.438.027.64l.005.175c.014.443.019.957.02 1.97l.002.67v1.18a71.02 71.02 0 0 1-.021 1.969l-.006.174c-.007.203-.016.402-.027.641-.044.959-.198 1.611-.419 2.185a4.41 4.41 0 0 1-1.038 1.595c-.45.458-.993.812-1.594 1.038-.574.222-1.227.373-2.185.418l-.64.027-.175.005c-.444.013-.957.02-1.97.021L12.43 21h-1.178a70.313 70.313 0 0 1-1.97-.02l-.175-.006a57.075 57.075 0 0 1-.64-.028c-.958-.045-1.612-.196-2.186-.418a4.41 4.41 0 0 1-1.593-1.038 4.41 4.41 0 0 1-1.039-1.595c-.222-.573-.374-1.226-.419-2.185l-.027-.64-.004-.175a71.1 71.1 0 0 1-.023-1.97v-1.85c-.002-.656.005-1.312.02-1.969l.007-.174c.007-.203.016-.402.027-.641.045-.959.196-1.611.418-2.185a4.41 4.41 0 0 1 1.04-1.595 4.41 4.41 0 0 1 1.593-1.038c.574-.222 1.227-.373 2.185-.418.24-.01.44-.02.641-.027l.175-.005A71.099 71.099 0 0 1 11.25 3L13.1 3Zm-.925 4.5a4.5 4.5 0 1 0 0 9 4.5 4.5 0 0 0 0-9Zm0 1.8a2.7 2.7 0 1 1 0 5.398 2.7 2.7 0 0 1 0-5.398m4.726-3.15a1.125 1.125 0 1 0 0 2.25 1.125 1.125 0 0 0 0-2.25Z"/></svg>