<svg width="105" height="107" viewBox="0 0 105 107" fill="none"
    xmlns="http://www.w3.org/2000/svg">
    <g opacity="0.5">
        <path d="M16.331 19.5477C16.331 18.1154 16.331 16.667 16.331 15.2186L15.8991 15.6531V19.5477C15.8991 33.3555 16.0111 46.407 2.38326 55.5479C1.61549 56.0629 0.78376 56.5618 0 57.0285C0 57.1894 0 57.3503 0 57.5113C0.879731 56.9963 1.74346 56.4652 2.5912 55.902C16.475 46.6323 16.411 33.4682 16.331 19.5477Z" fill="white"/>
        <path d="M102.784 38.6172C96.6473 43.3312 92.2462 49.9675 90.2757 57.4783C88.0844 64.9294 88.1164 72.6702 88.1484 80.1534C88.25 84.3353 88.1379 88.5197 87.8125 92.69C89.2997 91.3221 90.7095 89.8715 92.0352 88.3448C92.1312 85.609 92.0352 82.8732 92.0352 80.1374C92.0352 72.9438 92.0352 65.4926 93.9866 58.6048C95.5845 52.4608 98.9911 46.9465 103.76 42.7853C103.552 41.3852 103.2 40.0012 102.784 38.6172Z" fill="white"/>
        <path d="M23.9285 25.594C23.7556 19.9354 24.0552 14.2722 24.8242 8.66406L23.9445 9.24341C23.2528 14.6695 22.9907 20.1423 23.1607 25.6101C23.1607 39.3697 23.2726 52.3568 9.72479 61.4494C7.08785 63.198 4.28581 64.6804 1.35938 65.875L1.55131 66.6475C4.56051 65.4218 7.44281 63.9018 10.1567 62.1092C24.0404 52.7752 23.9924 39.5789 23.9285 25.594Z" fill="white"/>
        <path d="M95.3792 84.1144C97.0694 81.686 98.5619 79.1243 99.8419 76.4541C99.9826 72.496 100.589 68.5687 101.649 64.7544C102.42 62.0498 103.493 59.4421 104.848 56.9814C105.024 54.5116 105.024 52.0323 104.848 49.5625C101.454 53.6417 98.9672 58.4047 97.5546 63.5313C95.8409 70.2498 95.108 77.1835 95.3792 84.1144Z" fill="white"/>
        <path d="M32.4379 9.39148C30.3105 16.6334 30.3425 24.2776 30.3745 31.6643C30.3745 45.3756 30.4865 58.3306 17.0186 67.3749C12.9215 70.0466 8.4749 72.1319 3.80664 73.5707C3.9506 73.9248 4.07854 74.2788 4.23849 74.6329C8.97975 73.1633 13.4959 71.0403 17.6584 68.3244C31.6221 58.9421 31.5741 45.6975 31.5101 31.6643C31.5101 24.358 31.5102 16.7943 33.5255 9.71334C34.1522 7.56355 34.9547 5.46966 35.9248 3.45312L34.4213 4.00028C33.6366 5.74887 32.9739 7.55029 32.4379 9.39148Z" fill="white"/>
        <path d="M7.14942 33.2904C7.88978 30.4618 8.35581 27.5676 8.54098 24.6484L8.46098 24.7611C8.26882 27.6371 7.80284 30.4879 7.06941 33.2743C6.24922 36.4138 4.88472 39.3829 3.03866 42.0451C2.30444 43.093 1.49167 44.0829 0.607422 45.0062C0.616503 45.0486 0.616503 45.0925 0.607422 45.1349C1.51323 44.1792 2.34726 43.1572 3.10266 42.0773C4.95343 39.4098 6.32324 36.4355 7.14942 33.2904Z" fill="white"/>
        <path d="M89.3003 16.0078C80.0391 19.9989 72.4254 26.404 68.5066 39.4394C66.3473 46.81 66.3793 54.5186 66.4113 61.9697C66.4113 75.4235 66.5233 88.1532 53.4553 96.9239C48.3305 100.202 42.7132 102.626 36.8203 104.101C38.6225 104.659 40.4541 105.116 42.3066 105.469C46.824 104.007 51.1273 101.945 55.1027 99.3379C69.4983 89.682 69.4984 75.6005 69.3544 61.9536C69.3544 54.7117 69.3544 47.2123 71.3378 40.2601C74.9527 27.9489 82.3904 22.0105 91.4437 18.2769C90.7719 17.5045 90.052 16.7481 89.3003 16.0078Z" fill="white"/>
        <path d="M61.2288 1.52344C54.8308 5.5789 49.7923 11.5816 46.8332 21.4145C44.6899 28.7047 44.7219 36.3811 44.7539 43.8C44.7539 57.4147 44.8658 70.2731 31.5579 79.2048C25.5074 83.037 18.8304 85.7612 11.8359 87.2513C12.2678 87.7824 12.7156 88.3135 13.1635 88.8606C20.0489 87.3249 26.6184 84.6026 32.5816 80.8141C46.7053 71.3353 46.6573 57.9941 46.5933 43.8C46.5933 36.5259 46.5933 28.9943 48.6087 21.9456C49.6771 17.7464 51.5914 13.8128 54.2327 10.3885C56.8741 6.96413 60.1863 4.12208 63.964 2.03843C63.0523 1.8614 62.1406 1.68437 61.2288 1.52344Z" fill="white"/>
        <path d="M47.4251 1.03829C43.7737 5.15746 41.1186 10.0705 39.6674 15.3933C37.5401 22.6674 37.5721 30.3277 37.6041 37.7305C37.6041 51.3935 37.716 64.3002 24.3281 73.2802C19.0804 76.6455 13.3207 79.1244 7.27734 80.6186C7.54926 81.0531 7.8052 81.5037 8.09311 81.9382C14.1414 80.3876 19.8998 77.8604 25.1439 74.455C39.2036 65.0244 39.1396 51.7315 39.0756 37.6661C39.0756 30.3599 39.0756 22.8283 41.091 15.7635C42.6079 10.0955 45.5878 4.93207 49.7284 0.796875C48.9606 0.909527 48.1928 0.957821 47.4251 1.03829Z" fill="white"/>
        <path d="M72.9529 4.98438C64.5555 8.99155 57.6935 15.3322 54.1266 27.4181C51.9833 34.7405 52.0153 42.433 52.0473 49.8519C52.0473 63.4184 52.1592 76.2285 38.9313 85.1119C32.4875 89.1349 25.3717 91.9485 17.9297 93.4159L18.1856 93.6573C18.8094 94.1883 19.4172 94.6873 20.0411 95.1861C27.1868 93.6484 34.0085 90.8595 40.1949 86.9465C54.3986 77.4033 54.3345 63.4023 54.2865 49.9324C54.2865 42.6583 54.2865 35.1428 56.2859 28.1262C57.5653 23.1982 59.9922 18.6473 63.366 14.8498C66.7398 11.0524 70.9635 8.11755 75.688 6.28791C74.7603 5.77293 73.9126 5.37061 72.9529 4.98438Z" fill="white"/>
        <path d="M82.118 10.0781C72.8408 14.0531 65.1952 20.426 61.3243 33.4775C59.165 40.8159 59.197 48.5245 59.229 56.0078C59.229 69.526 59.3409 82.2878 46.1929 91.1068C39.9324 95.0388 33.0186 97.8027 25.7832 99.266C26.8709 99.9098 27.9745 100.521 29.0942 101.085C35.657 99.5375 41.9135 96.8878 47.6005 93.2472C61.9001 83.5913 61.8361 69.5904 61.7722 55.9917C61.7722 48.7337 61.7722 41.2344 63.7715 34.25C67.4824 21.6169 75.1921 15.6463 84.5652 11.9127C83.7654 11.1885 82.9497 10.6092 82.118 10.0781Z" fill="white"/>
        <path d="M95.0112 22.6797C90.3224 24.7888 86.1638 27.9296 82.8419 31.8707C79.52 35.8118 77.1194 40.4527 75.8171 45.4514C73.6418 52.8542 73.6737 60.5628 73.7057 67.9817C73.7057 81.4034 73.8177 94.0686 60.9096 102.791C58.8505 104.162 56.6841 105.362 54.4316 106.38C57.2912 106.27 60.1371 105.925 62.9411 105.35C77.1447 95.694 77.0967 81.5804 77.0487 67.9656C77.0487 60.7398 77.0487 53.2566 79.0161 46.3204C80.2215 41.6885 82.4639 37.3953 85.5716 33.7692C88.6794 30.1432 92.5703 27.2802 96.9467 25.3994C96.3069 24.5626 95.667 23.5809 95.0112 22.6797Z" fill="white"/>
        <path d="M99.5049 30.0859C95.4746 32.348 91.9414 35.4078 89.1182 39.0808C86.295 42.7539 84.2402 46.9641 83.0779 51.4576C80.9025 58.8926 80.9345 66.6173 80.9665 74.1005C80.9665 83.7564 81.0465 93.1226 76.168 100.815C78.1535 99.8163 80.0718 98.6873 81.9103 97.4355C84.6934 90.1293 84.6614 82.0345 84.6294 74.0845C84.6294 66.8587 84.6294 59.4076 86.5968 52.4875C89.4599 42.8317 94.5944 37.1186 100.992 33.3529C100.481 32.2424 100.001 31.1642 99.5049 30.0859Z" fill="white"/>
        <path d="M16.331 19.5477C16.331 18.1154 16.331 16.667 16.331 15.2186L15.8991 15.6531V19.5477C15.8991 33.3555 16.0111 46.407 2.38326 55.5479C1.61549 56.0629 0.78376 56.5618 0 57.0285C0 57.1894 0 57.3503 0 57.5113C0.879731 56.9963 1.74346 56.4652 2.5912 55.902C16.475 46.6323 16.411 33.4682 16.331 19.5477Z" fill="#E7ECF2"/>
        <path d="M102.784 38.6172C96.6473 43.3312 92.2462 49.9675 90.2757 57.4783C88.0844 64.9294 88.1164 72.6702 88.1484 80.1534C88.25 84.3353 88.1379 88.5197 87.8125 92.69C89.2997 91.3221 90.7095 89.8715 92.0352 88.3448C92.1312 85.609 92.0352 82.8732 92.0352 80.1374C92.0352 72.9438 92.0352 65.4926 93.9866 58.6048C95.5845 52.4608 98.9911 46.9465 103.76 42.7853C103.552 41.3852 103.2 40.0012 102.784 38.6172Z" fill="#66737F"/>
        <path d="M23.9285 25.594C23.7556 19.9354 24.0552 14.2722 24.8242 8.66406L23.9445 9.24341C23.2528 14.6695 22.9907 20.1423 23.1607 25.6101C23.1607 39.3697 23.2726 52.3568 9.72479 61.4494C7.08785 63.198 4.28581 64.6804 1.35938 65.875L1.55131 66.6475C4.56051 65.4218 7.44281 63.9018 10.1567 62.1092C24.0404 52.7752 23.9924 39.5789 23.9285 25.594Z" fill="#D5DDE5"/>
        <path d="M95.3792 84.1144C97.0694 81.686 98.5619 79.1243 99.8419 76.4541C99.9826 72.496 100.589 68.5687 101.649 64.7544C102.42 62.0498 103.493 59.4421 104.848 56.9814C105.024 54.5116 105.024 52.0323 104.848 49.5625C101.454 53.6417 98.9672 58.4047 97.5546 63.5313C95.8409 70.2498 95.108 77.1835 95.3792 84.1144Z" fill="#36414C"/>
        <path d="M32.4379 9.39148C30.3105 16.6334 30.3425 24.2776 30.3745 31.6643C30.3745 45.3756 30.4865 58.3306 17.0186 67.3749C12.9215 70.0466 8.4749 72.1319 3.80664 73.5707C3.9506 73.9248 4.07854 74.2788 4.23849 74.6329C8.97975 73.1633 13.4959 71.0403 17.6584 68.3244C31.6221 58.9421 31.5741 45.6975 31.5101 31.6643C31.5101 24.358 31.5102 16.7943 33.5255 9.71334C34.1522 7.56355 34.9547 5.46966 35.9248 3.45312L34.4213 4.00028C33.6366 5.74887 32.9739 7.55029 32.4379 9.39148Z" fill="#D5DDE5"/>
        <path d="M7.14942 33.2904C7.88978 30.4618 8.35581 27.5676 8.54098 24.6484L8.46098 24.7611C8.26882 27.6371 7.80284 30.4879 7.06941 33.2743C6.24922 36.4138 4.88472 39.3829 3.03866 42.0451C2.30444 43.093 1.49167 44.0829 0.607422 45.0062C0.616503 45.0486 0.616503 45.0925 0.607422 45.1349C1.51323 44.1792 2.34726 43.1572 3.10266 42.0773C4.95343 39.4098 6.32324 36.4355 7.14942 33.2904Z" fill="#F6F7F8"/>
        <path d="M89.3003 16.0078C80.0391 19.9989 72.4254 26.404 68.5066 39.4394C66.3473 46.81 66.3793 54.5186 66.4113 61.9697C66.4113 75.4235 66.5233 88.1532 53.4553 96.9239C48.3305 100.202 42.7132 102.626 36.8203 104.101C38.6225 104.659 40.4541 105.116 42.3066 105.469C46.824 104.007 51.1273 101.945 55.1027 99.3379C69.4983 89.682 69.4984 75.6005 69.3544 61.9536C69.3544 54.7117 69.3544 47.2123 71.3378 40.2601C74.9527 27.9489 82.3904 22.0105 91.4437 18.2769C90.7719 17.5045 90.052 16.7481 89.3003 16.0078Z" fill="#8F9CA9"/>
        <path d="M61.2288 1.52344C54.8308 5.5789 49.7923 11.5816 46.8332 21.4145C44.6899 28.7047 44.7219 36.3811 44.7539 43.8C44.7539 57.4147 44.8658 70.2731 31.5579 79.2048C25.5074 83.037 18.8304 85.7612 11.8359 87.2513C12.2678 87.7824 12.7156 88.3135 13.1635 88.8606C20.0489 87.3249 26.6184 84.6026 32.5816 80.8141C46.7053 71.3353 46.6573 57.9941 46.5933 43.8C46.5933 36.5259 46.5933 28.9943 48.6087 21.9456C49.6771 17.7464 51.5914 13.8128 54.2327 10.3885C56.8741 6.96413 60.1863 4.12208 63.964 2.03843C63.0523 1.8614 62.1406 1.68437 61.2288 1.52344Z" fill="#ADB9C7"/>
        <path d="M47.4251 1.03829C43.7737 5.15746 41.1186 10.0705 39.6674 15.3933C37.5401 22.6674 37.5721 30.3277 37.6041 37.7305C37.6041 51.3935 37.716 64.3002 24.3281 73.2802C19.0804 76.6455 13.3207 79.1244 7.27734 80.6186C7.54926 81.0531 7.8052 81.5037 8.09311 81.9382C14.1414 80.3876 19.8998 77.8604 25.1439 74.455C39.2036 65.0244 39.1396 51.7315 39.0756 37.6661C39.0756 30.3599 39.0756 22.8283 41.091 15.7635C42.6079 10.0955 45.5878 4.93207 49.7284 0.796875C48.9606 0.909527 48.1928 0.957821 47.4251 1.03829Z" fill="#B8C1CC"/>
        <path d="M72.9529 4.98438C64.5555 8.99155 57.6935 15.3322 54.1266 27.4181C51.9833 34.7405 52.0153 42.433 52.0473 49.8519C52.0473 63.4184 52.1592 76.2285 38.9313 85.1119C32.4875 89.1349 25.3717 91.9485 17.9297 93.4159L18.1856 93.6573C18.8094 94.1883 19.4172 94.6873 20.0411 95.1861C27.1868 93.6484 34.0085 90.8595 40.1949 86.9465C54.3986 77.4033 54.3345 63.4023 54.2865 49.9324C54.2865 42.6583 54.2865 35.1428 56.2859 28.1262C57.5653 23.1982 59.9922 18.6473 63.366 14.8498C66.7398 11.0524 70.9635 8.11755 75.688 6.28791C74.7603 5.77293 73.9126 5.37061 72.9529 4.98438Z" fill="#ADB9C7"/>
        <path d="M82.118 10.0781C72.8408 14.0531 65.1952 20.426 61.3243 33.4775C59.165 40.8159 59.197 48.5245 59.229 56.0078C59.229 69.526 59.3409 82.2878 46.1929 91.1068C39.9324 95.0388 33.0186 97.8027 25.7832 99.266C26.8709 99.9098 27.9745 100.521 29.0942 101.085C35.657 99.5375 41.9135 96.8878 47.6005 93.2472C61.9001 83.5913 61.8361 69.5904 61.7722 55.9917C61.7722 48.7337 61.7722 41.2344 63.7715 34.25C67.4824 21.6169 75.1921 15.6463 84.5652 11.9127C83.7654 11.1885 82.9497 10.6092 82.118 10.0781Z" fill="#ADB9C7"/>
        <path d="M95.0112 22.6797C90.3224 24.7888 86.1638 27.9296 82.8419 31.8707C79.52 35.8118 77.1194 40.4527 75.8171 45.4514C73.6418 52.8542 73.6737 60.5628 73.7057 67.9817C73.7057 81.4034 73.8177 94.0686 60.9096 102.791C58.8505 104.162 56.6841 105.362 54.4316 106.38C57.2912 106.27 60.1371 105.925 62.9411 105.35C77.1447 95.694 77.0967 81.5804 77.0487 67.9656C77.0487 60.7398 77.0487 53.2566 79.0161 46.3204C80.2215 41.6885 82.4639 37.3953 85.5716 33.7692C88.6794 30.1432 92.5703 27.2802 96.9467 25.3994C96.3069 24.5626 95.667 23.5809 95.0112 22.6797Z" fill="#66737F"/>
        <path d="M99.5049 30.0859C95.4746 32.348 91.9414 35.4078 89.1182 39.0808C86.295 42.7539 84.2402 46.9641 83.0779 51.4576C80.9025 58.8926 80.9345 66.6173 80.9665 74.1005C80.9665 83.7564 81.0465 93.1226 76.168 100.815C78.1535 99.8163 80.0718 98.6873 81.9103 97.4355C84.6934 90.1293 84.6614 82.0345 84.6294 74.0845C84.6294 66.8587 84.6294 59.4076 86.5968 52.4875C89.4599 42.8317 94.5944 37.1186 100.992 33.3529C100.481 32.2424 100.001 31.1642 99.5049 30.0859Z" fill="#66737F"/>
    </g>
</svg>