<svg width="235" height="475" viewBox="0 0 235 475" fill="none"
    xmlns="http://www.w3.org/2000/svg">
    <path d="M236.088 231.207C234.866 231.207 233.672 231.571 232.656 232.254C231.64 232.937 230.848 233.908 230.38 235.044C229.912 236.18 229.79 237.43 230.029 238.635C230.267 239.841 230.855 240.949 231.719 241.818C232.583 242.687 233.684 243.279 234.883 243.519C236.081 243.759 237.323 243.636 238.452 243.165C239.581 242.695 240.546 241.898 241.225 240.876C241.904 239.854 242.266 238.652 242.266 237.423C242.266 235.774 241.615 234.193 240.457 233.027C239.298 231.861 237.727 231.207 236.088 231.207ZM236.088 250.383C233.565 250.383 231.098 249.63 229 248.22C226.902 246.809 225.267 244.805 224.301 242.459C223.336 240.114 223.083 237.533 223.575 235.043C224.067 232.553 225.283 230.266 227.067 228.47C228.851 226.675 231.124 225.453 233.599 224.958C236.074 224.462 238.639 224.716 240.97 225.688C243.301 226.66 245.294 228.305 246.696 230.416C248.098 232.527 248.846 235.008 248.846 237.547C248.838 240.949 247.491 244.209 245.1 246.614C242.709 249.02 239.469 250.375 236.088 250.383Z" fill="#F6F7F8"/>
    <path d="M236.088 216.81C233.319 216.819 230.579 217.379 228.026 218.457C226.815 218.988 225.656 219.634 224.566 220.384C222.395 221.851 220.519 223.718 219.036 225.885C216.704 229.296 215.455 233.338 215.455 237.478C215.455 241.618 216.704 245.661 219.036 249.071C220.513 251.261 222.389 253.149 224.566 254.634C225.656 255.385 226.815 256.03 228.026 256.561C230.581 257.63 233.321 258.179 236.088 258.178C238.846 258.182 241.576 257.633 244.12 256.561C245.344 256.037 246.513 255.391 247.61 254.634C249.787 253.149 251.664 251.261 253.14 249.071C253.887 247.98 254.519 246.814 255.024 245.59C256.105 243.024 256.662 240.265 256.662 237.478C256.662 234.691 256.105 231.932 255.024 229.366C254.519 228.143 253.887 226.976 253.14 225.885C251.664 223.695 249.787 221.807 247.61 220.322C246.513 219.565 245.344 218.919 244.12 218.395C241.574 217.335 238.843 216.796 236.088 216.81ZM236.088 210.594C239.655 210.58 243.187 211.299 246.467 212.707C248.049 213.371 249.56 214.194 250.977 215.163C253.806 217.066 256.24 219.504 258.144 222.342C259.105 223.775 259.933 225.294 260.615 226.88C262.025 230.211 262.75 233.795 262.747 237.416C262.761 241.005 262.046 244.558 260.646 247.859C259.987 249.45 259.169 250.971 258.206 252.397C256.349 255.255 253.982 257.742 251.225 259.732C249.801 260.699 248.291 261.531 246.715 262.218C243.404 263.637 239.841 264.366 236.243 264.362C232.676 264.376 229.144 263.657 225.863 262.249C224.282 261.585 222.771 260.763 221.353 259.794C219.88 258.846 218.503 257.752 217.245 256.53C216.094 255.326 215.059 254.015 214.156 252.614C213.194 251.182 212.367 249.663 211.684 248.077C210.274 244.745 209.549 241.161 209.553 237.54C209.539 233.952 210.254 230.398 211.654 227.098C212.313 225.506 213.131 223.986 214.094 222.56C215.006 221.155 216.039 219.834 217.183 218.613C218.39 217.407 219.703 216.315 221.106 215.349C222.53 214.382 224.04 213.55 225.616 212.863C228.927 211.444 232.489 210.715 236.088 210.718V210.594Z" fill="#F6F7F8"/>
    <path d="M236.087 202.454C231.408 202.444 226.774 203.385 222.465 205.22C220.399 206.054 218.422 207.095 216.564 208.328C214.713 209.577 212.995 211.014 211.437 212.617C209.843 214.185 208.415 215.914 207.174 217.777C205.954 219.649 204.92 221.638 204.085 223.713C202.27 228.052 201.335 232.712 201.335 237.419C201.335 242.127 202.27 246.787 204.085 251.125C204.92 253.201 205.954 255.189 207.174 257.062C208.43 258.913 209.858 260.64 211.437 262.221C213.003 263.816 214.72 265.252 216.564 266.51C218.422 267.743 220.399 268.784 222.465 269.618C226.777 271.444 231.409 272.384 236.087 272.384C240.766 272.384 245.398 271.444 249.71 269.618C251.773 268.778 253.749 267.737 255.61 266.51C259.235 263.993 262.375 260.833 264.878 257.186C266.097 255.313 267.132 253.325 267.967 251.25C269.781 246.911 270.716 242.251 270.716 237.544C270.716 232.836 269.781 228.176 267.967 223.837C266.218 219.684 263.678 215.914 260.491 212.742C258.92 211.153 257.203 209.717 255.363 208.453C253.502 207.226 251.526 206.185 249.463 205.345C245.239 203.499 240.692 202.516 236.087 202.454ZM236.087 196.735C241.503 196.696 246.871 197.753 251.873 199.843C256.672 201.887 261.035 204.842 264.723 208.546C266.553 210.397 268.208 212.415 269.666 214.575C271.144 216.745 272.406 219.056 273.434 221.475C275.518 226.538 276.569 231.971 276.523 237.45C276.563 242.899 275.512 248.3 273.434 253.332C272.435 255.786 271.204 258.139 269.758 260.356C268.31 262.513 266.654 264.523 264.816 266.355C262.987 268.195 260.991 269.86 258.854 271.327C256.693 272.808 254.397 274.078 251.996 275.119C246.963 277.212 241.564 278.269 236.118 278.227C230.702 278.273 225.333 277.216 220.333 275.119C217.923 274.089 215.617 272.829 213.445 271.359C211.285 269.873 209.278 268.176 207.452 266.293C205.613 264.46 203.958 262.451 202.509 260.294C201.022 258.168 199.75 255.898 198.71 253.519C196.629 248.455 195.579 243.023 195.621 237.544C195.575 232.094 196.626 226.692 198.71 221.662C200.741 216.833 203.678 212.444 207.359 208.732C209.184 206.875 211.192 205.209 213.352 203.76C215.541 202.253 217.881 200.983 220.333 199.968C225.318 197.845 230.674 196.746 236.087 196.735Z" fill="#F6F7F8"/>
    <path d="M236.089 188.065C229.498 188.058 222.973 189.39 216.906 191.981C213.99 193.228 211.198 194.747 208.565 196.519C203.343 200.072 198.845 204.598 195.313 209.852C193.552 212.501 192.042 215.311 190.803 218.244C187.606 225.83 186.344 234.1 187.132 242.301C187.92 250.502 190.732 258.376 195.313 265.206C197.071 267.83 199.078 270.276 201.306 272.51C203.531 274.801 205.961 276.882 208.565 278.726C211.198 280.498 213.99 282.017 216.906 283.263C224.445 286.479 232.665 287.749 240.816 286.957C248.968 286.164 256.793 283.335 263.582 278.726C266.201 276.89 268.642 274.809 270.872 272.51C273.093 270.258 275.099 267.803 276.865 265.175C281.44 258.343 284.249 250.469 285.037 242.269C285.825 234.069 284.566 225.8 281.375 218.213C280.136 215.28 278.626 212.47 276.865 209.821C275.091 207.209 273.085 204.765 270.872 202.518C268.641 200.285 266.199 198.276 263.582 196.519C255.46 191.005 245.886 188.061 236.089 188.065ZM236.089 182.751C243.412 182.716 250.665 184.186 257.403 187.071C260.653 188.431 263.758 190.118 266.671 192.106C272.453 196.028 277.433 201.029 281.344 206.838C283.323 209.771 285.01 212.894 286.379 216.162C289.24 222.934 290.711 230.217 290.704 237.576C290.721 244.902 289.26 252.155 286.41 258.897C285.045 262.16 283.369 265.283 281.406 268.221C277.454 274.008 272.456 278.995 266.671 282.921C263.757 284.934 260.653 286.652 257.403 288.05C250.68 290.915 243.452 292.392 236.151 292.392C228.849 292.392 221.621 290.915 214.898 288.05C211.648 286.689 208.543 285.002 205.63 283.015C202.741 281.058 200.041 278.831 197.568 276.364C195.122 273.872 192.9 271.168 190.926 268.283C188.969 265.341 187.293 262.219 185.922 258.959C183.079 252.198 181.613 244.932 181.613 237.591C181.613 230.25 183.079 222.984 185.922 216.224C187.274 212.954 188.951 209.83 190.926 206.9C192.879 203.998 195.092 201.283 197.537 198.788C200.014 196.327 202.701 194.091 205.569 192.106C208.492 190.136 211.595 188.45 214.836 187.071C221.559 184.207 228.788 182.738 236.089 182.751Z" fill="#F6F7F8"/>
    <path d="M236.088 173.677C227.598 173.669 219.194 175.381 211.376 178.712C207.609 180.322 204.008 182.3 200.626 184.617C190.461 191.535 182.485 201.244 177.643 212.589C174.348 220.459 172.651 228.913 172.651 237.453C172.651 245.993 174.348 254.447 177.643 262.317C179.25 266.104 181.215 269.726 183.512 273.133C188.051 279.937 193.864 285.785 200.626 290.351C204.016 292.656 207.615 294.634 211.376 296.256C219.198 299.571 227.6 301.279 236.088 301.279C244.576 301.279 252.979 299.571 260.801 296.256C264.559 294.628 268.157 292.651 271.551 290.351C278.313 285.785 284.126 279.937 288.664 273.133C290.95 269.719 292.915 266.098 294.534 262.317C297.828 254.447 299.526 245.993 299.526 237.453C299.526 228.913 297.828 220.459 294.534 212.589C292.921 208.806 290.956 205.184 288.664 201.773C284.126 194.97 278.313 189.121 271.551 184.555C268.164 182.244 264.564 180.266 260.801 178.65C252.979 175.341 244.574 173.649 236.088 173.677ZM236.088 168.766C245.226 168.746 254.273 170.585 262.685 174.174C266.744 175.87 270.634 177.952 274.3 180.39C277.925 182.846 281.307 185.646 284.402 188.751C287.488 191.871 290.28 195.274 292.742 198.914C295.155 202.599 297.223 206.5 298.92 210.569C302.497 219.064 304.336 228.196 304.326 237.422C304.346 246.615 302.518 255.718 298.951 264.182C297.265 268.266 295.196 272.179 292.773 275.868C287.851 283.231 281.557 289.564 274.238 294.516C270.576 296.943 266.698 299.024 262.654 300.732C252.183 305.215 240.764 306.995 229.435 305.91C218.106 304.824 207.226 300.908 197.784 294.516C194.166 292.05 190.785 289.251 187.682 286.155C181.462 279.914 176.491 272.528 173.04 264.399C169.483 255.916 167.65 246.801 167.65 237.593C167.65 228.385 169.483 219.27 173.04 210.786C174.707 206.694 176.777 202.779 179.218 199.1C186.619 188.071 197.038 179.435 209.213 174.236C217.707 170.587 226.853 168.726 236.088 168.766Z" fill="#F6F7F8"/>
    <path d="M236.087 159.319C225.673 159.32 215.367 161.434 205.784 165.535C201.144 167.476 196.706 169.87 192.531 172.684C184.265 178.307 177.146 185.47 171.557 193.787C168.742 197.964 166.342 202.409 164.39 207.058C160.353 216.71 158.273 227.076 158.273 237.548C158.273 248.019 160.353 258.385 164.39 268.037C166.349 272.683 168.749 277.127 171.557 281.308C177.146 289.625 184.265 296.788 192.531 302.412C196.683 305.243 201.101 307.658 205.722 309.622C215.305 313.723 225.612 315.837 236.026 315.838C246.439 315.835 256.746 313.721 266.329 309.622C270.947 307.651 275.364 305.237 279.52 302.412C287.841 296.804 295.014 289.639 300.649 281.308C303.457 277.127 305.857 272.683 307.816 268.037C311.853 258.385 313.933 248.019 313.933 237.548C313.933 227.076 311.853 216.71 307.816 207.058C305.864 202.409 303.463 197.964 300.649 193.787C295.06 185.47 287.94 178.307 279.674 172.684C275.518 169.859 271.101 167.444 266.484 165.473C256.867 161.384 246.528 159.29 236.087 159.319ZM236.087 154.782C247.084 154.76 257.97 156.98 268.09 161.308C273.004 163.373 277.702 165.923 282.115 168.923C286.477 171.888 290.552 175.259 294.286 178.993C297.997 182.757 301.358 186.856 304.325 191.238C313.51 204.914 318.416 221.043 318.411 237.548C318.433 248.611 316.226 259.565 311.924 269.746C309.869 274.669 307.334 279.375 304.356 283.795C301.409 288.183 298.058 292.283 294.347 296.04C290.586 299.778 286.492 303.159 282.115 306.141C277.722 309.119 273.057 311.668 268.183 313.756C258.037 318.072 247.134 320.297 236.118 320.297C225.103 320.297 214.199 318.072 204.054 313.756C199.174 311.681 194.508 309.131 190.122 306.141C185.754 303.184 181.678 299.812 177.951 296.071C174.2 292.329 170.807 288.239 167.819 283.857C164.849 279.438 162.304 274.744 160.22 269.84C155.918 259.625 153.711 248.641 153.733 237.548C153.719 226.478 155.915 215.518 160.189 205.318C162.283 200.412 164.838 195.718 167.819 191.301C170.758 186.906 174.109 182.805 177.827 179.055C181.557 175.319 185.621 171.938 189.967 168.954C194.37 165.966 199.045 163.406 203.93 161.308C214.102 156.972 225.04 154.752 236.087 154.782Z" fill="#F6F7F8"/>
    <path d="M236.088 145.078C223.769 145.054 211.572 147.528 200.224 152.351C194.772 154.616 189.539 157.384 184.593 160.618C174.879 167.274 166.496 175.708 159.881 185.482C156.57 190.448 153.726 195.713 151.386 201.209C146.62 212.634 144.165 224.901 144.165 237.293C144.165 249.684 146.62 261.951 151.386 273.376C153.726 278.872 156.57 284.137 159.881 289.103C163.197 294.004 166.961 298.582 171.125 302.778C179.489 311.24 189.416 317.976 200.348 322.607C211.633 327.524 223.79 330.093 236.088 330.159C254.428 330.177 272.353 324.667 287.552 314.34C292.439 311.011 297.001 307.223 301.175 303.027C305.339 298.831 309.103 294.253 312.419 289.352C315.732 284.392 318.566 279.126 320.883 273.625C325.675 262.206 328.144 249.936 328.144 237.541C328.144 225.146 325.675 212.876 320.883 201.457C318.566 195.956 315.732 190.69 312.419 185.731C305.813 175.949 297.428 167.513 287.707 160.867C282.786 157.53 277.563 154.668 272.107 152.32C260.708 147.49 248.457 145.027 236.088 145.078ZM236.088 140.945C248.94 140.92 261.665 143.51 273.497 148.559C279.224 150.981 284.698 153.969 289.838 157.479C294.934 160.945 299.692 164.889 304.048 169.258C308.393 173.647 312.323 178.434 315.786 183.555C319.257 188.727 322.226 194.222 324.652 199.965C329.677 211.902 332.262 224.734 332.251 237.696C332.268 250.637 329.694 263.448 324.683 275.366C322.257 281.108 319.288 286.604 315.817 291.776C312.372 296.903 308.452 301.69 304.11 306.072C299.747 310.444 294.99 314.398 289.9 317.883C284.759 321.375 279.298 324.362 273.59 326.803C261.72 331.82 248.963 334.368 236.088 334.293C223.248 334.302 210.536 331.712 198.71 326.679C193.002 324.237 187.541 321.25 182.4 317.759C166.956 307.281 154.864 292.523 147.586 275.272C142.557 263.339 139.982 250.503 140.018 237.541C140.001 224.601 142.575 211.79 147.586 199.872C150 194.123 152.97 188.627 156.452 183.462C163.353 173.173 172.151 164.31 182.369 157.355C187.52 153.861 192.992 150.874 198.71 148.435C210.531 143.38 223.244 140.78 236.088 140.789V140.945Z" fill="#F6F7F8"/>
    <path d="M236.087 130.535C214.895 130.504 194.181 136.87 176.623 148.81C165.32 156.535 155.572 166.342 147.894 177.714C144.055 183.432 140.776 189.51 138.102 195.865C132.576 209.057 129.73 223.227 129.73 237.543C129.73 251.859 132.576 266.029 138.102 279.221C140.776 285.576 144.055 291.654 147.894 297.372C151.721 303.048 156.076 308.345 160.899 313.192C165.709 318.044 170.975 322.415 176.623 326.245C182.305 330.118 188.346 333.428 194.663 336.129C207.77 341.704 221.857 344.569 236.087 344.551C250.317 344.565 264.404 341.701 277.512 336.129C283.828 333.428 289.87 330.118 295.552 326.245C306.863 318.553 316.604 308.752 324.25 297.372C336.145 279.715 342.503 258.874 342.503 237.543C342.503 216.212 336.145 195.371 324.25 177.714C320.443 172.032 316.098 166.734 311.276 161.894C306.458 157.041 301.194 152.66 295.552 148.81C277.994 136.87 257.28 130.504 236.087 130.535ZM236.087 126.805C250.836 126.772 265.44 129.732 279.026 135.507C285.515 138.311 291.722 141.735 297.56 145.733C309.278 153.679 319.367 163.819 327.277 175.601C331.251 181.475 334.654 187.719 337.44 194.249C343.183 207.906 346.125 222.589 346.089 237.419C346.125 252.228 343.183 266.891 337.44 280.527C334.677 287.061 331.283 293.307 327.308 299.175C323.375 305.057 318.885 310.542 313.901 315.554C303.72 325.905 291.602 334.123 278.246 339.735C264.89 345.347 250.561 348.241 236.087 348.25C214.16 348.281 192.726 341.699 174.553 329.353C168.729 325.437 163.289 320.972 158.304 316.02C153.311 311.009 148.811 305.524 144.867 299.641C140.893 293.767 137.49 287.522 134.704 280.993C128.951 267.338 125.999 252.654 126.024 237.823C126.003 223.015 128.945 208.355 134.673 194.715C137.458 188.136 140.862 181.84 144.836 175.911C148.778 170.045 153.267 164.571 158.243 159.563C163.223 154.539 168.675 150.012 174.522 146.043C180.36 142.045 186.567 138.621 193.057 135.818C206.647 129.918 221.286 126.852 236.087 126.805Z" fill="#F6F7F8"/>
    <path d="M236.088 116.146C219.945 116.117 203.963 119.373 189.103 125.719C167.558 134.877 149.128 150.148 136.063 169.666C131.71 176.161 127.986 183.061 124.943 190.272C118.664 205.232 115.429 221.306 115.429 237.545C115.429 253.784 118.664 269.858 124.943 284.817C127.986 292.028 131.71 298.929 136.063 305.424C140.378 311.865 145.302 317.87 150.767 323.357C161.762 334.43 174.779 343.263 189.103 349.371C203.965 355.707 219.947 358.952 236.088 358.912C252.228 358.949 268.21 355.703 283.073 349.371C297.392 343.273 310.401 334.438 321.377 323.357C326.852 317.871 331.787 311.865 336.112 305.424C340.466 298.929 344.19 292.028 347.233 284.817C353.492 269.853 356.717 253.781 356.717 237.545C356.717 221.309 353.492 205.237 347.233 190.272C341.162 175.861 332.383 162.764 321.377 151.702C310.388 140.643 297.383 131.821 283.073 125.719C268.212 119.376 252.23 116.12 236.088 116.146ZM236.088 112.852C260.783 112.795 284.925 120.213 305.376 134.142C318.556 143.103 329.912 154.517 338.83 167.77C343.311 174.438 347.138 181.526 350.26 188.936C356.693 204.313 360.007 220.829 360.007 237.514C360.007 254.198 356.693 270.714 350.26 286.092C347.133 293.499 343.305 300.587 338.83 307.257C334.391 313.871 329.333 320.043 323.725 325.688C318.112 331.349 311.967 336.45 305.376 340.917C298.757 345.437 291.71 349.289 284.339 352.416C269.08 358.935 252.666 362.276 236.088 362.238C219.513 362.273 203.102 358.944 187.836 352.448C180.471 349.309 173.425 345.457 166.8 340.948C160.222 336.474 154.078 331.385 148.451 325.75C142.842 320.094 137.784 313.912 133.345 307.288C128.852 300.629 125.024 293.539 121.915 286.123C115.453 270.756 112.154 254.231 112.216 237.545C112.18 220.869 115.49 204.357 121.946 188.998C125.055 181.582 128.883 174.492 133.376 167.832C137.823 161.214 142.88 155.033 148.481 149.371C154.098 143.736 160.232 138.647 166.8 134.173C173.426 129.665 180.472 125.814 187.836 122.673C203.098 116.161 219.51 112.82 236.088 112.852Z" fill="#F6F7F8"/>
    <path d="M236.089 101.789C218.05 101.749 200.188 105.375 183.575 112.449C175.557 115.846 167.881 120.009 160.654 124.881C153.5 129.76 146.818 135.306 140.698 141.447C134.595 147.604 129.083 154.326 124.234 161.525C119.391 168.796 115.253 176.519 111.877 184.586C104.892 201.315 101.294 219.277 101.294 237.422C101.294 255.567 104.892 273.529 111.877 290.258C115.247 298.318 119.385 306.031 124.234 313.288C129.075 320.502 134.588 327.236 140.698 333.397C146.797 339.622 153.469 345.252 160.623 350.211C167.85 355.084 175.526 359.247 183.544 362.643C200.161 369.703 218.02 373.328 236.058 373.304C262.948 373.41 289.246 365.363 311.524 350.211C325.909 340.462 338.286 328.01 347.976 313.537C360.494 294.792 368.178 273.206 370.336 250.727C372.493 228.247 369.055 205.581 360.332 184.772C356.956 176.705 352.818 168.983 347.976 161.711C343.141 154.482 337.639 147.728 331.542 141.54C325.418 135.392 318.725 129.845 311.555 124.975C304.342 120.096 296.677 115.933 288.665 112.543C272.039 105.431 254.156 101.774 236.089 101.789ZM236.089 98.8674C254.519 98.8327 272.768 102.532 289.746 109.745C297.939 113.253 305.78 117.541 313.162 122.55C320.48 127.516 327.308 133.178 333.55 139.458C339.783 145.746 345.409 152.614 350.354 159.971C355.346 167.39 359.608 175.28 363.081 183.529C370.237 200.623 373.924 218.983 373.924 237.531C373.924 256.079 370.237 274.439 363.081 291.532C359.618 299.78 355.366 307.671 350.385 315.091C345.44 322.447 339.813 329.316 333.58 335.604C327.331 341.875 320.504 347.536 313.193 352.511C305.815 357.527 297.973 361.815 289.777 365.316C272.794 372.554 254.533 376.265 236.089 376.225C208.571 376.286 181.668 368.036 158.862 352.542C151.551 347.567 144.724 341.906 138.474 335.635C132.232 329.355 126.605 322.486 121.67 315.122C116.737 307.699 112.537 299.808 109.128 291.563C101.934 274.476 98.2464 256.103 98.2855 237.546C98.2608 219.001 101.948 200.641 109.128 183.56C112.615 175.317 116.876 167.429 121.855 160.002C131.724 145.297 144.309 132.636 158.924 122.706C166.291 117.672 174.134 113.383 182.339 109.901C199.331 102.606 217.616 98.8522 236.089 98.8674Z" fill="#F6F7F8"/>
    <path d="M236.087 87.3928C216.126 87.3543 196.363 91.3713 177.982 99.2031C169.117 102.984 160.634 107.616 152.652 113.034C128.662 129.324 109.883 152.266 98.5927 179.079C90.8444 197.583 86.8529 217.46 86.8529 237.54C86.8529 257.62 90.8444 277.497 98.5927 296.002C106.096 313.828 116.952 330.028 130.565 343.71C137.338 350.507 144.733 356.646 152.652 362.047C160.634 367.465 169.117 372.096 177.982 375.877C196.363 383.709 216.126 387.726 236.087 387.688C256.049 387.726 275.812 383.709 294.193 375.877C303.058 372.096 311.541 367.465 319.523 362.047C327.442 356.646 334.837 350.507 341.61 343.71C348.366 336.895 354.468 329.454 359.836 321.487C365.221 313.456 369.824 304.921 373.582 296.002C381.331 277.497 385.322 257.62 385.322 237.54C385.322 217.46 381.331 197.583 373.582 179.079C369.824 170.159 365.221 161.624 359.836 153.593C354.468 145.626 348.366 138.186 341.61 131.371C334.845 124.565 327.449 118.425 319.523 113.034C311.541 107.616 303.058 102.984 294.193 99.2031C275.812 91.3713 256.049 87.3543 236.087 87.3928ZM236.087 84.8753C256.377 84.8361 276.465 88.9164 295.151 96.8721C304.173 100.685 312.802 105.38 320.914 110.889C337.077 121.845 350.985 135.839 361.875 152.101C367.372 160.26 372.059 168.941 375.868 178.022C383.802 196.825 387.869 217.051 387.823 237.478C387.864 257.892 383.809 278.104 375.899 296.903C372.09 305.984 367.403 314.666 361.906 322.824C351.016 339.086 337.108 353.08 320.944 364.036C312.838 369.588 304.209 374.325 295.182 378.177C276.493 386.16 256.391 390.252 236.087 390.205C215.817 390.229 195.749 386.138 177.086 378.177C168.061 374.344 159.432 369.629 151.323 364.098C143.26 358.622 135.739 352.377 128.866 345.45C121.991 338.525 115.785 330.96 110.331 322.855C104.857 314.682 100.171 306.003 96.3376 296.934C88.4679 278.117 84.4141 257.908 84.4141 237.494C84.4141 217.079 88.4679 196.87 96.3376 178.053C100.147 168.973 104.834 160.291 110.331 152.132C115.774 144.019 121.981 136.453 128.866 129.537C142.702 115.631 159.075 104.54 177.086 96.8721C195.752 88.9254 215.819 84.8453 236.087 84.8753Z" fill="#F6F7F8"/>
    <path d="M236.088 73.005C214.21 72.9782 192.553 77.408 172.422 86.0275C162.68 90.1467 153.367 95.2273 144.62 101.195C135.934 107.087 127.833 113.811 120.433 121.272C113.017 128.718 106.334 136.868 100.477 145.608C94.5482 154.414 89.4889 163.783 85.3718 173.58C76.8895 193.857 72.5201 215.636 72.5201 237.636C72.5201 259.636 76.8895 281.414 85.3718 301.692C89.4957 311.485 94.5546 320.853 100.477 329.664C106.334 338.404 113.017 346.553 120.433 353.999C135.335 369.004 152.978 380.971 172.391 389.244C192.549 397.79 214.214 402.155 236.088 402.08C268.676 402.113 300.526 392.315 327.525 373.953C336.211 368.06 344.311 361.336 351.712 353.875C359.139 346.43 365.832 338.281 371.698 329.539C377.611 320.728 382.66 311.36 386.773 301.567C395.277 281.296 399.659 259.515 399.659 237.511C399.659 215.508 395.277 193.727 386.773 173.456C382.667 163.659 377.618 154.291 371.698 145.484C365.842 136.744 359.159 128.594 351.743 121.148C344.342 113.687 336.242 106.963 327.555 101.07C318.805 95.1093 309.493 90.0292 299.754 85.9032C279.614 77.3264 257.957 72.9389 236.088 73.005ZM236.088 70.8916C258.264 70.8408 280.222 75.2911 300.65 83.9762C320.266 92.3855 338.094 104.509 353.164 119.687C360.672 127.236 367.448 135.489 373.397 144.334C379.377 153.256 384.487 162.738 388.657 172.647C397.305 193.174 401.739 215.248 401.693 237.542C401.731 259.823 397.308 281.883 388.688 302.406C384.508 312.317 379.387 321.799 373.397 330.72C367.439 339.558 360.664 347.81 353.164 355.367C345.654 362.914 337.452 369.73 328.668 375.724C319.839 381.733 310.456 386.875 300.65 391.078C280.229 399.787 258.267 404.248 236.088 404.193C213.943 404.235 192.016 399.785 171.619 391.109C161.763 386.853 152.338 381.649 143.477 375.569C134.689 369.592 126.486 362.785 118.981 355.242C111.48 347.687 104.705 339.434 98.7475 330.596C92.7677 321.674 87.6574 312.192 83.4874 302.282C74.8397 281.755 70.4056 259.682 70.4515 237.387C70.4102 215.106 74.8333 193.045 83.4565 172.523C87.6864 162.607 92.8589 153.125 98.9019 144.209C104.833 135.36 111.599 127.106 119.104 119.563C126.608 112.008 134.81 105.192 143.601 99.2054C152.469 93.189 161.893 88.0474 171.742 83.8519C192.107 75.225 213.992 70.8171 236.088 70.8916Z" fill="#F6F7F8"/>
    <path d="M236.088 58.647C212.309 58.6004 188.764 63.3783 166.862 72.6952C156.287 77.1805 146.169 82.6867 136.651 89.1365C117.746 102.023 101.455 118.415 88.6464 137.435C82.2145 147.009 76.7211 157.189 72.2434 167.831C63.0271 189.881 58.2798 213.561 58.2798 237.481C58.2798 261.402 63.0271 285.082 72.2434 307.132C76.7211 317.774 82.2145 327.953 88.6464 337.528C101.455 356.548 117.746 372.939 136.651 385.826C146.174 392.286 156.29 397.812 166.862 402.33C188.76 411.668 212.304 416.467 236.088 416.44C259.867 416.487 283.412 411.709 305.314 402.392C315.879 397.881 325.986 392.354 335.495 385.888C344.942 379.504 353.755 372.218 361.814 364.132C369.842 356.029 377.083 347.172 383.437 337.683C389.858 328.102 395.35 317.923 399.84 307.287C409.056 285.237 413.804 261.557 413.804 237.637C413.804 213.716 409.056 190.037 399.84 167.986C395.35 157.35 389.858 147.172 383.437 137.59C377.083 128.101 369.842 119.245 361.814 111.141C353.755 103.056 344.942 95.7699 335.495 89.3851C325.993 82.9075 315.885 77.3801 305.314 72.8817C283.425 63.5008 259.88 58.6593 236.088 58.647ZM236.088 56.9066C260.093 56.8604 283.859 61.6915 305.963 71.1101C316.646 75.6415 326.858 81.2214 336.452 87.769C345.993 94.2357 354.889 101.615 363.018 109.805C371.159 117.991 378.503 126.941 384.951 136.534C391.441 146.197 396.986 156.471 401.508 167.209C413.165 194.889 417.756 225.062 414.864 254.983C411.972 284.903 401.689 313.621 384.951 338.522C365.479 367.566 338.052 390.303 305.994 403.977C283.879 413.396 260.103 418.227 236.088 418.18C200.317 418.235 165.353 407.484 135.724 387.318C116.608 374.332 100.145 357.778 87.2255 338.553C80.7419 328.886 75.1972 318.613 70.668 307.878C61.3506 285.619 56.5508 261.711 56.5508 237.559C56.5508 213.407 61.3506 189.499 70.668 167.241C75.1718 156.493 80.7178 146.218 87.2255 136.565C93.6528 126.966 100.987 118.014 109.127 109.836C117.263 101.645 126.159 94.2562 135.693 87.769C165.331 67.5975 200.306 56.8457 236.088 56.9066Z" fill="#F6F7F8"/>
    <path d="M236.089 44.259C210.397 44.2009 184.958 49.3705 161.302 59.4571C149.884 64.3222 138.959 70.2861 128.682 77.2659C118.48 84.2086 108.954 92.1071 100.231 100.856C91.5328 109.651 83.6823 119.257 76.785 129.543C69.854 139.887 63.9266 150.878 59.0846 162.363C49.1156 186.181 43.9801 211.764 43.9801 237.608C43.9801 263.451 49.1156 289.034 59.0846 312.852C63.9266 324.338 69.854 335.328 76.785 345.673C83.6859 355.927 91.5363 365.501 100.231 374.266C108.945 383.034 118.472 390.943 128.682 397.887C138.959 404.867 149.884 410.831 161.302 415.696C184.967 425.747 210.402 430.895 236.089 430.832C261.78 430.876 287.215 425.706 310.875 415.634C345.161 400.967 374.509 376.652 395.392 345.611C402.317 335.305 408.244 324.357 413.093 312.914C423.062 289.096 428.197 263.514 428.197 237.67C428.197 211.826 423.062 186.243 413.093 162.425C408.254 150.918 402.327 139.907 395.392 129.543C388.491 119.27 380.629 109.685 371.915 100.918C363.204 92.1697 353.688 84.2712 343.496 77.3281C333.214 70.3546 322.291 64.3909 310.875 59.5193C287.224 49.4114 261.785 44.2206 236.089 44.259ZM236.089 42.9226C274.626 42.8591 312.293 54.445 344.206 76.1782C354.468 83.1636 364.046 91.1144 372.811 99.9233C390.461 117.66 404.537 138.662 414.267 161.772C424.365 185.74 429.545 211.513 429.496 237.546C429.541 263.564 424.372 289.324 414.298 313.287C409.405 324.863 403.416 335.937 396.412 346.357C389.485 356.656 381.604 366.272 372.873 375.074C364.112 383.91 354.522 391.872 344.237 398.851C312.313 420.561 274.653 432.145 236.12 432.106C210.259 432.155 184.655 426.954 160.839 416.815C149.335 411.902 138.328 405.887 127.971 398.851C117.694 391.849 108.096 383.889 99.3044 375.074C90.5415 366.251 82.6385 356.603 75.7039 346.263C68.7138 335.857 62.7444 324.792 57.8799 313.225C47.7814 289.258 42.6013 263.484 42.6507 237.452C42.5877 198.679 54.1031 160.782 75.7039 128.672C82.6544 118.344 90.5561 108.698 99.3044 99.8611C108.07 91.0522 117.648 83.1014 127.909 76.116C138.267 69.0891 149.274 63.0836 160.777 58.1828C184.603 48.0437 210.219 42.8531 236.089 42.9226Z" fill="#F6F7F8"/>
    <path d="M236.088 29.8702C208.499 29.8267 181.183 35.3761 155.772 46.1872C143.502 51.4238 131.761 57.835 120.711 65.3325C98.8028 80.2453 79.9297 99.234 65.1076 121.276C57.6558 132.394 51.2836 144.207 46.0789 156.552C35.3843 182.134 29.8754 209.608 29.8754 237.36C29.8754 265.113 35.3843 292.586 46.0789 318.168C51.2836 330.513 57.6558 342.326 65.1076 353.444C72.4556 364.536 80.8337 374.901 90.1291 384.4C99.4937 393.796 109.723 402.278 120.68 409.73C131.723 417.249 143.465 423.671 155.741 428.906C181.152 439.717 208.468 445.267 236.057 445.223C263.647 445.267 290.962 439.717 316.373 428.906C328.65 423.671 340.392 417.249 351.434 409.73C362.413 402.281 372.663 393.799 382.047 384.4C391.386 374.978 399.816 364.686 407.223 353.662C414.698 342.558 421.071 330.743 426.252 318.386C436.967 292.809 442.487 265.334 442.487 237.578C442.487 209.822 436.967 182.347 426.252 156.77C421.071 144.413 414.698 132.598 407.223 121.494C392.412 99.4423 373.537 80.4516 351.62 65.5501C340.569 58.0526 328.828 51.6414 316.559 46.4048C291.115 35.4986 263.744 29.8746 236.088 29.8702ZM236.088 28.9378C263.807 28.8881 291.251 34.4697 316.775 45.3481C329.111 50.5846 340.907 57.0284 351.99 64.5866C363.012 72.0629 373.294 80.5869 382.696 90.0411C392.076 99.5042 400.547 109.838 407.995 120.904C415.489 132.066 421.893 143.932 427.117 156.335C437.882 182.035 443.428 209.642 443.428 237.531C443.428 265.42 437.882 293.028 427.117 318.728C421.912 331.14 415.507 343.007 407.995 354.159C400.564 365.248 392.092 375.593 382.696 385.052C373.29 394.49 363.02 403.013 352.021 410.507C340.923 418.041 329.13 424.483 316.806 429.745C291.27 440.621 263.817 446.202 236.088 446.156C194.768 446.215 154.382 433.797 120.155 410.507C109.149 403.022 98.8779 394.499 89.4804 385.052C80.1003 375.589 71.6295 365.256 64.1809 354.19C56.6814 343.031 50.2775 331.165 45.0595 318.759C34.2953 293.053 28.75 265.441 28.75 237.547C28.75 209.653 34.2953 182.04 45.0595 156.335C50.2775 143.929 56.6814 132.063 64.1809 120.904C71.62 109.83 80.0915 99.4962 89.4804 90.0411C98.8859 80.6035 109.156 72.0808 120.155 64.5866C131.272 57.0294 143.098 50.5858 155.463 45.3481C180.969 34.482 208.39 28.9008 236.088 28.9378Z" fill="#F6F7F8"/>
    <path d="M236.088 15.4742C206.576 15.4143 177.355 21.3555 150.181 32.9411C97.3052 55.4953 55.213 97.8453 32.7962 151.045C21.3387 178.403 15.4363 207.791 15.4363 237.479C15.4363 267.166 21.3387 296.554 32.7962 323.912C55.213 377.112 97.3052 419.462 150.181 442.016C177.353 453.62 206.571 459.592 236.088 459.576C280.017 459.651 322.956 446.453 359.343 421.69C382.851 405.735 403.092 385.381 418.962 361.736C426.94 349.848 433.757 337.213 439.319 324.005C450.756 296.642 456.647 267.256 456.647 237.572C456.647 207.887 450.756 178.502 439.319 151.138C428.216 124.768 412.158 100.802 392.025 80.5557C382.016 70.4829 371.072 61.3972 359.343 53.4228C347.542 45.3901 334.992 38.5306 321.872 32.9411C294.734 21.3793 265.559 15.4387 236.088 15.4742ZM236.088 14.9458C265.695 14.8812 295.009 20.8328 322.274 32.4438C335.435 38.054 348.025 44.9341 359.868 52.9877C383.428 68.985 403.711 89.3918 419.61 113.096C427.608 125.004 434.446 137.661 440.029 150.89C451.545 178.306 457.45 207.777 457.39 237.541C457.452 267.295 451.548 296.756 440.029 324.161C434.453 337.403 427.615 350.07 419.61 361.985C403.711 385.69 383.428 406.096 359.868 422.094C348.022 430.143 335.433 437.022 322.274 442.638C295.005 454.232 265.692 460.173 236.088 460.105C206.506 460.165 177.214 454.224 149.965 442.638C136.817 437.021 124.237 430.141 112.402 422.094C88.8415 406.096 68.5589 385.69 52.659 361.985C44.661 350.077 37.823 337.421 32.2402 324.192C20.7623 296.763 14.8496 267.302 14.8496 237.541C14.8496 207.78 20.7623 178.319 32.2402 150.89C43.3652 124.455 59.4666 100.435 79.6575 80.1516C89.6881 70.0691 100.653 60.9732 112.402 52.9877C124.237 44.9407 136.817 38.0609 149.965 32.4438C177.212 20.8475 206.504 14.8964 236.088 14.9458Z" fill="#F6F7F8"/>
    <path d="M236.088 1.11669C204.662 1.07235 173.551 7.41519 144.621 19.7647C130.642 25.6861 117.274 32.973 104.71 41.5207C79.6681 58.5178 58.0979 80.1886 41.1677 105.359C32.672 118 25.4295 131.45 19.5442 145.514C4.30685 181.743 -1.69619 221.226 2.07998 260.38C5.85615 299.535 19.2919 337.121 41.1677 369.725C58.0766 394.901 79.6257 416.582 104.648 433.595C117.213 442.143 130.58 449.429 144.559 455.351C173.489 467.7 204.6 474.043 236.027 473.999C267.453 474.043 298.564 467.7 327.494 455.351C341.47 449.423 354.837 442.136 367.405 433.595C392.428 416.582 413.977 394.901 430.886 369.725C452.712 337.099 466.118 299.517 469.893 260.373C473.668 221.228 467.694 181.754 452.509 145.514C446.624 131.45 439.381 118 430.886 105.359C413.977 80.1832 392.428 58.5021 367.405 41.4896C354.837 32.9482 341.47 25.6616 327.494 19.7336C298.581 7.40299 267.492 1.07089 236.088 1.11669ZM236.088 474.092C204.642 474.136 173.511 467.794 144.559 455.444C130.58 449.503 117.204 442.217 104.617 433.688C79.6166 416.659 58.0805 394.981 41.1677 369.819C32.6897 357.156 25.4482 343.697 19.5442 329.632C7.35262 300.48 1.0725 269.17 1.0725 237.542C1.0725 205.914 7.35262 174.605 19.5442 145.452C25.4482 131.387 32.6897 117.929 41.1677 105.266C49.6135 92.7059 59.2334 80.9872 69.8961 70.2697C91.6966 48.2774 117.601 30.8358 146.122 18.947C174.643 7.05818 205.217 0.95644 236.088 0.992391C267.534 0.950779 298.665 7.29334 327.618 19.6404C355.525 31.5629 380.894 48.7724 402.343 70.3318C412.996 81.0499 422.605 92.7686 431.04 105.328C439.517 117.992 446.759 131.45 452.664 145.514C464.855 174.667 471.135 205.976 471.135 237.604C471.135 269.232 464.855 300.542 452.664 329.694C446.759 343.759 439.517 357.217 431.04 369.881C422.605 382.44 412.996 394.159 402.343 404.877C380.894 426.436 355.525 443.646 327.618 455.568C298.657 467.873 267.526 474.173 236.088 474.092Z" fill="#F6F7F8"/>
    <path d="M236.088 231.207C234.866 231.207 233.672 231.571 232.656 232.254C231.64 232.937 230.848 233.908 230.38 235.044C229.912 236.18 229.79 237.43 230.029 238.635C230.267 239.841 230.855 240.949 231.719 241.818C232.583 242.687 233.684 243.279 234.883 243.519C236.081 243.759 237.323 243.636 238.452 243.165C239.581 242.695 240.546 241.898 241.225 240.876C241.904 239.854 242.266 238.652 242.266 237.423C242.266 235.774 241.615 234.193 240.457 233.027C239.298 231.861 237.727 231.207 236.088 231.207ZM236.088 250.383C233.565 250.383 231.098 249.63 229 248.22C226.902 246.809 225.267 244.805 224.301 242.459C223.336 240.114 223.083 237.533 223.575 235.043C224.067 232.553 225.283 230.266 227.067 228.47C228.851 226.675 231.124 225.453 233.599 224.958C236.074 224.462 238.639 224.716 240.97 225.688C243.301 226.66 245.294 228.305 246.696 230.416C248.098 232.527 248.846 235.008 248.846 237.547C248.838 240.949 247.491 244.209 245.1 246.614C242.709 249.02 239.469 250.375 236.088 250.383Z" fill="#B8C1CC"/>
    <path d="M236.088 216.81C233.319 216.819 230.579 217.379 228.026 218.457C226.815 218.988 225.656 219.634 224.566 220.384C222.395 221.851 220.519 223.718 219.036 225.885C216.704 229.296 215.455 233.338 215.455 237.478C215.455 241.618 216.704 245.661 219.036 249.071C220.513 251.261 222.389 253.149 224.566 254.634C225.656 255.385 226.815 256.03 228.026 256.561C230.581 257.63 233.321 258.179 236.088 258.178C238.846 258.182 241.576 257.633 244.12 256.561C245.344 256.037 246.513 255.391 247.61 254.634C249.787 253.149 251.664 251.261 253.14 249.071C253.887 247.98 254.519 246.814 255.024 245.59C256.105 243.024 256.662 240.265 256.662 237.478C256.662 234.691 256.105 231.932 255.024 229.366C254.519 228.143 253.887 226.976 253.14 225.885C251.664 223.695 249.787 221.807 247.61 220.322C246.513 219.565 245.344 218.919 244.12 218.395C241.574 217.335 238.843 216.796 236.088 216.81ZM236.088 210.594C239.655 210.58 243.187 211.299 246.467 212.707C248.049 213.371 249.56 214.194 250.977 215.163C253.806 217.066 256.24 219.504 258.144 222.342C259.105 223.775 259.933 225.294 260.615 226.88C262.025 230.211 262.75 233.795 262.747 237.416C262.761 241.005 262.046 244.558 260.646 247.859C259.987 249.45 259.169 250.971 258.206 252.397C256.349 255.255 253.982 257.742 251.225 259.732C249.801 260.699 248.291 261.531 246.715 262.218C243.404 263.637 239.841 264.366 236.243 264.362C232.676 264.376 229.144 263.657 225.863 262.249C224.282 261.585 222.771 260.763 221.353 259.794C219.88 258.846 218.503 257.752 217.245 256.53C216.094 255.326 215.059 254.015 214.156 252.614C213.194 251.182 212.367 249.663 211.684 248.077C210.274 244.745 209.549 241.161 209.553 237.54C209.539 233.952 210.254 230.398 211.654 227.098C212.313 225.506 213.131 223.986 214.094 222.56C215.006 221.155 216.039 219.834 217.183 218.613C218.39 217.407 219.703 216.315 221.106 215.349C222.53 214.382 224.04 213.55 225.616 212.863C228.927 211.444 232.489 210.715 236.088 210.718V210.594Z" fill="#D5DDE5"/>
    <path d="M236.087 202.454C231.408 202.444 226.774 203.385 222.465 205.22C220.399 206.054 218.422 207.095 216.564 208.328C214.713 209.577 212.995 211.014 211.437 212.617C209.843 214.185 208.415 215.914 207.174 217.777C205.954 219.649 204.92 221.638 204.085 223.713C202.27 228.052 201.335 232.712 201.335 237.419C201.335 242.127 202.27 246.787 204.085 251.125C204.92 253.201 205.954 255.189 207.174 257.062C208.43 258.913 209.858 260.64 211.437 262.221C213.003 263.816 214.72 265.252 216.564 266.51C218.422 267.743 220.399 268.784 222.465 269.618C226.777 271.444 231.409 272.384 236.087 272.384C240.766 272.384 245.398 271.444 249.71 269.618C251.773 268.778 253.749 267.737 255.61 266.51C259.235 263.993 262.375 260.833 264.878 257.186C266.097 255.313 267.132 253.325 267.967 251.25C269.781 246.911 270.716 242.251 270.716 237.544C270.716 232.836 269.781 228.176 267.967 223.837C266.218 219.684 263.678 215.914 260.491 212.742C258.92 211.153 257.203 209.717 255.363 208.453C253.502 207.226 251.526 206.185 249.463 205.345C245.239 203.499 240.692 202.516 236.087 202.454ZM236.087 196.735C241.503 196.696 246.871 197.753 251.873 199.843C256.672 201.887 261.035 204.842 264.723 208.546C266.553 210.397 268.208 212.415 269.666 214.575C271.144 216.745 272.406 219.056 273.434 221.475C275.518 226.538 276.569 231.971 276.523 237.45C276.563 242.899 275.512 248.3 273.434 253.332C272.435 255.786 271.204 258.139 269.758 260.356C268.31 262.513 266.654 264.523 264.816 266.355C262.987 268.195 260.991 269.86 258.854 271.327C256.693 272.808 254.397 274.078 251.996 275.119C246.963 277.212 241.564 278.269 236.118 278.227C230.702 278.273 225.333 277.216 220.333 275.119C217.923 274.089 215.617 272.829 213.445 271.359C211.285 269.873 209.278 268.176 207.452 266.293C205.613 264.46 203.958 262.451 202.509 260.294C201.022 258.168 199.75 255.898 198.71 253.519C196.629 248.455 195.579 243.023 195.621 237.544C195.575 232.094 196.626 226.692 198.71 221.662C200.741 216.833 203.678 212.444 207.359 208.732C209.184 206.875 211.192 205.209 213.352 203.76C215.541 202.253 217.881 200.983 220.333 199.968C225.318 197.845 230.674 196.746 236.087 196.735Z" fill="#D5DDE5"/>
    <path d="M236.089 188.065C229.498 188.058 222.973 189.39 216.906 191.981C213.99 193.228 211.198 194.747 208.565 196.519C203.343 200.072 198.845 204.598 195.313 209.852C193.552 212.501 192.042 215.311 190.803 218.244C187.606 225.83 186.344 234.1 187.132 242.301C187.92 250.502 190.732 258.376 195.313 265.206C197.071 267.83 199.078 270.276 201.306 272.51C203.531 274.801 205.961 276.882 208.565 278.726C211.198 280.498 213.99 282.017 216.906 283.263C224.445 286.479 232.665 287.749 240.816 286.957C248.968 286.164 256.793 283.335 263.582 278.726C266.201 276.89 268.642 274.809 270.872 272.51C273.093 270.258 275.099 267.803 276.865 265.175C281.44 258.343 284.249 250.469 285.037 242.269C285.825 234.069 284.566 225.8 281.375 218.213C280.136 215.28 278.626 212.47 276.865 209.821C275.091 207.209 273.085 204.765 270.872 202.518C268.641 200.285 266.199 198.276 263.582 196.519C255.46 191.005 245.886 188.061 236.089 188.065ZM236.089 182.751C243.412 182.716 250.665 184.186 257.403 187.071C260.653 188.431 263.758 190.118 266.671 192.106C272.453 196.028 277.433 201.029 281.344 206.838C283.323 209.771 285.01 212.894 286.379 216.162C289.24 222.934 290.711 230.217 290.704 237.576C290.721 244.902 289.26 252.155 286.41 258.897C285.045 262.16 283.369 265.283 281.406 268.221C277.454 274.008 272.456 278.995 266.671 282.921C263.757 284.934 260.653 286.652 257.403 288.05C250.68 290.915 243.452 292.392 236.151 292.392C228.849 292.392 221.621 290.915 214.898 288.05C211.648 286.689 208.543 285.002 205.63 283.015C202.741 281.058 200.041 278.831 197.568 276.364C195.122 273.872 192.9 271.168 190.926 268.283C188.969 265.341 187.293 262.219 185.922 258.959C183.079 252.198 181.613 244.932 181.613 237.591C181.613 230.25 183.079 222.984 185.922 216.224C187.274 212.954 188.951 209.83 190.926 206.9C192.879 203.998 195.092 201.283 197.537 198.788C200.014 196.327 202.701 194.091 205.569 192.106C208.492 190.136 211.595 188.45 214.836 187.071C221.559 184.207 228.788 182.738 236.089 182.751Z" fill="#B8C1CC"/>
    <path d="M236.088 173.677C227.598 173.669 219.194 175.381 211.376 178.712C207.609 180.322 204.008 182.3 200.626 184.617C190.461 191.535 182.485 201.244 177.643 212.589C174.348 220.459 172.651 228.913 172.651 237.453C172.651 245.993 174.348 254.447 177.643 262.317C179.25 266.104 181.215 269.726 183.512 273.133C188.051 279.937 193.864 285.785 200.626 290.351C204.016 292.656 207.615 294.634 211.376 296.256C219.198 299.571 227.6 301.279 236.088 301.279C244.576 301.279 252.979 299.571 260.801 296.256C264.559 294.628 268.157 292.651 271.551 290.351C278.313 285.785 284.126 279.937 288.664 273.133C290.95 269.719 292.915 266.098 294.534 262.317C297.828 254.447 299.526 245.993 299.526 237.453C299.526 228.913 297.828 220.459 294.534 212.589C292.921 208.806 290.956 205.184 288.664 201.773C284.126 194.97 278.313 189.121 271.551 184.555C268.164 182.244 264.564 180.266 260.801 178.65C252.979 175.341 244.574 173.649 236.088 173.677ZM236.088 168.766C245.226 168.746 254.273 170.585 262.685 174.174C266.744 175.87 270.634 177.952 274.3 180.39C277.925 182.846 281.307 185.646 284.402 188.751C287.488 191.871 290.28 195.274 292.742 198.914C295.155 202.599 297.223 206.5 298.92 210.569C302.497 219.064 304.336 228.196 304.326 237.422C304.346 246.615 302.518 255.718 298.951 264.182C297.265 268.266 295.196 272.179 292.773 275.868C287.851 283.231 281.557 289.564 274.238 294.516C270.576 296.943 266.698 299.024 262.654 300.732C252.183 305.215 240.764 306.995 229.435 305.91C218.106 304.824 207.226 300.908 197.784 294.516C194.166 292.05 190.785 289.251 187.682 286.155C181.462 279.914 176.491 272.528 173.04 264.399C169.483 255.916 167.65 246.801 167.65 237.593C167.65 228.385 169.483 219.27 173.04 210.786C174.707 206.694 176.777 202.779 179.218 199.1C186.619 188.071 197.038 179.435 209.213 174.236C217.707 170.587 226.853 168.726 236.088 168.766Z" fill="#E7ECF2"/>
    <path d="M236.087 159.319C225.673 159.32 215.367 161.434 205.784 165.535C201.144 167.476 196.706 169.87 192.531 172.684C184.265 178.307 177.146 185.47 171.557 193.787C168.742 197.964 166.342 202.409 164.39 207.058C160.353 216.71 158.273 227.076 158.273 237.548C158.273 248.019 160.353 258.385 164.39 268.037C166.349 272.683 168.749 277.127 171.557 281.308C177.146 289.625 184.265 296.788 192.531 302.412C196.683 305.243 201.101 307.658 205.722 309.622C215.305 313.723 225.612 315.837 236.026 315.838C246.439 315.835 256.746 313.721 266.329 309.622C270.947 307.651 275.364 305.237 279.52 302.412C287.841 296.804 295.014 289.639 300.649 281.308C303.457 277.127 305.857 272.683 307.816 268.037C311.853 258.385 313.933 248.019 313.933 237.548C313.933 227.076 311.853 216.71 307.816 207.058C305.864 202.409 303.463 197.964 300.649 193.787C295.06 185.47 287.94 178.307 279.674 172.684C275.518 169.859 271.101 167.444 266.484 165.473C256.867 161.384 246.528 159.29 236.087 159.319ZM236.087 154.782C247.084 154.76 257.97 156.98 268.09 161.308C273.004 163.373 277.702 165.923 282.115 168.923C286.477 171.888 290.552 175.259 294.286 178.993C297.997 182.757 301.358 186.856 304.325 191.238C313.51 204.914 318.416 221.043 318.411 237.548C318.433 248.611 316.226 259.565 311.924 269.746C309.869 274.669 307.334 279.375 304.356 283.795C301.409 288.183 298.058 292.283 294.347 296.04C290.586 299.778 286.492 303.159 282.115 306.141C277.722 309.119 273.057 311.668 268.183 313.756C258.037 318.072 247.134 320.297 236.118 320.297C225.103 320.297 214.199 318.072 204.054 313.756C199.174 311.681 194.508 309.131 190.122 306.141C185.754 303.184 181.678 299.812 177.951 296.071C174.2 292.329 170.807 288.239 167.819 283.857C164.849 279.438 162.304 274.744 160.22 269.84C155.918 259.625 153.711 248.641 153.733 237.548C153.719 226.478 155.915 215.518 160.189 205.318C162.283 200.412 164.838 195.718 167.819 191.301C170.758 186.906 174.109 182.805 177.827 179.055C181.557 175.319 185.621 171.938 189.967 168.954C194.37 165.966 199.045 163.406 203.93 161.308C214.102 156.972 225.04 154.752 236.087 154.782Z" fill="#F6F7F8"/>
    <path d="M236.088 145.078C223.769 145.054 211.572 147.528 200.224 152.351C194.772 154.616 189.539 157.384 184.593 160.618C174.879 167.274 166.496 175.708 159.881 185.482C156.57 190.448 153.726 195.713 151.386 201.209C146.62 212.634 144.165 224.901 144.165 237.293C144.165 249.684 146.62 261.951 151.386 273.376C153.726 278.872 156.57 284.137 159.881 289.103C163.197 294.004 166.961 298.582 171.125 302.778C179.489 311.24 189.416 317.976 200.348 322.607C211.633 327.524 223.79 330.093 236.088 330.159C254.428 330.177 272.353 324.667 287.552 314.34C292.439 311.011 297.001 307.223 301.175 303.027C305.339 298.831 309.103 294.253 312.419 289.352C315.732 284.392 318.566 279.126 320.883 273.625C325.675 262.206 328.144 249.936 328.144 237.541C328.144 225.146 325.675 212.876 320.883 201.457C318.566 195.956 315.732 190.69 312.419 185.731C305.813 175.949 297.428 167.513 287.707 160.867C282.786 157.53 277.563 154.668 272.107 152.32C260.708 147.49 248.457 145.027 236.088 145.078ZM236.088 140.945C248.94 140.92 261.665 143.51 273.497 148.559C279.224 150.981 284.698 153.969 289.838 157.479C294.934 160.945 299.692 164.889 304.048 169.258C308.393 173.647 312.323 178.434 315.786 183.555C319.257 188.727 322.226 194.222 324.652 199.965C329.677 211.902 332.262 224.734 332.251 237.696C332.268 250.637 329.694 263.448 324.683 275.366C322.257 281.108 319.288 286.604 315.817 291.776C312.372 296.903 308.452 301.69 304.11 306.072C299.747 310.444 294.99 314.398 289.9 317.883C284.759 321.375 279.298 324.362 273.59 326.803C261.72 331.82 248.963 334.368 236.088 334.293C223.248 334.302 210.536 331.712 198.71 326.679C193.002 324.237 187.541 321.25 182.4 317.759C166.956 307.281 154.864 292.523 147.586 275.272C142.557 263.339 139.982 250.503 140.018 237.541C140.001 224.601 142.575 211.79 147.586 199.872C150 194.123 152.97 188.627 156.452 183.462C163.353 173.173 172.151 164.31 182.369 157.355C187.52 153.861 192.992 150.874 198.71 148.435C210.531 143.38 223.244 140.78 236.088 140.789V140.945Z" fill="#D5DDE5"/>
    <path d="M236.087 130.535C214.895 130.504 194.181 136.87 176.623 148.81C165.32 156.535 155.572 166.342 147.894 177.714C144.055 183.432 140.776 189.51 138.102 195.865C132.576 209.057 129.73 223.227 129.73 237.543C129.73 251.859 132.576 266.029 138.102 279.221C140.776 285.576 144.055 291.654 147.894 297.372C151.721 303.048 156.076 308.345 160.899 313.192C165.709 318.044 170.975 322.415 176.623 326.245C182.305 330.118 188.346 333.428 194.663 336.129C207.77 341.704 221.857 344.569 236.087 344.551C250.317 344.565 264.404 341.701 277.512 336.129C283.828 333.428 289.87 330.118 295.552 326.245C306.863 318.553 316.604 308.752 324.25 297.372C336.145 279.715 342.503 258.874 342.503 237.543C342.503 216.212 336.145 195.371 324.25 177.714C320.443 172.032 316.098 166.734 311.276 161.894C306.458 157.041 301.194 152.66 295.552 148.81C277.994 136.87 257.28 130.504 236.087 130.535ZM236.087 126.805C250.836 126.772 265.44 129.732 279.026 135.507C285.515 138.311 291.722 141.735 297.56 145.733C309.278 153.679 319.367 163.819 327.277 175.601C331.251 181.475 334.654 187.719 337.44 194.249C343.183 207.906 346.125 222.589 346.089 237.419C346.125 252.228 343.183 266.891 337.44 280.527C334.677 287.061 331.283 293.307 327.308 299.175C323.375 305.057 318.885 310.542 313.901 315.554C303.72 325.905 291.602 334.123 278.246 339.735C264.89 345.347 250.561 348.241 236.087 348.25C214.16 348.281 192.726 341.699 174.553 329.353C168.729 325.437 163.289 320.972 158.304 316.02C153.311 311.009 148.811 305.524 144.867 299.641C140.893 293.767 137.49 287.522 134.704 280.993C128.951 267.338 125.999 252.654 126.024 237.823C126.003 223.015 128.945 208.355 134.673 194.715C137.458 188.136 140.862 181.84 144.836 175.911C148.778 170.045 153.267 164.571 158.243 159.563C163.223 154.539 168.675 150.012 174.522 146.043C180.36 142.045 186.567 138.621 193.057 135.818C206.647 129.918 221.286 126.852 236.087 126.805Z" fill="#EEF2F6"/>
    <path d="M236.088 116.146C219.945 116.117 203.963 119.373 189.103 125.719C167.558 134.877 149.128 150.148 136.063 169.666C131.71 176.161 127.986 183.061 124.943 190.272C118.664 205.232 115.429 221.306 115.429 237.545C115.429 253.784 118.664 269.858 124.943 284.817C127.986 292.028 131.71 298.929 136.063 305.424C140.378 311.865 145.302 317.87 150.767 323.357C161.762 334.43 174.779 343.263 189.103 349.371C203.965 355.707 219.947 358.952 236.088 358.912C252.228 358.949 268.21 355.703 283.073 349.371C297.392 343.273 310.401 334.438 321.377 323.357C326.852 317.871 331.787 311.865 336.112 305.424C340.466 298.929 344.19 292.028 347.233 284.817C353.492 269.853 356.717 253.781 356.717 237.545C356.717 221.309 353.492 205.237 347.233 190.272C341.162 175.861 332.383 162.764 321.377 151.702C310.388 140.643 297.383 131.821 283.073 125.719C268.212 119.376 252.23 116.12 236.088 116.146ZM236.088 112.852C260.783 112.795 284.925 120.213 305.376 134.142C318.556 143.103 329.912 154.517 338.83 167.77C343.311 174.438 347.138 181.526 350.26 188.936C356.693 204.313 360.007 220.829 360.007 237.514C360.007 254.198 356.693 270.714 350.26 286.092C347.133 293.499 343.305 300.587 338.83 307.257C334.391 313.871 329.333 320.043 323.725 325.688C318.112 331.349 311.967 336.45 305.376 340.917C298.757 345.437 291.71 349.289 284.339 352.416C269.08 358.935 252.666 362.276 236.088 362.238C219.513 362.273 203.102 358.944 187.836 352.448C180.471 349.309 173.425 345.457 166.8 340.948C160.222 336.474 154.078 331.385 148.451 325.75C142.842 320.094 137.784 313.912 133.345 307.288C128.852 300.629 125.024 293.539 121.915 286.123C115.453 270.756 112.154 254.231 112.216 237.545C112.18 220.869 115.49 204.357 121.946 188.998C125.055 181.582 128.883 174.492 133.376 167.832C137.823 161.214 142.88 155.033 148.481 149.371C154.098 143.736 160.232 138.647 166.8 134.173C173.426 129.665 180.472 125.814 187.836 122.673C203.098 116.161 219.51 112.82 236.088 112.852Z" fill="#D5DDE5"/>
    <path d="M236.089 101.789C218.05 101.749 200.188 105.375 183.575 112.449C175.557 115.846 167.881 120.009 160.654 124.881C153.5 129.76 146.818 135.306 140.698 141.447C134.595 147.604 129.083 154.326 124.234 161.525C119.391 168.796 115.253 176.519 111.877 184.586C104.892 201.315 101.294 219.277 101.294 237.422C101.294 255.567 104.892 273.529 111.877 290.258C115.247 298.318 119.385 306.031 124.234 313.288C129.075 320.502 134.588 327.236 140.698 333.397C146.797 339.622 153.469 345.252 160.623 350.211C167.85 355.084 175.526 359.247 183.544 362.643C200.161 369.703 218.02 373.328 236.058 373.304C262.948 373.41 289.246 365.363 311.524 350.211C325.909 340.462 338.286 328.01 347.976 313.537C360.494 294.792 368.178 273.206 370.336 250.727C372.493 228.247 369.055 205.581 360.332 184.772C356.956 176.705 352.818 168.983 347.976 161.711C343.141 154.482 337.639 147.728 331.542 141.54C325.418 135.392 318.725 129.845 311.555 124.975C304.342 120.096 296.677 115.933 288.665 112.543C272.039 105.431 254.156 101.774 236.089 101.789ZM236.089 98.8674C254.519 98.8327 272.768 102.532 289.746 109.745C297.939 113.253 305.78 117.541 313.162 122.55C320.48 127.516 327.308 133.178 333.55 139.458C339.783 145.746 345.409 152.614 350.354 159.971C355.346 167.39 359.608 175.28 363.081 183.529C370.237 200.623 373.924 218.983 373.924 237.531C373.924 256.079 370.237 274.439 363.081 291.532C359.618 299.78 355.366 307.671 350.385 315.091C345.44 322.447 339.813 329.316 333.58 335.604C327.331 341.875 320.504 347.536 313.193 352.511C305.815 357.527 297.973 361.815 289.777 365.316C272.794 372.554 254.533 376.265 236.089 376.225C208.571 376.286 181.668 368.036 158.862 352.542C151.551 347.567 144.724 341.906 138.474 335.635C132.232 329.355 126.605 322.486 121.67 315.122C116.737 307.699 112.537 299.808 109.128 291.563C101.934 274.476 98.2464 256.103 98.2855 237.546C98.2608 219.001 101.948 200.641 109.128 183.56C112.615 175.317 116.876 167.429 121.855 160.002C131.724 145.297 144.309 132.636 158.924 122.706C166.291 117.672 174.134 113.383 182.339 109.901C199.331 102.606 217.616 98.8522 236.089 98.8674Z" fill="#B8C1CC"/>
    <path d="M236.087 87.3928C216.126 87.3543 196.363 91.3713 177.982 99.2031C169.117 102.984 160.634 107.616 152.652 113.034C128.662 129.324 109.883 152.266 98.5927 179.079C90.8444 197.583 86.8529 217.46 86.8529 237.54C86.8529 257.62 90.8444 277.497 98.5927 296.002C106.096 313.828 116.952 330.028 130.565 343.71C137.338 350.507 144.733 356.646 152.652 362.047C160.634 367.465 169.117 372.096 177.982 375.877C196.363 383.709 216.126 387.726 236.087 387.688C256.049 387.726 275.812 383.709 294.193 375.877C303.058 372.096 311.541 367.465 319.523 362.047C327.442 356.646 334.837 350.507 341.61 343.71C348.366 336.895 354.468 329.454 359.836 321.487C365.221 313.456 369.824 304.921 373.582 296.002C381.331 277.497 385.322 257.62 385.322 237.54C385.322 217.46 381.331 197.583 373.582 179.079C369.824 170.159 365.221 161.624 359.836 153.593C354.468 145.626 348.366 138.186 341.61 131.371C334.845 124.565 327.449 118.425 319.523 113.034C311.541 107.616 303.058 102.984 294.193 99.2031C275.812 91.3713 256.049 87.3543 236.087 87.3928ZM236.087 84.8753C256.377 84.8361 276.465 88.9164 295.151 96.8721C304.173 100.685 312.802 105.38 320.914 110.889C337.077 121.845 350.985 135.839 361.875 152.101C367.372 160.26 372.059 168.941 375.868 178.022C383.802 196.825 387.869 217.051 387.823 237.478C387.864 257.892 383.809 278.104 375.899 296.903C372.09 305.984 367.403 314.666 361.906 322.824C351.016 339.086 337.108 353.08 320.944 364.036C312.838 369.588 304.209 374.325 295.182 378.177C276.493 386.16 256.391 390.252 236.087 390.205C215.817 390.229 195.749 386.138 177.086 378.177C168.061 374.344 159.432 369.629 151.323 364.098C143.26 358.622 135.739 352.377 128.866 345.45C121.991 338.525 115.785 330.96 110.331 322.855C104.857 314.682 100.171 306.003 96.3376 296.934C88.4679 278.117 84.4141 257.908 84.4141 237.494C84.4141 217.079 88.4679 196.87 96.3376 178.053C100.147 168.973 104.834 160.291 110.331 152.132C115.774 144.019 121.981 136.453 128.866 129.537C142.702 115.631 159.075 104.54 177.086 96.8721C195.752 88.9254 215.819 84.8453 236.087 84.8753Z" fill="#EEF2F6"/>
    <path d="M236.088 73.005C214.21 72.9782 192.553 77.408 172.422 86.0275C162.68 90.1467 153.367 95.2273 144.62 101.195C135.934 107.087 127.833 113.811 120.433 121.272C113.017 128.718 106.334 136.868 100.477 145.608C94.5482 154.414 89.4889 163.783 85.3718 173.58C76.8895 193.857 72.5201 215.636 72.5201 237.636C72.5201 259.636 76.8895 281.414 85.3718 301.692C89.4957 311.485 94.5546 320.853 100.477 329.664C106.334 338.404 113.017 346.553 120.433 353.999C135.335 369.004 152.978 380.971 172.391 389.244C192.549 397.79 214.214 402.155 236.088 402.08C268.676 402.113 300.526 392.315 327.525 373.953C336.211 368.06 344.311 361.336 351.712 353.875C359.139 346.43 365.832 338.281 371.698 329.539C377.611 320.728 382.66 311.36 386.773 301.567C395.277 281.296 399.659 259.515 399.659 237.511C399.659 215.508 395.277 193.727 386.773 173.456C382.667 163.659 377.618 154.291 371.698 145.484C365.842 136.744 359.159 128.594 351.743 121.148C344.342 113.687 336.242 106.963 327.555 101.07C318.805 95.1093 309.493 90.0292 299.754 85.9032C279.614 77.3264 257.957 72.9389 236.088 73.005ZM236.088 70.8916C258.264 70.8408 280.222 75.2911 300.65 83.9762C320.266 92.3855 338.094 104.509 353.164 119.687C360.672 127.236 367.448 135.489 373.397 144.334C379.377 153.256 384.487 162.738 388.657 172.647C397.305 193.174 401.739 215.248 401.693 237.542C401.731 259.823 397.308 281.883 388.688 302.406C384.508 312.317 379.387 321.799 373.397 330.72C367.439 339.558 360.664 347.81 353.164 355.367C345.654 362.914 337.452 369.73 328.668 375.724C319.839 381.733 310.456 386.875 300.65 391.078C280.229 399.787 258.267 404.248 236.088 404.193C213.943 404.235 192.016 399.785 171.619 391.109C161.763 386.853 152.338 381.649 143.477 375.569C134.689 369.592 126.486 362.785 118.981 355.242C111.48 347.687 104.705 339.434 98.7475 330.596C92.7677 321.674 87.6574 312.192 83.4874 302.282C74.8397 281.755 70.4056 259.682 70.4515 237.387C70.4102 215.106 74.8333 193.045 83.4565 172.523C87.6864 162.607 92.8589 153.125 98.9019 144.209C104.833 135.36 111.599 127.106 119.104 119.563C126.608 112.008 134.81 105.192 143.601 99.2054C152.469 93.189 161.893 88.0474 171.742 83.8519C192.107 75.225 213.992 70.8171 236.088 70.8916Z" fill="#D5DDE5"/>
    <path d="M236.088 58.647C212.309 58.6004 188.764 63.3783 166.862 72.6952C156.287 77.1805 146.169 82.6867 136.651 89.1365C117.746 102.023 101.455 118.415 88.6464 137.435C82.2145 147.009 76.7211 157.189 72.2434 167.831C63.0271 189.881 58.2798 213.561 58.2798 237.481C58.2798 261.402 63.0271 285.082 72.2434 307.132C76.7211 317.774 82.2145 327.953 88.6464 337.528C101.455 356.548 117.746 372.939 136.651 385.826C146.174 392.286 156.29 397.812 166.862 402.33C188.76 411.668 212.304 416.467 236.088 416.44C259.867 416.487 283.412 411.709 305.314 402.392C315.879 397.881 325.986 392.354 335.495 385.888C344.942 379.504 353.755 372.218 361.814 364.132C369.842 356.029 377.083 347.172 383.437 337.683C389.858 328.102 395.35 317.923 399.84 307.287C409.056 285.237 413.804 261.557 413.804 237.637C413.804 213.716 409.056 190.037 399.84 167.986C395.35 157.35 389.858 147.172 383.437 137.59C377.083 128.101 369.842 119.245 361.814 111.141C353.755 103.056 344.942 95.7699 335.495 89.3851C325.993 82.9075 315.885 77.3801 305.314 72.8817C283.425 63.5008 259.88 58.6593 236.088 58.647ZM236.088 56.9066C260.093 56.8604 283.859 61.6915 305.963 71.1101C316.646 75.6415 326.858 81.2214 336.452 87.769C345.993 94.2357 354.889 101.615 363.018 109.805C371.159 117.991 378.503 126.941 384.951 136.534C391.441 146.197 396.986 156.471 401.508 167.209C413.165 194.889 417.756 225.062 414.864 254.983C411.972 284.903 401.689 313.621 384.951 338.522C365.479 367.566 338.052 390.303 305.994 403.977C283.879 413.396 260.103 418.227 236.088 418.18C200.317 418.235 165.353 407.484 135.724 387.318C116.608 374.332 100.145 357.778 87.2255 338.553C80.7419 328.886 75.1972 318.613 70.668 307.878C61.3506 285.619 56.5508 261.711 56.5508 237.559C56.5508 213.407 61.3506 189.499 70.668 167.241C75.1718 156.493 80.7178 146.218 87.2255 136.565C93.6528 126.966 100.987 118.014 109.127 109.836C117.263 101.645 126.159 94.2562 135.693 87.769C165.331 67.5975 200.306 56.8457 236.088 56.9066Z" fill="#F6F7F8"/>
    <path d="M236.089 44.259C210.397 44.2009 184.958 49.3705 161.302 59.4571C149.884 64.3222 138.959 70.2861 128.682 77.2659C118.48 84.2086 108.954 92.1071 100.231 100.856C91.5328 109.651 83.6823 119.257 76.785 129.543C69.854 139.887 63.9266 150.878 59.0846 162.363C49.1156 186.181 43.9801 211.764 43.9801 237.608C43.9801 263.451 49.1156 289.034 59.0846 312.852C63.9266 324.338 69.854 335.328 76.785 345.673C83.6859 355.927 91.5363 365.501 100.231 374.266C108.945 383.034 118.472 390.943 128.682 397.887C138.959 404.867 149.884 410.831 161.302 415.696C184.967 425.747 210.402 430.895 236.089 430.832C261.78 430.876 287.215 425.706 310.875 415.634C345.161 400.967 374.509 376.652 395.392 345.611C402.317 335.305 408.244 324.357 413.093 312.914C423.062 289.096 428.197 263.514 428.197 237.67C428.197 211.826 423.062 186.243 413.093 162.425C408.254 150.918 402.327 139.907 395.392 129.543C388.491 119.27 380.629 109.685 371.915 100.918C363.204 92.1697 353.688 84.2712 343.496 77.3281C333.214 70.3546 322.291 64.3909 310.875 59.5193C287.224 49.4114 261.785 44.2206 236.089 44.259ZM236.089 42.9226C274.626 42.8591 312.293 54.445 344.206 76.1782C354.468 83.1636 364.046 91.1144 372.811 99.9233C390.461 117.66 404.537 138.662 414.267 161.772C424.365 185.74 429.545 211.513 429.496 237.546C429.541 263.564 424.372 289.324 414.298 313.287C409.405 324.863 403.416 335.937 396.412 346.357C389.485 356.656 381.604 366.272 372.873 375.074C364.112 383.91 354.522 391.872 344.237 398.851C312.313 420.561 274.653 432.145 236.12 432.106C210.259 432.155 184.655 426.954 160.839 416.815C149.335 411.902 138.328 405.887 127.971 398.851C117.694 391.849 108.096 383.889 99.3044 375.074C90.5415 366.251 82.6385 356.603 75.7039 346.263C68.7138 335.857 62.7444 324.792 57.8799 313.225C47.7814 289.258 42.6013 263.484 42.6507 237.452C42.5877 198.679 54.1031 160.782 75.7039 128.672C82.6544 118.344 90.5561 108.698 99.3044 99.8611C108.07 91.0522 117.648 83.1014 127.909 76.116C138.267 69.0891 149.274 63.0836 160.777 58.1828C184.603 48.0437 210.219 42.8531 236.089 42.9226Z" fill="#E7ECF2"/>
    <path d="M236.088 29.8702C208.499 29.8267 181.183 35.3761 155.772 46.1872C143.502 51.4238 131.761 57.835 120.711 65.3325C98.8028 80.2453 79.9297 99.234 65.1076 121.276C57.6558 132.394 51.2836 144.207 46.0789 156.552C35.3843 182.134 29.8754 209.608 29.8754 237.36C29.8754 265.113 35.3843 292.586 46.0789 318.168C51.2836 330.513 57.6558 342.326 65.1076 353.444C72.4556 364.536 80.8337 374.901 90.1291 384.4C99.4937 393.796 109.723 402.278 120.68 409.73C131.723 417.249 143.465 423.671 155.741 428.906C181.152 439.717 208.468 445.267 236.057 445.223C263.647 445.267 290.962 439.717 316.373 428.906C328.65 423.671 340.392 417.249 351.434 409.73C362.413 402.281 372.663 393.799 382.047 384.4C391.386 374.978 399.816 364.686 407.223 353.662C414.698 342.558 421.071 330.743 426.252 318.386C436.967 292.809 442.487 265.334 442.487 237.578C442.487 209.822 436.967 182.347 426.252 156.77C421.071 144.413 414.698 132.598 407.223 121.494C392.412 99.4423 373.537 80.4516 351.62 65.5501C340.569 58.0526 328.828 51.6414 316.559 46.4048C291.115 35.4986 263.744 29.8746 236.088 29.8702ZM236.088 28.9378C263.807 28.8881 291.251 34.4697 316.775 45.3481C329.111 50.5846 340.907 57.0284 351.99 64.5866C363.012 72.0629 373.294 80.5869 382.696 90.0411C392.076 99.5042 400.547 109.838 407.995 120.904C415.489 132.066 421.893 143.932 427.117 156.335C437.882 182.035 443.428 209.642 443.428 237.531C443.428 265.42 437.882 293.028 427.117 318.728C421.912 331.14 415.507 343.007 407.995 354.159C400.564 365.248 392.092 375.593 382.696 385.052C373.29 394.49 363.02 403.013 352.021 410.507C340.923 418.041 329.13 424.483 316.806 429.745C291.27 440.621 263.817 446.202 236.088 446.156C194.768 446.215 154.382 433.797 120.155 410.507C109.149 403.022 98.8779 394.499 89.4804 385.052C80.1003 375.589 71.6295 365.256 64.1809 354.19C56.6814 343.031 50.2775 331.165 45.0595 318.759C34.2953 293.053 28.75 265.441 28.75 237.547C28.75 209.653 34.2953 182.04 45.0595 156.335C50.2775 143.929 56.6814 132.063 64.1809 120.904C71.62 109.83 80.0915 99.4962 89.4804 90.0411C98.8859 80.6035 109.156 72.0808 120.155 64.5866C131.272 57.0294 143.098 50.5858 155.463 45.3481C180.969 34.482 208.39 28.9008 236.088 28.9378Z" fill="#EEF2F6"/>
    <path d="M236.088 15.4742C206.576 15.4143 177.355 21.3555 150.181 32.9411C97.3052 55.4953 55.213 97.8453 32.7962 151.045C21.3387 178.403 15.4363 207.791 15.4363 237.479C15.4363 267.166 21.3387 296.554 32.7962 323.912C55.213 377.112 97.3052 419.462 150.181 442.016C177.353 453.62 206.571 459.592 236.088 459.576C280.017 459.651 322.956 446.453 359.343 421.69C382.851 405.735 403.092 385.381 418.962 361.736C426.94 349.848 433.757 337.213 439.319 324.005C450.756 296.642 456.647 267.256 456.647 237.572C456.647 207.887 450.756 178.502 439.319 151.138C428.216 124.768 412.158 100.802 392.025 80.5557C382.016 70.4829 371.072 61.3972 359.343 53.4228C347.542 45.3901 334.992 38.5306 321.872 32.9411C294.734 21.3793 265.559 15.4387 236.088 15.4742ZM236.088 14.9458C265.695 14.8812 295.009 20.8328 322.274 32.4438C335.435 38.054 348.025 44.9341 359.868 52.9877C383.428 68.985 403.711 89.3918 419.61 113.096C427.608 125.004 434.446 137.661 440.029 150.89C451.545 178.306 457.45 207.777 457.39 237.541C457.452 267.295 451.548 296.756 440.029 324.161C434.453 337.403 427.615 350.07 419.61 361.985C403.711 385.69 383.428 406.096 359.868 422.094C348.022 430.143 335.433 437.022 322.274 442.638C295.005 454.232 265.692 460.173 236.088 460.105C206.506 460.165 177.214 454.224 149.965 442.638C136.817 437.021 124.237 430.141 112.402 422.094C88.8415 406.096 68.5589 385.69 52.659 361.985C44.661 350.077 37.823 337.421 32.2402 324.192C20.7623 296.763 14.8496 267.302 14.8496 237.541C14.8496 207.78 20.7623 178.319 32.2402 150.89C43.3652 124.455 59.4666 100.435 79.6575 80.1516C89.6881 70.0691 100.653 60.9732 112.402 52.9877C124.237 44.9407 136.817 38.0609 149.965 32.4438C177.212 20.8475 206.504 14.8964 236.088 14.9458Z" fill="#E7ECF2"/>
    <path d="M236.088 1.11669C204.662 1.07235 173.551 7.41519 144.621 19.7647C130.642 25.6861 117.274 32.973 104.71 41.5207C79.6681 58.5178 58.0979 80.1886 41.1677 105.359C32.672 118 25.4295 131.45 19.5442 145.514C4.30685 181.743 -1.69619 221.226 2.07998 260.38C5.85615 299.535 19.2919 337.121 41.1677 369.725C58.0766 394.901 79.6257 416.582 104.648 433.595C117.213 442.143 130.58 449.429 144.559 455.351C173.489 467.7 204.6 474.043 236.027 473.999C267.453 474.043 298.564 467.7 327.494 455.351C341.47 449.423 354.837 442.136 367.405 433.595C392.428 416.582 413.977 394.901 430.886 369.725C452.712 337.099 466.118 299.517 469.893 260.373C473.668 221.228 467.694 181.754 452.509 145.514C446.624 131.45 439.381 118 430.886 105.359C413.977 80.1832 392.428 58.5021 367.405 41.4896C354.837 32.9482 341.47 25.6616 327.494 19.7336C298.581 7.40299 267.492 1.07089 236.088 1.11669ZM236.088 474.092C204.642 474.136 173.511 467.794 144.559 455.444C130.58 449.503 117.204 442.217 104.617 433.688C79.6166 416.659 58.0805 394.981 41.1677 369.819C32.6897 357.156 25.4482 343.697 19.5442 329.632C7.35262 300.48 1.0725 269.17 1.0725 237.542C1.0725 205.914 7.35262 174.605 19.5442 145.452C25.4482 131.387 32.6897 117.929 41.1677 105.266C49.6135 92.7059 59.2334 80.9872 69.8961 70.2697C91.6966 48.2774 117.601 30.8358 146.122 18.947C174.643 7.05818 205.217 0.95644 236.088 0.992391C267.534 0.950779 298.665 7.29334 327.618 19.6404C355.525 31.5629 380.894 48.7724 402.343 70.3318C412.996 81.0499 422.605 92.7686 431.04 105.328C439.517 117.992 446.759 131.45 452.664 145.514C464.855 174.667 471.135 205.976 471.135 237.604C471.135 269.232 464.855 300.542 452.664 329.694C446.759 343.759 439.517 357.217 431.04 369.881C422.605 382.44 412.996 394.159 402.343 404.877C380.894 426.436 355.525 443.646 327.618 455.568C298.657 467.873 267.526 474.173 236.088 474.092Z" fill="#B8C1CC"/>
</svg>

              