<svg width="16" height="16" viewBox="0 0 16 16" fill="none" xmlns="http://www.w3.org/2000/svg">
<path d="M14.6667 11.28V13.28C14.6674 13.4657 14.6294 13.6494 14.555 13.8196C14.4806 13.9897 14.3715 14.1424 14.2347 14.2679C14.0979 14.3934 13.9364 14.489 13.7605 14.5485C13.5846 14.608 13.3982 14.63 13.2133 14.6133C11.1619 14.3904 9.19132 13.6894 7.45999 12.5667C5.84921 11.5431 4.48355 10.1774 3.45999 8.56667C2.33331 6.82747 1.63215 4.84733 1.41332 2.78667C1.39666 2.60231 1.41857 2.41651 1.47766 2.24108C1.53674 2.06566 1.6317 1.90446 1.7565 1.76775C1.8813 1.63103 2.03319 1.5218 2.20252 1.44701C2.37184 1.37222 2.55488 1.33351 2.73999 1.33333H4.73999C5.06353 1.33015 5.37719 1.44472 5.6225 1.65569C5.86781 1.86666 6.02804 2.15963 6.07332 2.48C6.15774 3.12004 6.31429 3.74848 6.53999 4.35333C6.62969 4.59195 6.6491 4.85127 6.59593 5.10059C6.54276 5.3499 6.41923 5.57874 6.23999 5.76L5.39332 6.60667C6.34236 8.2757 7.72429 9.65763 9.39332 10.6067L10.24 9.76C10.4213 9.58076 10.6501 9.45723 10.8994 9.40406C11.1487 9.35089 11.408 9.3703 11.6467 9.46C12.2515 9.6857 12.8799 9.84225 13.52 9.92667C13.8438 9.97235 14.1396 10.1355 14.351 10.385C14.5624 10.6345 14.6748 10.953 14.6667 11.28Z" stroke="#00367A" stroke-width="1.33333" stroke-linecap="round" stroke-linejoin="round"/>
</svg>
