<svg width="20" height="20" viewBox="0 0 20 20" fill="none" xmlns="http://www.w3.org/2000/svg">
<g clip-path="url(#clip0_156_82842)">
<path d="M6.66663 17.5H13.3333" stroke="#2460B9" stroke-width="1.5625" stroke-linecap="round" stroke-linejoin="round"/>
<path d="M10 14.1667V17.5" stroke="#2460B9" stroke-width="1.5625" stroke-linecap="round" stroke-linejoin="round"/>
<path d="M16.6666 2.5H3.33329C2.41282 2.5 1.66663 3.24619 1.66663 4.16667V12.5C1.66663 13.4205 2.41282 14.1667 3.33329 14.1667H16.6666C17.5871 14.1667 18.3333 13.4205 18.3333 12.5V4.16667C18.3333 3.24619 17.5871 2.5 16.6666 2.5Z" stroke="#2460B9" stroke-width="1.5625" stroke-linecap="round" stroke-linejoin="round"/>
<mask id="path-4-outside-1_156_82842" maskUnits="userSpaceOnUse" x="11.5" y="9" width="9" height="9" fill="black">
<rect fill="white" x="11.5" y="9" width="9" height="9"/>
<path fill-rule="evenodd" clip-rule="evenodd" d="M15.2725 16.6549L12.5 10L19.1549 12.7725L17.0816 13.4768L19.3269 15.7221C19.632 16.0272 19.632 16.5218 19.3269 16.8269C19.0218 17.132 18.5271 17.132 18.222 16.8269L15.9767 14.5816L15.2725 16.6549Z"/>
</mask>
<path fill-rule="evenodd" clip-rule="evenodd" d="M15.2725 16.6549L12.5 10L19.1549 12.7725L17.0816 13.4768L19.3269 15.7221C19.632 16.0272 19.632 16.5218 19.3269 16.8269C19.0218 17.132 18.5271 17.132 18.222 16.8269L15.9767 14.5816L15.2725 16.6549Z" fill="#2460B9"/>
<path d="M12.5 10L12.8434 9.17581C12.5094 9.03667 12.1245 9.11283 11.8687 9.36865C11.6128 9.62448 11.5367 10.0094 11.6758 10.3434L12.5 10ZM15.2725 16.6549L14.4484 16.9983C14.5912 17.3411 14.9314 17.5598 15.3026 17.5473C15.6738 17.5348 15.9985 17.2937 16.118 16.942L15.2725 16.6549ZM19.1549 12.7725L19.442 13.618C19.7937 13.4985 20.0348 13.1738 20.0473 12.8026C20.0598 12.4314 19.8411 12.0912 19.4983 11.9484L19.1549 12.7725ZM17.0816 13.4768L16.7944 12.6313C16.5023 12.7306 16.2821 12.9736 16.212 13.2741C16.142 13.5746 16.2321 13.8899 16.4502 14.1081L17.0816 13.4768ZM19.3269 15.7221L19.9582 15.0907L19.9582 15.0907L19.3269 15.7221ZM19.3269 16.8269L19.9582 17.4583L19.9582 17.4583L19.3269 16.8269ZM18.222 16.8269L17.5907 17.4583L17.5907 17.4583L18.222 16.8269ZM15.9767 14.5816L16.6081 13.9503C16.3899 13.7321 16.0746 13.642 15.7741 13.7121C15.4736 13.7821 15.2305 14.0023 15.1313 14.2945L15.9767 14.5816ZM11.6758 10.3434L14.4484 16.9983L16.0967 16.3115L13.3242 9.65663L11.6758 10.3434ZM19.4983 11.9484L12.8434 9.17581L12.1566 10.8242L18.8115 13.5967L19.4983 11.9484ZM17.3687 14.3222L19.442 13.618L18.8678 11.9271L16.7944 12.6313L17.3687 14.3222ZM16.4502 14.1081L18.6955 16.3534L19.9582 15.0907L17.7129 12.8454L16.4502 14.1081ZM18.6955 16.3534C18.6519 16.3098 18.6519 16.2392 18.6955 16.1956L19.9582 17.4583C20.612 16.8045 20.612 15.7445 19.9582 15.0907L18.6955 16.3534ZM18.6955 16.1956C18.7391 16.152 18.8098 16.152 18.8534 16.1956L17.5907 17.4583C18.2445 18.112 19.3044 18.112 19.9582 17.4583L18.6955 16.1956ZM18.8534 16.1956L16.6081 13.9503L15.3454 15.213L17.5907 17.4583L18.8534 16.1956ZM16.118 16.942L16.8222 14.8688L15.1313 14.2945L14.4271 16.3678L16.118 16.942Z" fill="white" mask="url(#path-4-outside-1_156_82842)"/>
</g>
<defs>
<clipPath id="clip0_156_82842">
<rect width="20" height="20" fill="white"/>
</clipPath>
</defs>
</svg>
