<svg width="72" height="72" viewBox="0 0 72 72" fill="none" xmlns="http://www.w3.org/2000/svg">
<g clip-path="url(#clip0_66_36545)">
<path d="M24 63H48" stroke="#00367A" stroke-width="6" stroke-linecap="round" stroke-linejoin="round"/>
<path d="M36 51V63" stroke="#00367A" stroke-width="6" stroke-linecap="round" stroke-linejoin="round"/>
<path d="M60 9H12C8.68629 9 6 11.6863 6 15V45C6 48.3137 8.68629 51 12 51H60C63.3137 51 66 48.3137 66 45V15C66 11.6863 63.3137 9 60 9Z" stroke="#00367A" stroke-width="6" stroke-linecap="round" stroke-linejoin="round"/>
<mask id="path-4-outside-1_66_36545" maskUnits="userSpaceOnUse" x="41" y="32" width="34" height="34" fill="black">
<rect fill="white" x="41" y="32" width="34" height="34"/>
<path fill-rule="evenodd" clip-rule="evenodd" d="M54.9812 59.9576L45 36L68.9576 45.9812L61.692 48.449L69.7101 56.4671C70.8816 57.6386 70.8816 59.5381 69.7101 60.7097C68.5385 61.8813 66.639 61.8813 65.4674 60.7097L57.4491 52.6914L54.9812 59.9576Z"/>
</mask>
<path fill-rule="evenodd" clip-rule="evenodd" d="M54.9812 59.9576L45 36L68.9576 45.9812L61.692 48.449L69.7101 56.4671C70.8816 57.6386 70.8816 59.5381 69.7101 60.7097C68.5385 61.8813 66.639 61.8813 65.4674 60.7097L57.4491 52.6914L54.9812 59.9576Z" fill="#C50733"/>
<path d="M45 36L46.3185 32.8351C45.0361 32.3008 43.558 32.5933 42.5756 33.5756C41.5933 34.558 41.3008 36.0361 41.8351 37.3185L45 36ZM54.9812 59.9576L51.8163 61.2762C52.3648 62.5928 53.6711 63.4323 55.0966 63.3843C56.522 63.3363 57.7689 62.4108 58.2276 61.0603L54.9812 59.9576ZM68.9576 45.9812L70.0603 49.2276C71.4108 48.7689 72.3363 47.522 72.3843 46.0966C72.4323 44.6711 71.5928 43.3648 70.2762 42.8163L68.9576 45.9812ZM61.692 48.449L60.5893 45.2025C59.4675 45.5836 58.6218 46.5168 58.3529 47.6707C58.0839 48.8246 58.4298 50.0355 59.2676 50.8733L61.692 48.449ZM69.7101 56.4671L72.1344 54.0427L72.1344 54.0427L69.7101 56.4671ZM69.7101 60.7097L72.1344 63.1341L72.1344 63.1341L69.7101 60.7097ZM65.4674 60.7097L63.0431 63.1341L63.0431 63.1341L65.4674 60.7097ZM57.4491 52.6914L59.8735 50.2671C59.0357 49.4293 57.8248 49.0834 56.6709 49.3523C55.517 49.6213 54.5838 50.4669 54.2027 51.5888L57.4491 52.6914ZM41.8351 37.3185L51.8163 61.2762L58.1461 58.6391L48.1649 34.6815L41.8351 37.3185ZM70.2762 42.8163L46.3185 32.8351L43.6815 39.1649L67.6391 49.1461L70.2762 42.8163ZM62.7946 51.6954L70.0603 49.2276L67.855 42.7348L60.5893 45.2025L62.7946 51.6954ZM59.2676 50.8733L67.2857 58.8914L72.1344 54.0427L64.1163 46.0246L59.2676 50.8733ZM67.2857 58.8914C67.1183 58.7241 67.1183 58.4527 67.2857 58.2853L72.1344 63.1341C74.645 60.6236 74.645 56.5532 72.1344 54.0427L67.2857 58.8914ZM67.2857 58.2853C67.4531 58.118 67.7244 58.118 67.8918 58.2853L63.0431 63.1341C65.5536 65.6446 69.6239 65.6446 72.1344 63.1341L67.2857 58.2853ZM67.8918 58.2853L59.8735 50.2671L55.0248 55.1158L63.0431 63.1341L67.8918 58.2853ZM58.2276 61.0603L60.6956 53.7941L54.2027 51.5888L51.7348 58.855L58.2276 61.0603Z" fill="white" mask="url(#path-4-outside-1_66_36545)"/>
</g>
<defs>
<clipPath id="clip0_66_36545">
<rect width="72" height="72" fill="white"/>
</clipPath>
</defs>
</svg>
