<svg width="20" height="20" viewBox="0 0 20 20" fill="none" xmlns="http://www.w3.org/2000/svg">
<path d="M10.4427 9.16669V9.55731H10.8333H13.3333C13.4507 9.55731 13.5633 9.60395 13.6463 9.68698C13.7294 9.77 13.776 9.88261 13.776 10C13.776 10.1174 13.7294 10.23 13.6463 10.3131C13.5633 10.3961 13.4507 10.4427 13.3333 10.4427H10.8333C10.1324 10.4427 9.55725 9.86762 9.55725 9.16669V5.83335C9.55725 5.71594 9.60389 5.60334 9.68692 5.52031C9.76994 5.43729 9.88255 5.39065 9.99996 5.39065C10.1174 5.39065 10.23 5.43729 10.313 5.52031C10.396 5.60334 10.4427 5.71594 10.4427 5.83335V9.16669ZM9.99996 17.9427C5.6132 17.9427 2.05725 14.3868 2.05725 10C2.05725 5.61326 5.6132 2.05731 9.99996 2.05731C14.3867 2.05731 17.9427 5.61326 17.9427 10C17.9427 14.3868 14.3867 17.9427 9.99996 17.9427ZM17.0573 10C17.0573 8.12831 16.3137 6.33326 14.9902 5.00976C13.6667 3.68626 11.8717 2.94273 9.99996 2.94273C8.12825 2.94273 6.3332 3.68626 5.0097 5.00976C3.6862 6.33326 2.94267 8.12831 2.94267 10C2.94267 11.8717 3.6862 13.6668 5.0097 14.9903C6.3332 16.3138 8.12825 17.0573 9.99996 17.0573C11.8717 17.0573 13.6667 16.3138 14.9902 14.9903C16.3137 13.6668 17.0573 11.8717 17.0573 10Z" fill="#2460B9" stroke="#2460B9" stroke-width="0.78125"/>
</svg>
